<svg width="81" height="82" viewBox="0 0 81 82" fill="none" xmlns="http://www.w3.org/2000/svg">
<path d="M20.0826 48.7914C20.0826 48.9444 20.079 49.0639 20.073 49.1511C20.0683 49.2384 20.0575 49.3029 20.042 49.346C20.0264 49.389 20.0013 49.4165 19.9666 49.4272C19.9331 49.438 19.8876 49.4428 19.8314 49.4428C19.7752 49.4428 19.7309 49.4392 19.6986 49.4308C19.6664 49.4225 19.6412 49.4021 19.6245 49.3687C19.6077 49.3352 19.5982 49.285 19.5958 49.2181C19.5934 49.1511 19.5922 49.0591 19.5922 48.9408C19.5922 48.8487 19.5922 48.7734 19.5922 48.7137C19.591 48.6539 19.5886 48.6073 19.5838 48.5726C19.579 48.5379 19.5731 48.5128 19.5659 48.4997C19.5587 48.4854 19.5467 48.4782 19.5312 48.4782C19.5252 48.4782 19.5144 48.4806 19.5013 48.4842C19.4869 48.4877 19.469 48.4925 19.4474 48.4985C19.4139 48.5093 19.3841 48.5188 19.359 48.5248C19.3338 48.5308 19.3123 48.5344 19.2931 48.5344C19.256 48.5344 19.2322 48.5248 19.2238 48.5081C19.2142 48.4901 19.2094 48.4603 19.2106 48.4172C19.2106 48.385 19.213 48.3587 19.2178 48.3395C19.2226 48.3204 19.2345 48.3037 19.2525 48.2905C19.2716 48.2774 19.2991 48.2642 19.3338 48.2511C19.3697 48.2391 19.42 48.2248 19.4858 48.2081C19.5444 48.1925 19.5922 48.1794 19.6281 48.171C19.664 48.1626 19.6963 48.1555 19.7238 48.1519C19.7513 48.1471 19.7788 48.1447 19.8051 48.1435C19.8314 48.1435 19.8637 48.1411 19.9008 48.1411C19.9439 48.1411 19.9786 48.1471 20.0037 48.1567C20.0288 48.1674 20.0468 48.1937 20.0587 48.2379C20.0707 48.281 20.0778 48.3467 20.0802 48.4328C20.0826 48.52 20.0838 48.6396 20.0826 48.7914Z" fill="#24E1E4"/>
<path d="M21.036 48.1183C21.1413 48.1183 21.2381 48.1291 21.3266 48.1506C21.4152 48.1721 21.4918 48.2032 21.5564 48.2426C21.6209 48.2821 21.6712 48.3299 21.707 48.3849C21.7417 48.4398 21.7597 48.5008 21.7597 48.5665C21.7597 48.6323 21.7394 48.6956 21.7011 48.7554C21.6616 48.8152 21.6161 48.8761 21.5623 48.9371C21.5408 48.9622 21.5157 48.9909 21.487 49.0231C21.4583 49.0554 21.4271 49.0937 21.3936 49.1367C21.3338 49.2084 21.2848 49.2658 21.2465 49.3064C21.207 49.3483 21.17 49.3793 21.1341 49.3997C21.0982 49.42 21.0599 49.4331 21.0181 49.4379C20.9762 49.4427 20.9211 49.4451 20.853 49.4451C20.7752 49.4451 20.719 49.4427 20.6831 49.4379C20.6472 49.4331 20.6293 49.4212 20.6305 49.402C20.6305 49.3889 20.6413 49.3674 20.6628 49.3375C20.6843 49.3088 20.7178 49.2682 20.7608 49.2168C20.8111 49.1594 20.847 49.1164 20.8686 49.0877C20.8901 49.059 20.9008 49.0363 20.902 49.0196C20.902 49.0064 20.8972 48.9992 20.8889 48.9956C20.8793 48.9921 20.8661 48.9897 20.847 48.9873C20.835 48.9873 20.8243 48.9849 20.8147 48.9849C20.8051 48.9849 20.798 48.9849 20.792 48.9825C20.7645 48.9825 20.7357 48.9789 20.7082 48.9765C20.6807 48.9741 20.652 48.9682 20.6221 48.9574C20.5922 48.9478 20.5611 48.9323 20.5264 48.9096C20.4917 48.8881 20.4559 48.8582 20.4152 48.8199C20.3386 48.747 20.2992 48.6634 20.3004 48.5701C20.3004 48.5032 20.3195 48.4422 20.3578 48.3861C20.3949 48.3299 20.4463 48.2821 20.5121 48.2414C20.5779 48.2008 20.6556 48.1697 20.7453 48.147C20.835 48.1243 20.9331 48.1135 21.0384 48.1135L21.036 48.1183ZM21.0348 48.3717C20.963 48.3717 20.9044 48.3884 20.8577 48.4231C20.8111 48.4578 20.7872 48.5056 20.7872 48.5677C20.7872 48.6299 20.8099 48.6777 20.8566 48.7124C20.9032 48.747 20.9618 48.7638 21.0336 48.7638C21.1054 48.7638 21.1592 48.7458 21.2059 48.7112C21.2525 48.6753 21.2764 48.6287 21.2764 48.5689C21.2764 48.5092 21.2537 48.4614 21.207 48.4267C21.1604 48.3908 21.103 48.3741 21.0348 48.3741V48.3717Z" fill="#24E1E4"/>
<path d="M21.9606 49.2922C21.9606 49.2455 21.9857 49.2073 22.036 49.1786C22.0862 49.1499 22.146 49.1356 22.2178 49.1356C22.2896 49.1356 22.3446 49.1499 22.3948 49.1786C22.4439 49.2073 22.469 49.2455 22.469 49.2922C22.469 49.3376 22.4439 49.3746 22.3937 49.4021C22.3434 49.4296 22.2836 49.4428 22.2118 49.4428C22.1401 49.4428 22.0803 49.4284 22.0324 49.4021C21.9846 49.3746 21.9606 49.3388 21.9606 49.2922ZM21.9642 48.6874C21.9642 48.6407 21.9894 48.6025 22.0396 48.5738C22.0898 48.5451 22.1496 48.5308 22.2214 48.5308C22.2931 48.5308 22.3482 48.5451 22.3985 48.5738C22.4475 48.6025 22.4726 48.6407 22.4726 48.6874C22.4726 48.7328 22.4475 48.7698 22.3972 48.7973C22.347 48.8248 22.2872 48.838 22.2154 48.838C22.1436 48.838 22.0838 48.8248 22.036 48.7973C21.9881 48.7698 21.9642 48.7328 21.9642 48.6874Z" fill="#24E1E4"/>
<path d="M23.5121 48.1187C23.7728 48.1187 23.9762 48.1772 24.121 48.2956C24.2657 48.4139 24.3375 48.5788 24.3363 48.7928C24.3351 49.0068 24.2609 49.1717 24.1149 49.29C23.9678 49.4084 23.7645 49.4669 23.5037 49.4669C23.243 49.4669 23.0396 49.4084 22.8949 49.29C22.7501 49.1717 22.6783 49.0068 22.6795 48.7928C22.6807 48.5788 22.7549 48.4139 22.9008 48.2956C23.0468 48.1772 23.2513 48.1187 23.5121 48.1187ZM23.5109 48.3721C23.4523 48.3721 23.402 48.3828 23.3614 48.4043C23.3207 48.4258 23.2884 48.4557 23.2633 48.494C23.2382 48.5322 23.2202 48.5764 23.2095 48.6278C23.1975 48.6792 23.1927 48.7342 23.1915 48.7928C23.1915 48.8514 23.1963 48.9063 23.2071 48.9577C23.2178 49.0091 23.2346 49.0534 23.2597 49.0916C23.2836 49.1299 23.3171 49.1598 23.3566 49.1813C23.3973 49.2028 23.4463 49.2135 23.5049 49.2135C23.5636 49.2135 23.6138 49.2028 23.6545 49.1813C23.6951 49.1609 23.7286 49.1311 23.7549 49.094C23.7812 49.057 23.8003 49.0127 23.8111 48.9613C23.8219 48.9099 23.8279 48.8538 23.8279 48.7928C23.8279 48.7318 23.8231 48.6757 23.8123 48.6243C23.8016 48.5729 23.7836 48.5286 23.7573 48.4916C23.731 48.4545 23.6975 48.4246 23.6568 48.4043C23.6173 48.3828 23.5671 48.3732 23.5085 48.3732L23.5109 48.3721Z" fill="#24E1E4"/>
<path d="M25.3877 48.1187C25.6484 48.1187 25.8518 48.1772 25.9965 48.2956C26.1412 48.4139 26.213 48.5788 26.2118 48.7928C26.2107 49.0068 26.1365 49.1717 25.9905 49.29C25.8434 49.4084 25.6401 49.4669 25.3793 49.4669C25.1185 49.4669 24.9152 49.4084 24.7704 49.29C24.6257 49.1717 24.5539 49.0068 24.5551 48.7928C24.5563 48.5788 24.6305 48.4139 24.7764 48.2956C24.9224 48.1772 25.1269 48.1187 25.3877 48.1187ZM25.3865 48.3721C25.3279 48.3721 25.2776 48.3828 25.237 48.4043C25.1963 48.4258 25.164 48.4557 25.1389 48.494C25.1137 48.5322 25.0958 48.5764 25.0851 48.6278C25.0731 48.6792 25.0683 48.7342 25.0671 48.7928C25.0671 48.8514 25.0719 48.9063 25.0827 48.9577C25.0934 49.0091 25.1102 49.0534 25.1353 49.0916C25.1592 49.1299 25.1927 49.1598 25.2322 49.1813C25.2729 49.2028 25.3219 49.2135 25.3805 49.2135C25.4391 49.2135 25.4893 49.2028 25.53 49.1813C25.5707 49.1609 25.6041 49.1311 25.6305 49.094C25.6568 49.057 25.6759 49.0127 25.6867 48.9613C25.6975 48.9099 25.7035 48.8538 25.7035 48.7928C25.7035 48.7318 25.6987 48.6757 25.6879 48.6243C25.6772 48.5729 25.6592 48.5286 25.6329 48.4916C25.6065 48.4545 25.5731 48.4246 25.5324 48.4043C25.4929 48.3828 25.4427 48.3732 25.3841 48.3732L25.3865 48.3721Z" fill="#24E1E4"/>
<path d="M8.86843 48.4007C8.79666 48.4007 8.74045 48.4007 8.69858 48.3983C8.65672 48.3971 8.62564 48.3912 8.60531 48.3828C8.58497 48.3744 8.573 48.3613 8.56822 48.3433C8.56343 48.3266 8.56104 48.3015 8.56104 48.2704C8.56104 48.2394 8.56703 48.2155 8.58019 48.1975C8.59215 48.1808 8.62563 48.1676 8.68065 48.1581C8.73568 48.1485 8.8146 48.1437 8.92106 48.1425C9.02752 48.1413 9.17227 48.1401 9.35888 48.1401C9.54548 48.1401 9.69144 48.1401 9.79909 48.1425C9.90555 48.1449 9.9869 48.1497 10.0407 48.1581C10.0946 48.1664 10.128 48.1796 10.1412 48.1975C10.1531 48.2143 10.1591 48.2394 10.1591 48.2704C10.1591 48.3015 10.1567 48.3254 10.1519 48.3433C10.1471 48.3601 10.134 48.3732 10.1124 48.3828C10.0909 48.3912 10.0598 48.3971 10.0192 48.3983C9.9785 48.4007 9.92229 48.4007 9.85172 48.4007C9.7931 48.4007 9.74647 48.4055 9.71417 48.4139C9.68187 48.4222 9.65791 48.4437 9.64116 48.4784C9.62561 48.5131 9.61487 48.5645 9.61009 48.6338C9.6053 48.7031 9.60168 48.7987 9.60168 48.9207C9.60168 49.0426 9.59931 49.1382 9.59572 49.2075C9.59213 49.2769 9.58139 49.3294 9.56465 49.3641C9.5467 49.3988 9.52154 49.4203 9.48924 49.4287C9.45695 49.437 9.41031 49.4418 9.35169 49.4418C9.29547 49.4418 9.25123 49.437 9.21893 49.4287C9.18664 49.4203 9.1615 49.3988 9.14476 49.3641C9.12801 49.3294 9.11724 49.2769 9.11485 49.2075C9.11246 49.1382 9.11129 49.0426 9.11129 48.9207C9.11129 48.7987 9.11126 48.7031 9.10767 48.6338C9.10408 48.5645 9.09574 48.5131 9.07899 48.4784C9.06224 48.4437 9.03711 48.4234 9.00481 48.4139C8.97252 48.4055 8.92588 48.4007 8.86726 48.4007H8.86843Z" fill="#24E1E4"/>
<path d="M10.5694 48.1404C10.6257 48.1404 10.6699 48.1464 10.7046 48.1559C10.7381 48.1667 10.7632 48.193 10.7788 48.2372C10.7943 48.2802 10.8039 48.346 10.8075 48.432C10.8122 48.5193 10.8134 48.6388 10.8122 48.7906C10.8122 48.9436 10.8086 49.0632 10.8027 49.1504C10.7979 49.2377 10.7871 49.3022 10.7716 49.3452C10.756 49.3883 10.7309 49.4158 10.6962 49.4265C10.6616 49.4373 10.6173 49.4421 10.561 49.4421C10.5048 49.4421 10.4606 49.4373 10.4283 49.4265C10.396 49.4158 10.3708 49.3895 10.3541 49.3452C10.3374 49.3022 10.3278 49.2365 10.3254 49.1504C10.323 49.0632 10.3218 48.9436 10.323 48.7906C10.323 48.6376 10.3266 48.5181 10.3302 48.432C10.3338 48.3448 10.3445 48.2802 10.3613 48.2372C10.378 48.193 10.4032 48.1667 10.4367 48.1559C10.469 48.1452 10.5132 48.1404 10.5694 48.1404Z" fill="#24E1E4"/>
<path d="M12.4056 48.487C12.4773 48.4069 12.5347 48.3424 12.579 48.2958C12.6232 48.2492 12.6615 48.2145 12.6962 48.1918C12.7309 48.1691 12.7656 48.1547 12.8015 48.1488C12.8373 48.1428 12.8816 48.1404 12.9343 48.1404C12.9905 48.1404 13.0335 48.1464 13.0646 48.1559C13.0957 48.1667 13.1185 48.193 13.134 48.2372C13.1496 48.2802 13.1579 48.346 13.1603 48.432C13.1627 48.5193 13.1639 48.6388 13.1627 48.7906C13.1627 48.9436 13.1592 49.0632 13.1556 49.1504C13.152 49.2377 13.1412 49.3022 13.1245 49.3452C13.1065 49.3883 13.0814 49.4158 13.0491 49.4265C13.0168 49.4373 12.9726 49.4421 12.9163 49.4421C12.8601 49.4421 12.8158 49.4385 12.7811 49.4313C12.7464 49.4241 12.7226 49.4074 12.707 49.3811C12.6915 49.3548 12.6819 49.3142 12.6771 49.2616C12.6735 49.2078 12.6711 49.1349 12.6711 49.0416C12.6711 48.94 12.6711 48.8647 12.6723 48.8169C12.6723 48.7691 12.6699 48.744 12.6639 48.744C12.6579 48.744 12.6412 48.7595 12.6149 48.7918C12.5886 48.8241 12.5515 48.8695 12.5048 48.9293C12.4522 48.9938 12.4092 49.0452 12.3757 49.0835C12.3422 49.1217 12.3134 49.1516 12.2871 49.1707C12.2608 49.191 12.2357 49.203 12.213 49.209C12.1902 49.215 12.1615 49.2173 12.1269 49.2173C12.0922 49.2173 12.0646 49.215 12.0407 49.2102C12.018 49.2054 11.9928 49.1934 11.9689 49.1743C11.9438 49.1552 11.9151 49.1265 11.8828 49.0883C11.8505 49.05 11.8087 48.9974 11.756 48.9305C11.6603 48.8086 11.6077 48.7464 11.5993 48.744C11.5933 48.744 11.5897 48.7703 11.5897 48.8181C11.5897 48.8659 11.5898 48.9412 11.5886 49.0416C11.5886 49.1349 11.585 49.2078 11.5802 49.2616C11.5754 49.3153 11.5646 49.3548 11.5491 49.3811C11.5335 49.4074 11.5084 49.4241 11.4749 49.4313C11.4402 49.4385 11.396 49.4421 11.3398 49.4421C11.2835 49.4421 11.2393 49.4373 11.207 49.4265C11.1747 49.4158 11.1496 49.3895 11.1328 49.3452C11.1161 49.3022 11.1065 49.2365 11.1041 49.1504C11.1017 49.0632 11.1005 48.9436 11.1017 48.7906C11.1017 48.6376 11.1053 48.5181 11.1089 48.432C11.1125 48.3448 11.1221 48.2802 11.1376 48.2372C11.1532 48.193 11.1771 48.1667 11.2082 48.1559C11.2393 48.1452 11.2823 48.1404 11.3385 48.1404C11.3912 48.1404 11.4355 48.1428 11.4714 48.1488C11.5072 48.1547 11.5419 48.1691 11.5778 48.1918C11.6137 48.2145 11.6532 48.2492 11.6962 48.2958C11.7393 48.3424 11.7943 48.4057 11.8625 48.487C11.9331 48.5683 11.9893 48.6305 12.0311 48.6699C12.073 48.7105 12.1065 48.7309 12.1304 48.7309C12.1579 48.7309 12.1938 48.7105 12.2357 48.6699C12.2775 48.6293 12.335 48.5683 12.4067 48.487H12.4056Z" fill="#24E1E4"/>
<path d="M14.8349 49.313C14.8349 49.3441 14.829 49.368 14.8182 49.3859C14.8075 49.4026 14.7787 49.4158 14.7321 49.4253C14.6854 49.4337 14.6161 49.4385 14.5252 49.4409C14.433 49.4433 14.3051 49.4433 14.1412 49.4433C13.9773 49.4433 13.8529 49.4385 13.7596 49.4277C13.6663 49.417 13.5969 49.3907 13.5503 49.3465C13.5036 49.3034 13.4761 49.2377 13.4654 49.1516C13.4546 49.0644 13.451 48.9448 13.451 48.7918C13.451 48.6388 13.4582 48.5193 13.4689 48.4333C13.4809 48.346 13.5084 48.2815 13.5538 48.2384C13.5993 48.1942 13.6675 48.1679 13.7596 48.1571C13.8517 48.1464 13.9761 48.1416 14.134 48.1416C14.2919 48.1416 14.4175 48.1416 14.5084 48.144C14.5993 48.1464 14.6687 48.1512 14.7153 48.1595C14.762 48.1679 14.7907 48.181 14.8015 48.199C14.8122 48.2157 14.8182 48.2408 14.817 48.2719C14.817 48.303 14.8122 48.3269 14.805 48.3448C14.7967 48.3615 14.7776 48.3747 14.7465 48.3842C14.7154 48.3926 14.6675 48.3986 14.6041 48.3998C14.5407 48.4022 14.4546 48.4022 14.3457 48.4022C14.2488 48.4022 14.1747 48.4022 14.1196 48.4046C14.0658 48.407 14.0252 48.4117 13.9988 48.4189C13.9725 48.4273 13.9558 48.4392 13.9498 48.456C13.9438 48.4727 13.9402 48.4954 13.9402 48.5241C13.9402 48.5528 13.9426 48.5755 13.9474 48.5922C13.9522 48.609 13.9653 48.6209 13.9893 48.6293C14.012 48.6377 14.0467 48.6424 14.091 48.6436C14.1364 48.646 14.1974 48.646 14.2752 48.646C14.3685 48.646 14.4415 48.646 14.4965 48.6484C14.5503 48.6508 14.5921 48.6556 14.6197 48.6639C14.6472 48.6723 14.6651 48.6855 14.6711 48.701C14.6771 48.7165 14.6807 48.7404 14.6795 48.7703C14.6795 48.8002 14.6759 48.8229 14.6699 48.8397C14.6639 48.8552 14.646 48.8683 14.6185 48.8767C14.591 48.8851 14.5491 48.8911 14.4953 48.8922C14.4402 48.8946 14.3672 48.8946 14.2739 48.8946C14.1962 48.8946 14.1352 48.8946 14.0897 48.8982C14.0455 48.9006 14.0108 48.9066 13.9869 48.9161C13.9641 48.9257 13.9498 48.9401 13.945 48.9592C13.9402 48.9783 13.9378 49.0046 13.9378 49.0381C13.9378 49.0715 13.9402 49.0978 13.9474 49.117C13.9534 49.1361 13.9701 49.1504 13.9988 49.16C14.0264 49.1696 14.0682 49.1755 14.1244 49.1779C14.1806 49.1803 14.2572 49.1815 14.3577 49.1815C14.4689 49.1815 14.5575 49.1815 14.6233 49.1839C14.6879 49.1863 14.7369 49.1911 14.7668 49.1994C14.7979 49.2078 14.8171 49.221 14.8254 49.2389C14.8326 49.2556 14.8362 49.2807 14.8362 49.3118L14.8349 49.313Z" fill="#24E1E4"/>
<path d="M15.0348 49.2926C15.0348 49.246 15.0599 49.2078 15.1101 49.1791C15.1604 49.1504 15.2202 49.1361 15.292 49.1361C15.3637 49.1361 15.4187 49.1504 15.469 49.1791C15.518 49.2078 15.5432 49.246 15.5432 49.2926C15.5432 49.3381 15.518 49.3751 15.4678 49.4026C15.4175 49.4301 15.3577 49.4433 15.2859 49.4433C15.2142 49.4433 15.1544 49.4289 15.1065 49.4026C15.0587 49.3763 15.0348 49.3393 15.0348 49.2926ZM15.0384 48.6878C15.0384 48.6412 15.0635 48.603 15.1137 48.5743C15.1639 48.5456 15.2237 48.5312 15.2955 48.5312C15.3673 48.5312 15.4223 48.5456 15.4726 48.5743C15.5216 48.603 15.5467 48.6412 15.5467 48.6878C15.5467 48.7333 15.5216 48.7703 15.4714 48.7978C15.4211 48.8253 15.3613 48.8384 15.2896 48.8384C15.2178 48.8384 15.158 48.8253 15.1101 48.7978C15.0623 48.7703 15.0384 48.7333 15.0384 48.6878Z" fill="#24E1E4"/>
<path d="M35.1066 8.61091C35.0935 8.61091 35.0803 8.60852 35.0684 8.60254L31.9989 7.20286C31.9595 7.18493 31.9379 7.1419 31.9463 7.09887L32.3554 5.15294C32.359 5.1374 32.3662 5.12187 32.3769 5.10991L34.8255 2.39421C34.8339 2.38465 34.8435 2.37748 34.8542 2.3727L37.8183 0.956286L41.4332 0.00603077C41.4404 0.0036402 41.4487 0.00244141 41.4571 0.00244141H45.206C45.2143 0.00244141 45.2227 0.00244491 45.2299 0.00603077C45.3842 0.0466706 49.0098 1.01366 49.4213 1.19056C49.828 1.36627 53.017 2.9548 53.1522 3.02174C53.1689 3.03011 53.1833 3.04326 53.1916 3.05999L54.3472 5.12665C54.3603 5.15055 54.3627 5.17924 54.3531 5.20553C54.3436 5.23064 54.3221 5.25096 54.2969 5.26052L51.8914 6.08526C51.8842 6.08766 51.8771 6.08886 51.8699 6.09005L48.4894 6.39963L44.017 8.13638C43.9691 8.15551 43.9153 8.1316 43.8961 8.08379C43.877 8.03598 43.9009 7.98219 43.9488 7.96307L48.4333 6.22153C48.4416 6.21794 48.45 6.21675 48.4584 6.21555L51.84 5.90597L54.1294 5.12067L53.0421 3.17594C52.7311 3.02175 49.7287 1.52764 49.3459 1.36149C48.9596 1.19415 45.426 0.251068 45.1928 0.188913H41.4691L37.8818 1.1296L34.9511 2.53168L32.5313 5.2151L32.1425 7.06421L35.1221 8.42325L41.7358 7.95709C41.7837 7.95231 41.8315 7.99175 41.8351 8.04315C41.8387 8.09455 41.8004 8.13877 41.749 8.14236L35.1114 8.61091C35.1114 8.61091 35.1066 8.61091 35.1054 8.61091H35.1066Z" fill="#24E1E4"/>
<path d="M43.9823 8.14271C43.9751 8.14271 43.9679 8.14271 43.9608 8.14032C43.9105 8.12836 43.8794 8.07816 43.8914 8.02796L44.2491 6.51114L44.0588 5.03376L43.505 3.39024L42.4488 2.34317L41.1497 1.41682L39.2179 0.761803C39.1689 0.745069 39.1437 0.692478 39.1593 0.643471C39.176 0.594464 39.2287 0.569364 39.2777 0.584903L41.2227 1.2447C41.2311 1.24828 41.2395 1.25187 41.2466 1.25665L42.5684 2.20093L43.6521 3.2731C43.6629 3.28267 43.6701 3.29581 43.6749 3.30896L44.2395 4.99073L44.4357 6.50277C44.4369 6.51353 44.4357 6.52548 44.4333 6.53624L44.072 8.0686C44.0625 8.11163 44.0242 8.14032 43.9811 8.14032L43.9823 8.14271Z" fill="#24E1E4"/>
<path d="M33.2884 7.78178C33.2418 7.78178 33.2011 7.74592 33.1963 7.69811C33.1903 7.64671 33.2274 7.60129 33.2789 7.59532L44.3244 6.42513L48.2933 5.08282L51.5362 4.22102L53.0529 3.03171C53.0935 2.99943 53.151 3.00661 53.1833 3.04725C53.2144 3.08789 53.2084 3.14646 53.1678 3.17754L51.6366 4.3788C51.627 4.38717 51.6151 4.39194 51.6031 4.39553L48.3471 5.26092L44.3734 6.60443C44.3675 6.60682 44.3602 6.60801 44.3531 6.6092L33.298 7.78059C33.298 7.78059 33.2908 7.78059 33.2884 7.78059V7.78178Z" fill="#24E1E4"/>
<path d="M32.4451 5.26432C32.3949 5.26432 32.353 5.22368 32.3519 5.17347C32.3519 5.12208 32.3913 5.08024 32.4427 5.07905L39.7215 4.92964H44.1354L47.7897 3.77499L50.8531 1.93185C50.8974 1.90556 50.9548 1.9199 50.9811 1.96413C51.0074 2.00835 50.9931 2.06573 50.9488 2.09202L47.8758 3.94113C47.8699 3.94472 47.8627 3.9483 47.8555 3.9507L44.1773 5.11371C44.1677 5.1161 44.1593 5.11849 44.1498 5.11849H39.7239L32.4464 5.26791H32.444L32.4451 5.26432Z" fill="#24E1E4"/>
<path d="M34.8949 2.5487C34.8446 2.5487 34.8028 2.50806 34.8016 2.45786C34.8016 2.40646 34.8411 2.36343 34.8925 2.36224L42.5122 2.18533L45.7107 1.57214L46.9177 0.504752C46.956 0.471284 47.0146 0.473676 47.0492 0.51312C47.0839 0.55137 47.0804 0.609943 47.0409 0.644606L45.8148 1.72992C45.8028 1.74068 45.7873 1.74785 45.7705 1.75144L42.5313 2.3706L34.8961 2.5487H34.8937H34.8949Z" fill="#24E1E4"/>
<path d="M33.6928 3.88166C33.6437 3.88166 33.6018 3.84221 33.5994 3.79321C33.597 3.74181 33.6365 3.69878 33.688 3.69639L43.5816 3.24816L46.9285 2.65649L48.395 0.93049C48.4284 0.891045 48.4871 0.886268 48.5265 0.919736C48.566 0.953204 48.5708 1.01177 48.5373 1.05121L47.0493 2.80231C47.0349 2.81905 47.0158 2.82981 46.9942 2.83339L43.6019 3.43223L33.6952 3.88166C33.6952 3.88166 33.6927 3.88166 33.6915 3.88166H33.6928Z" fill="#24E1E4"/>
<path d="M36.8626 1.60767C36.8136 1.60767 36.7717 1.56823 36.7693 1.51802C36.7669 1.46663 36.8076 1.4236 36.859 1.42121L41.1713 1.24072L43.9356 0.00837379C43.9823 -0.0131414 44.0373 0.00836825 44.0588 0.0549845C44.0791 0.101601 44.0588 0.156587 44.0122 0.178103L41.2311 1.41762C41.2203 1.4224 41.2083 1.42479 41.1964 1.42598L36.8662 1.60647C36.8662 1.60647 36.8638 1.60647 36.8626 1.60647V1.60767Z" fill="#24E1E4"/>
<path d="M46.4931 81.4261C46.4931 81.4261 46.4895 81.4261 46.4883 81.4261L42.7897 81.236C42.7718 81.236 42.7538 81.2289 42.7382 81.2181L40.3711 79.4515C40.3507 79.4359 40.3376 79.4132 40.334 79.3881L39.3614 70.9111L39.4548 61.154L39.9081 53.6535L39.9954 53.0643C39.9954 53.0643 39.9978 53.0535 39.999 53.0487L40.7383 48.1002L41.9847 41.8106L44.1103 34.7393L45.432 27.6728L44.8962 21.731L42.3794 17.0215L40.1916 11.7647C40.1868 11.7527 40.1845 11.7408 40.1845 11.7288L40.2191 7.2417C40.2191 7.21421 40.2311 7.18791 40.2526 7.17118C40.2741 7.15325 40.3017 7.14608 40.3292 7.15086L43.9548 7.80827C43.9775 7.81185 43.9979 7.825 44.0122 7.84293L47.2802 12.0898C47.2849 12.097 47.2897 12.1041 47.2921 12.1113L50.0888 19.0464C50.0912 19.0535 50.0936 19.0607 50.0947 19.0679L51.2287 26.9173C51.2287 26.9245 51.2287 26.9305 51.2287 26.9377L50.6558 34.3759L48.8651 41.464L47.7622 47.4644L47.5469 53.0954L49.7814 69.3023C49.7814 69.3082 49.7814 69.3142 49.7814 69.3202L49.2658 77.857C49.2658 77.8749 49.2574 77.8928 49.2467 77.9083L46.5625 81.389C46.5445 81.4117 46.517 81.4249 46.4883 81.4249L46.4931 81.4261ZM42.828 81.052L46.45 81.2384L49.0864 77.8187L49.5996 69.319L47.3651 53.1049L47.5816 47.444L48.6881 41.4246L50.4775 34.3461L51.047 26.9341L49.9153 19.1061L47.1271 12.1926L43.8878 7.98397L40.4057 7.35286L40.3722 11.7109L42.5493 16.9427L45.072 21.6605C45.078 21.6712 45.0816 21.6832 45.0828 21.6963L45.621 27.6704C45.621 27.6787 45.6211 27.6871 45.6199 27.6955L44.2933 34.7847L42.1665 41.8573L40.9225 48.1349L40.1808 53.0942C40.1808 53.0942 40.1785 53.1049 40.1773 53.1097L40.0935 53.6763L39.6414 61.1636L39.548 70.904L40.5158 79.3295L42.828 81.0555V81.052Z" fill="#24E1E4"/>
<path d="M42.7945 81.2359C42.7478 81.2359 42.7072 81.2001 42.7024 81.1523L41.6413 70.7808L41.5959 60.1726L42.0194 53.1479L43.8376 42.6927L45.8005 34.7954L46.865 27.3488L46.4393 20.8548L43.5888 14.8771L40.2299 7.27749C40.2107 7.23446 40.2263 7.18544 40.2657 7.16034C40.3052 7.13644 40.3567 7.14361 40.3866 7.18067L45.3639 13.1977C45.3962 13.2372 45.3914 13.2958 45.3519 13.328C45.3124 13.3603 45.2538 13.3555 45.2203 13.3161L40.6713 7.81656L43.7574 14.7994L46.6139 20.7914C46.6187 20.8022 46.6223 20.8129 46.6223 20.8249L47.0505 27.3464C47.0505 27.3523 47.0505 27.3595 47.0505 27.3655L45.9835 34.8313L44.0194 42.7309L42.2036 53.1694L41.7813 60.1774L41.8268 70.77L42.8878 81.132C42.8925 81.1834 42.8555 81.2288 42.8052 81.2336C42.8016 81.2336 42.7992 81.2336 42.7956 81.2336L42.7945 81.2359Z" fill="#24E1E4"/>
<path d="M46.4931 81.4249C46.4452 81.4249 46.4045 81.3878 46.401 81.34L45.4261 69.7218L44.5577 51.9694L45.9309 42.823L48.1641 34.4202L48.8507 26.7906L48.328 19.5328L45.2096 13.3006C45.1868 13.2552 45.2048 13.199 45.2514 13.1763C45.2981 13.1536 45.3531 13.1715 45.3758 13.2181L48.5027 19.4671C48.5087 19.4779 48.511 19.4898 48.5122 19.5018L49.0362 26.793L48.3471 34.4524L46.1127 42.8613L44.7418 51.9789L45.6103 69.7098L46.5852 81.3257C46.59 81.3771 46.5517 81.4225 46.5002 81.4261C46.4979 81.4261 46.4955 81.4261 46.4919 81.4261L46.4931 81.4249Z" fill="#24E1E4"/>
<path d="M39.4548 70.9913C39.4057 70.9913 39.365 70.953 39.3614 70.904C39.359 70.8526 39.3973 70.8084 39.4488 70.806L41.7168 70.6805L45.456 69.6346L48.8544 63.7753C48.8807 63.7311 48.9369 63.7155 48.9812 63.7418C49.0254 63.7681 49.0409 63.8243 49.0146 63.8685L45.5983 69.7613C45.5864 69.7828 45.566 69.7972 45.5433 69.8043L41.7574 70.8634C41.7514 70.8658 41.7443 70.8658 41.7371 70.867L39.4596 70.9937C39.4596 70.9937 39.456 70.9937 39.4548 70.9937V70.9913Z" fill="#24E1E4"/>
<path d="M42.316 76.5659C42.3005 76.5659 42.2861 76.5623 42.2718 76.5552L39.9045 75.2881C39.8591 75.2642 39.8423 75.2081 39.8663 75.1626C39.8902 75.1172 39.9476 75.1005 39.9918 75.1244L42.328 76.3735L45.9488 75.4901L49.6116 69.2687C49.6379 69.2244 49.694 69.2101 49.7383 69.2352C49.7826 69.2615 49.7969 69.3177 49.7706 69.3619L46.0876 75.618C46.0744 75.6396 46.0541 75.6551 46.029 75.6611L42.3352 76.5623C42.328 76.5647 42.3208 76.5647 42.3136 76.5647L42.316 76.5659Z" fill="#24E1E4"/>
<path d="M41.7084 64.9946C41.7084 64.9946 41.7048 64.9946 41.7024 64.9946L39.5086 64.8619C39.4571 64.8583 39.4177 64.8153 39.4212 64.7639C39.4236 64.7125 39.4632 64.673 39.5194 64.6766L41.6976 64.8081L45.1785 63.7814L48.3292 59.8931C48.3615 59.8536 48.4201 59.8477 48.4596 59.8799C48.4991 59.9122 48.5062 59.9708 48.474 60.0102L45.3041 63.92C45.2921 63.9343 45.2766 63.9451 45.2586 63.9511L41.7347 64.9898C41.7263 64.9922 41.7167 64.9934 41.7084 64.9934V64.9946Z" fill="#24E1E4"/>
<path d="M45.1904 48.4682C45.1904 48.4682 45.1869 48.4682 45.1845 48.4682L40.8256 48.2053C40.7742 48.2017 40.7359 48.1586 40.7383 48.1072C40.7419 48.0558 40.7813 48.0176 40.8363 48.02L45.1761 48.2818L47.6414 47.3602C47.6893 47.3423 47.7431 47.3662 47.761 47.4152C47.779 47.463 47.7551 47.5168 47.706 47.5347L45.2216 48.4634C45.2108 48.467 45.2 48.4694 45.1893 48.4694L45.1904 48.4682Z" fill="#24E1E4"/>
<path d="M41.7742 58.8402C41.767 58.8402 41.7598 58.8402 41.7538 58.8378L39.7012 58.3716C39.651 58.3597 39.6199 58.3107 39.6306 58.2605C39.6426 58.2103 39.6916 58.1792 39.7419 58.1899L41.7694 58.6501L44.8855 57.6843L47.6785 55.1049C47.7156 55.0702 47.7754 55.0726 47.8101 55.1097C47.8448 55.1479 47.8424 55.2065 47.8053 55.2412L44.9967 57.8349C44.986 57.8445 44.974 57.8517 44.9608 57.8553L41.8005 58.8342C41.7909 58.8366 41.7826 58.8378 41.773 58.8378L41.7742 58.8402Z" fill="#24E1E4"/>
<path d="M42.1126 53.2469C42.1126 53.2469 42.1103 53.2469 42.1091 53.2469L40.0852 53.1692L40.0935 52.9839L42.0923 53.0604L44.6103 51.8807C44.6211 51.8759 44.633 51.8723 44.645 51.8723L47.5015 51.7157C47.5601 51.7109 47.5971 51.7528 47.5995 51.803C47.6019 51.8544 47.5625 51.8986 47.5122 51.901L44.6737 52.0564L42.1521 53.2385C42.1402 53.2445 42.1258 53.2469 42.1126 53.2469Z" fill="#24E1E4"/>
<path d="M46.023 42.9293C46.023 42.9293 46.0194 42.9293 46.017 42.9293L43.9225 42.8027C43.9105 42.8027 43.8986 42.7991 43.8878 42.7943L42.0349 41.9122C41.9882 41.8906 41.9691 41.8345 41.9906 41.7879C42.0133 41.7412 42.0684 41.7221 42.115 41.7436L43.9512 42.6186L46.0014 42.7417L48.7347 41.3587C48.7802 41.3348 48.8364 41.354 48.8603 41.3994C48.883 41.4448 48.8651 41.501 48.8196 41.5249L46.0636 42.9198C46.0505 42.927 46.0361 42.9293 46.0218 42.9293H46.023Z" fill="#24E1E4"/>
<path d="M45.9057 34.9099L44.1976 34.8573C44.1462 34.8561 44.1055 34.8131 44.1079 34.7617C44.1103 34.7103 44.1545 34.6661 44.2036 34.672L45.8938 34.7258L48.2395 34.3505L50.5637 34.2728C50.6211 34.268 50.6582 34.3111 50.6594 34.3625C50.6606 34.4139 50.6211 34.4569 50.5697 34.4581L48.2574 34.5346L45.9057 34.9099Z" fill="#24E1E4"/>
<path d="M45.5289 27.7684C45.4859 27.7684 45.4476 27.7385 45.438 27.6955C45.4261 27.6453 45.4584 27.5951 45.5086 27.5843L46.9381 27.2616L48.9189 26.7082C48.9285 26.7058 48.9392 26.7046 48.95 26.7046L51.1462 26.8373C51.1976 26.8409 51.2359 26.8839 51.2335 26.9353C51.2311 26.9867 51.1905 27.0237 51.1354 27.0225L48.9548 26.8911L46.9847 27.4421L45.5505 27.766C45.5433 27.7672 45.5361 27.7684 45.5301 27.7684H45.5289Z" fill="#24E1E4"/>
<path d="M44.9895 21.7943C44.9572 21.7943 44.9261 21.7776 44.9081 21.7477C44.883 21.7035 44.8986 21.6461 44.9428 21.621L46.4835 20.7508L48.3651 19.4313C48.3734 19.4253 48.3842 19.4205 48.3938 19.4181L49.9799 18.9914C50.0289 18.9782 50.0804 19.0081 50.0936 19.0571C50.1067 19.1061 50.078 19.1575 50.0278 19.1707L48.4572 19.5938L46.5816 20.9098L45.0338 21.7848C45.0194 21.7931 45.0038 21.7967 44.9883 21.7967L44.9895 21.7943Z" fill="#24E1E4"/>
<path d="M42.4644 17.0681C42.4488 17.0681 42.4332 17.0645 42.4189 17.0561C42.3746 17.031 42.3579 16.9736 42.3842 16.9294L43.5923 14.791C43.5971 14.7839 43.6019 14.7767 43.6079 14.7707L45.2275 13.1906C45.2275 13.1906 45.2395 13.181 45.2455 13.1762L47.1617 12.0646C47.206 12.0383 47.2634 12.0538 47.2885 12.0981C47.3148 12.1423 47.2993 12.1997 47.255 12.2248L45.3483 13.3316L43.7466 14.8938L42.5445 17.0203C42.5278 17.0501 42.4954 17.0669 42.4631 17.0669L42.4644 17.0681Z" fill="#24E1E4"/>
<path d="M40.2801 11.8198C40.2514 11.8198 40.2227 11.8067 40.2048 11.7816C40.1749 11.7397 40.1832 11.6823 40.2251 11.6513L41.7526 10.5408L42.4488 9.83324L43.8651 7.84188C43.895 7.80005 43.9535 7.79049 43.9942 7.82037C44.0361 7.85025 44.0457 7.90763 44.0158 7.94946L42.5899 9.95157L41.8734 10.6795L40.334 11.8007C40.3172 11.8126 40.2981 11.8186 40.2789 11.8186L40.2801 11.8198Z" fill="#24E1E4"/>
<path d="M43.9225 6.66748L37.0504 10.5223L31.9631 13.703L27.5061 17.9032L23.9056 21.715L21.1054 25.4275L18.9905 29.1963L15.323 33.5184L16.7058 34.4866L25.3446 33.5184L31.0576 29.9648L37.6497 24.4354L39.8985 17.9032L43.1509 14.0496L44.3364 8.4377L43.9225 6.66748Z" fill="black"/>
<path d="M16.7058 34.5797C16.6866 34.5797 16.6687 34.5737 16.652 34.5629L15.2692 33.5959C15.2477 33.5804 15.2333 33.5577 15.2297 33.5314C15.2261 33.5051 15.2345 33.4788 15.2513 33.4597L18.9187 29.1375L21.0228 25.3831L23.8302 21.661L27.4379 17.8408L31.8997 13.637L37.0002 10.4456L43.877 6.5884C43.9021 6.57405 43.9333 6.57286 43.9596 6.58481C43.9859 6.59676 44.0062 6.62067 44.0134 6.64816L44.4261 8.41838C44.4297 8.43153 44.4297 8.44587 44.4261 8.45902L43.2406 14.0709C43.237 14.0864 43.2311 14.0996 43.2203 14.1115L39.9787 17.952L37.7358 24.4687C37.7298 24.4842 37.7203 24.4986 37.7071 24.5094L31.1138 30.0388L25.3901 33.5995C25.3781 33.6067 25.3649 33.6115 25.3506 33.6127L16.713 34.5797C16.713 34.5797 16.7058 34.5797 16.7022 34.5797H16.7058ZM15.4606 33.5015L16.7309 34.3908L25.3135 33.4298L31.0085 29.887L37.5708 24.3815L39.81 17.8731C39.8136 17.8624 39.8196 17.8516 39.8267 17.8432L43.0636 14.0076L44.2395 8.4387L43.8591 6.80833L37.0947 10.6022L32.0121 13.7804L27.5695 17.9687L23.9726 21.7781L21.1795 25.4823L19.0719 29.2415L15.4606 33.5003V33.5015Z" fill="#24E1E4"/>
<path d="M42.2418 13.1524L38.9045 17.5905L36.4117 23.965L30.0683 29.027L24.2393 32.1826L15.323 33.5189V27.7481L16.3517 23.1247L18.9235 17.9037L23.2106 13.1524L28.1819 9.64424L35.2119 7.10664L43.9225 6.66797L42.2418 13.1524Z" fill="black"/>
<path d="M15.3242 33.6119C15.3015 33.6119 15.2799 33.6036 15.2632 33.5892C15.2429 33.5713 15.2309 33.5462 15.2309 33.5187V27.7479C15.2309 27.7407 15.2309 27.7347 15.2333 27.7275L16.262 23.1042C16.2632 23.097 16.2656 23.0898 16.2692 23.0838L18.841 17.8616C18.8446 17.8545 18.8494 17.8473 18.8554 17.8401L23.1413 13.09C23.1413 13.09 23.1508 13.0805 23.1568 13.0769L28.1293 9.56752C28.1365 9.56274 28.1437 9.55916 28.1509 9.55557L35.1808 7.01797C35.1892 7.01438 35.1987 7.01319 35.2071 7.01199L43.9177 6.57332C43.9476 6.57213 43.9763 6.58408 43.9942 6.60798C44.0134 6.6307 44.0194 6.66177 44.0122 6.69046L42.3304 13.1749C42.3268 13.1869 42.322 13.1976 42.3148 13.2072L38.9859 17.6345L36.4978 23.997C36.4918 24.0126 36.4823 24.0257 36.4691 24.0353L30.1257 29.0973L24.2824 32.2625C24.2729 32.2672 24.2621 32.2708 24.2513 32.2732L15.3362 33.6095C15.3362 33.6095 15.3266 33.6095 15.3218 33.6095L15.3242 33.6119ZM15.4175 27.7586V33.4111L24.2094 32.0939L30.0241 28.9455L36.3351 23.9074L38.8183 17.5556C38.8219 17.5473 38.8255 17.5401 38.8303 17.5341L42.1557 13.1116L43.8005 6.76696L35.2298 7.19846L28.225 9.72769L23.2716 13.2227L19.0013 17.9561L16.4403 23.1568L15.4163 27.7586H15.4175Z" fill="#24E1E4"/>
<path d="M24.2393 32.2754C24.2238 32.2754 24.2083 32.2719 24.1939 32.2635L18.9463 29.2777L15.2907 27.8349C15.2429 27.8158 15.219 27.762 15.2381 27.7142C15.2572 27.6664 15.3111 27.6425 15.3589 27.6616L19.0264 29.1103L24.286 32.1021C24.3303 32.1272 24.3458 32.1846 24.3207 32.2288C24.304 32.2587 24.2716 32.2754 24.2393 32.2754Z" fill="#24E1E4"/>
<path d="M30.0683 29.1198C30.0564 29.1198 30.0456 29.1174 30.0336 29.1126L21.0707 25.5136L16.3123 23.2079C16.2656 23.1852 16.2465 23.1302 16.2692 23.0836C16.2919 23.037 16.347 23.0179 16.3936 23.0406L21.1472 25.3427L30.1042 28.9393C30.1521 28.9584 30.1748 29.0122 30.1556 29.06C30.1413 29.0959 30.1066 29.1186 30.0695 29.1186L30.0683 29.1198Z" fill="#24E1E4"/>
<path d="M36.4117 24.0582C36.4117 24.0582 36.4009 24.0582 36.3949 24.0571L23.8889 21.8075C23.8745 21.8051 23.8602 21.7991 23.8494 21.7896L18.8673 17.9766C18.8266 17.9455 18.8183 17.887 18.8506 17.8463C18.8817 17.8057 18.9402 17.7973 18.9809 17.8296L23.9451 21.6282L36.4296 23.873C36.4798 23.8825 36.5133 23.9303 36.5049 23.9806C36.4966 24.026 36.4571 24.0571 36.4141 24.0571L36.4117 24.0582Z" fill="#24E1E4"/>
<path d="M27.5061 17.9956C27.4798 17.9956 27.4547 17.9849 27.4367 17.9645L23.1413 13.2145C23.1066 13.1762 23.1101 13.1177 23.1484 13.083C23.1867 13.0483 23.2453 13.0519 23.28 13.0902L27.5468 17.8092L38.9021 17.4972H38.9045C38.9547 17.4972 38.9966 17.5366 38.9978 17.588C38.999 17.6394 38.9583 17.6825 38.9069 17.6837L27.5085 17.9968H27.5061V17.9956Z" fill="#24E1E4"/>
<path d="M31.9643 13.7964C31.938 13.7964 31.9141 13.7856 31.8961 13.7665L28.1149 9.70732C28.0803 9.67027 28.0827 9.6105 28.1197 9.57584C28.158 9.54118 28.2166 9.54357 28.2513 9.58062L32.0025 13.6075L42.237 13.0589C42.2909 13.0589 42.3316 13.096 42.3352 13.1474C42.3376 13.1988 42.2981 13.243 42.2466 13.2454L31.9691 13.7952C31.9691 13.7952 31.9655 13.7952 31.9643 13.7952V13.7964Z" fill="#24E1E4"/>
<path d="M38.3913 9.86395C38.3698 9.86395 38.3483 9.85678 38.3315 9.84244L35.1521 7.17815C35.1126 7.14468 35.1078 7.08611 35.1401 7.04667C35.1736 7.00722 35.2322 7.00244 35.2717 7.03471L38.4236 9.6763L43.1485 9.55079H43.1509C43.2012 9.55079 43.243 9.59023 43.2442 9.64163C43.2454 9.69303 43.2048 9.73606 43.1533 9.73725L38.3937 9.86395H38.3913Z" fill="#24E1E4"/>
<path d="M15.3243 33.6119C15.3027 33.6119 15.2812 33.6047 15.2645 33.5904C15.225 33.5569 15.2202 33.4984 15.2537 33.4589L18.9212 29.1368L21.0252 25.3824L23.8327 21.6602L27.4404 17.8401L31.9021 13.6363C31.9021 13.6363 31.9117 13.6279 31.9176 13.6243L38.3447 9.69182L43.8794 6.58765C43.9249 6.56255 43.9811 6.57809 44.0062 6.62351C44.0313 6.66773 44.0158 6.72511 43.9704 6.75021L38.438 9.85318L32.0217 13.7785L27.5707 17.9716L23.9739 21.781L21.1808 25.4852L19.0731 29.2443L15.3961 33.5808C15.3781 33.6024 15.3518 33.6131 15.3254 33.6131L15.3243 33.6119Z" fill="#24E1E4"/>
<path d="M44.1211 6.60425L51.9202 7.74097L57.809 8.88844L63.4777 11.2121L68.2061 13.4807L72.1524 15.943L75.4789 18.7041L80.4526 21.4258L79.5089 22.8243L71.0985 25.0153L64.4896 23.7447L56.3508 20.9441L51.9082 15.6514L47.4895 13.219L44.3711 8.40555L44.1211 6.60425Z" fill="black"/>
<path d="M71.0985 25.1083C71.0985 25.1083 71.0865 25.1083 71.0806 25.1071L64.4717 23.8365L56.3209 21.0335C56.3053 21.0276 56.291 21.018 56.2802 21.0048L51.8484 15.7253L47.4452 13.3012C47.4321 13.294 47.4201 13.2833 47.4117 13.2701L44.2921 8.45671C44.2849 8.44475 44.2801 8.4328 44.2777 8.41846L44.0277 6.61716C44.0242 6.58847 44.0337 6.55859 44.054 6.53827C44.0744 6.51795 44.1043 6.50838 44.133 6.51197L51.9321 7.64869L57.8257 8.79616L63.5111 11.1258L68.2456 13.3968L72.2002 15.8639L75.5363 18.6322L80.4957 21.3431C80.5184 21.3551 80.5351 21.3778 80.5411 21.4029C80.5471 21.428 80.5423 21.4555 80.528 21.477L79.5842 22.8755C79.571 22.8946 79.5519 22.9077 79.5303 22.9137L71.12 25.1047C71.1128 25.1071 71.1045 25.1083 71.0961 25.1083H71.0985ZM56.4058 20.865L64.5195 23.6572L71.0949 24.9206L79.4514 22.744L80.3186 21.459L75.4334 18.7864L72.0925 16.0157L68.157 13.5606L63.4369 11.2955L57.7742 8.97427L51.9022 7.83276L44.2299 6.71517L44.4596 8.37303L47.5553 13.1494L51.9536 15.5699C51.9632 15.5758 51.9728 15.583 51.9799 15.5914L56.4058 20.865Z" fill="#24E1E4"/>
<path d="M48.017 12.0554L52.7239 15.003L57.3388 20.0603L65.0769 22.5142L71.6499 23.3712L80.4526 21.4253L78.382 16.0381L75.7636 12.0901L71.4884 8.13729L65.7827 5.23752L59.8831 3.74341L52.4106 3.89282L44.121 6.60373L48.017 12.0554Z" fill="black"/>
<path d="M71.6514 23.4647C71.6514 23.4647 71.643 23.4647 71.6394 23.4647L65.0652 22.6065L57.3103 20.1502C57.2948 20.1454 57.2804 20.1358 57.2696 20.1239L52.6643 15.075L47.9682 12.1345C47.9574 12.1286 47.949 12.1202 47.9418 12.1094L44.0459 6.65774C44.0292 6.63383 44.0244 6.60276 44.0339 6.57526C44.0435 6.54658 44.065 6.52506 44.0937 6.5155L52.3833 3.80459C52.3917 3.8022 52.4012 3.7998 52.4108 3.7998L59.8833 3.65039C59.8905 3.65039 59.9 3.65039 59.9084 3.65278L65.8092 5.14689C65.8164 5.14809 65.8224 5.15048 65.8283 5.15407L71.5341 8.05264C71.5412 8.05623 71.5484 8.06101 71.5556 8.06698L75.8296 12.021C75.8296 12.021 75.8403 12.0318 75.8439 12.0377L78.4624 15.9858C78.4624 15.9858 78.4695 15.9977 78.4719 16.0037L80.5425 21.3909C80.5521 21.416 80.5509 21.4446 80.5377 21.4686C80.5246 21.4925 80.5018 21.5092 80.4755 21.5152L71.6728 23.4611C71.6657 23.4623 71.6597 23.4635 71.6525 23.4635L71.6514 23.4647ZM57.3905 19.9792L65.1046 22.4248L71.6466 23.277L80.3272 21.3574L78.2997 16.0802L75.692 12.1501L71.4348 8.2128L65.7506 5.32379L59.8726 3.83566L52.4263 3.98388L44.2708 6.65176L48.083 11.9851L52.7744 14.9232C52.7816 14.9279 52.7876 14.9327 52.7935 14.9399L57.3905 19.9792Z" fill="#24E1E4"/>
<path d="M71.6512 23.4645C71.6308 23.4645 71.6093 23.4573 71.5925 23.4429C71.553 23.4107 71.5471 23.3521 71.5794 23.3127L75.4072 18.6451L78.3199 15.97C78.3569 15.9353 78.4167 15.9377 78.4514 15.976C78.4861 16.0142 78.4837 16.0728 78.4454 16.1075L75.5411 18.773L71.7229 23.431C71.7049 23.4537 71.6775 23.4645 71.6512 23.4645Z" fill="#24E1E4"/>
<path d="M65.0769 22.6064C65.0518 22.6064 65.0267 22.5968 65.0087 22.5765C64.9741 22.5395 64.9765 22.4797 65.0135 22.445L72.0889 15.8745L75.6954 12.0269C75.7301 11.9899 75.7899 11.9875 75.827 12.0221C75.8641 12.0568 75.8665 12.1166 75.8318 12.1536L72.2205 16.006L65.1403 22.5813C65.1224 22.598 65.0996 22.6064 65.0769 22.6064Z" fill="#24E1E4"/>
<path d="M57.3377 20.154C57.3066 20.154 57.2755 20.1384 57.2575 20.1098C57.2312 20.0655 57.2455 20.0082 57.2886 19.9819L68.1368 13.4138L71.4071 8.08874C71.4335 8.04452 71.4909 8.03137 71.5351 8.05766C71.5794 8.08396 71.5925 8.14134 71.5662 8.18556L68.2839 13.5297C68.2767 13.5428 68.266 13.5524 68.2528 13.5608L57.3843 20.1408C57.3688 20.1504 57.3532 20.154 57.3364 20.154H57.3377Z" fill="#24E1E4"/>
<path d="M52.724 15.0963C52.6857 15.0963 52.6498 15.0724 52.6366 15.0341C52.6199 14.9851 52.645 14.9325 52.6941 14.9158L63.407 11.1387L65.6978 5.20525C65.7169 5.15744 65.7695 5.13353 65.8186 5.15146C65.8664 5.16939 65.8904 5.22318 65.8724 5.27219L63.5662 11.2462C63.5566 11.2713 63.5363 11.2917 63.51 11.3L52.7575 15.0915C52.7467 15.0951 52.7371 15.0963 52.7264 15.0963H52.724Z" fill="#24E1E4"/>
<path d="M48.0171 12.149C47.9776 12.149 47.9417 12.1239 47.9285 12.0844C47.913 12.0354 47.9393 11.9828 47.9883 11.9673L57.7384 8.81293L59.7958 3.70905C59.8149 3.66124 59.87 3.63853 59.9166 3.65765C59.9645 3.67678 59.9872 3.73056 59.968 3.77838L57.8939 8.9217C57.8831 8.94681 57.8628 8.96712 57.8365 8.97549L48.0446 12.1442C48.035 12.1478 48.0254 12.149 48.0158 12.149H48.0171Z" fill="#24E1E4"/>
<path d="M45.9093 9.19893C45.8711 9.19893 45.8352 9.17503 45.822 9.13678C45.8053 9.08777 45.8304 9.03518 45.8782 9.01845L50.334 7.44305L52.3292 3.84763C52.3543 3.80221 52.4118 3.78667 52.456 3.81177C52.5015 3.83687 52.517 3.89305 52.4919 3.93847L50.4799 7.56497C50.4692 7.58529 50.4512 7.59963 50.4297 7.608L45.9404 9.19535C45.9297 9.19893 45.9201 9.20012 45.9093 9.20012V9.19893Z" fill="#24E1E4"/>
<path d="M80.4526 21.5178C80.437 21.5178 80.4215 21.5142 80.4084 21.5058L75.4334 18.7842L72.0925 16.0135L68.157 13.5584L63.4369 11.2933L57.7826 8.97563L50.3819 7.60942L44.1079 6.69503C44.0565 6.68786 44.0217 6.64004 44.0289 6.58984C44.0361 6.53844 44.084 6.50378 44.1342 6.51095L50.4118 7.42535L57.8257 8.79395C57.8317 8.79395 57.8376 8.79754 57.8436 8.79993L63.5123 11.1236L68.2468 13.3946L72.2013 15.8617L75.5375 18.63L80.4968 21.3409C80.5423 21.366 80.5579 21.4222 80.5339 21.4676C80.5172 21.4987 80.4849 21.5154 80.4526 21.5154V21.5178Z" fill="#24E1E4"/>
<path d="M44.5875 6.77148H43.932L43.4906 11.6507L43.5863 14.2014L44.0456 18.8391L46.0492 23.2653L48.9787 27.7835L51.7071 29.6015L56.0218 30.8219L59.3244 32.1917L60.6582 34.1938L63.8197 37.1115L64.7467 37.0517L54.8639 14.5062L44.5875 6.77148Z" fill="black"/>
<path d="M63.8197 37.2035C63.797 37.2035 63.7743 37.1951 63.7563 37.1784L60.5948 34.2607C60.5948 34.2607 60.584 34.2499 60.5804 34.244L59.2622 32.2658L55.9871 30.9079L51.682 29.6911C51.6725 29.6887 51.6641 29.6839 51.6558 29.6792L48.9273 27.8599C48.9165 27.8528 48.9081 27.8432 48.9009 27.8336L45.9715 23.3154L43.9619 18.8773C43.9583 18.8678 43.9547 18.8582 43.9535 18.8486L43.4942 14.2109L43.3985 11.6542L43.8399 6.76309C43.8447 6.71528 43.8841 6.67822 43.932 6.67822H44.5876C44.6079 6.67822 44.627 6.6842 44.6437 6.69734L54.9189 14.4321C54.9321 14.4416 54.9417 14.4548 54.9476 14.4691L64.8317 37.0146C64.8436 37.0421 64.8413 37.0744 64.8257 37.1007C64.8102 37.127 64.7826 37.1437 64.7527 37.1449L63.8257 37.2047C63.8257 37.2047 63.8221 37.2047 63.8197 37.2047V37.2035ZM60.7288 34.1316L63.8532 37.0146L64.608 36.9668L54.7873 14.5647L44.5564 6.86349H44.017L43.5839 11.6578L43.6796 14.1978L44.1366 18.814L46.1342 23.2258L49.0469 27.7153L51.7466 29.5154L56.0481 30.7322L59.3604 32.1044C59.3771 32.1116 59.3914 32.1235 59.4022 32.1391L60.73 34.1316H60.7288Z" fill="#24E1E4"/>
<path d="M44.5876 6.77157L44.5899 13.7736L45.2969 18.4089L47.2766 22.8422L49.9596 27.1572L52.157 28.7469L56.2192 29.6948L60.0469 31.6312L61.5398 33.8903L64.7467 37.0518L66.2288 31.5463L66.114 28.178L65.3712 24.2025L64.852 20.2676L64.1642 18.2714L61.0876 12.9787L57.84 9.01155L54.3543 6.50024L44.5876 6.77157Z" fill="black"/>
<path d="M64.7467 37.145C64.7228 37.145 64.6989 37.1354 64.681 37.1187L61.474 33.9572C61.474 33.9572 61.4656 33.9476 61.462 33.9416L59.9823 31.704L56.1869 29.7832L52.1354 28.8377C52.1234 28.8354 52.1115 28.8294 52.1019 28.8222L49.9045 27.2325C49.895 27.2253 49.8866 27.2169 49.8794 27.2062L47.1964 22.8912L45.2108 18.4459C45.2072 18.4387 45.2048 18.4304 45.2036 18.422L44.4966 13.7867L44.4931 6.77033C44.4931 6.72013 44.5337 6.67829 44.5839 6.67709L54.3507 6.40576C54.3699 6.40576 54.3914 6.41174 54.4081 6.42369L57.8938 8.935C57.901 8.93978 57.9058 8.94576 57.9118 8.95173L61.1594 12.9189L64.2443 18.2236L64.9393 20.2364C64.9393 20.2364 64.9429 20.2484 64.9441 20.2544L65.4632 24.1893L66.2049 28.16L66.3221 31.5427C66.3221 31.5522 66.3221 31.5606 66.3185 31.5702L64.8365 37.0757C64.8281 37.1079 64.803 37.133 64.7707 37.1414C64.7623 37.1438 64.7539 37.145 64.7467 37.145ZM61.6116 33.8305L64.6977 36.8737L66.1343 31.5355L66.0195 28.1803L65.2791 24.2191L64.7599 20.289L64.0757 18.3013L61.0063 13.0253L57.7754 9.07962L54.3244 6.59342L44.6796 6.86117L44.682 13.7735L45.3866 18.3826L47.3615 22.8051L50.0289 27.0938L52.1964 28.662L56.2407 29.6051C56.2479 29.6063 56.2551 29.6087 56.2611 29.6123L60.0888 31.5487C60.1032 31.5558 60.1151 31.5666 60.1247 31.5809L61.6127 33.8317L61.6116 33.8305Z" fill="#24E1E4"/>
<path d="M61.5397 33.9833C61.5146 33.9833 61.4883 33.9726 61.4704 33.9522C61.4357 33.914 61.4393 33.8554 61.4775 33.8208L63.4931 32.0183C63.5051 32.0075 63.5206 32.0003 63.5362 31.9968L66.2096 31.4553C66.2599 31.4457 66.3089 31.478 66.3197 31.5282C66.3304 31.5784 66.297 31.6274 66.2467 31.6382L63.5972 32.1749L61.6008 33.9606C61.5828 33.9761 61.5613 33.9845 61.5386 33.9845L61.5397 33.9833Z" fill="#24E1E4"/>
<path d="M60.047 31.7244C60.0206 31.7244 59.9943 31.7136 59.9764 31.6921C59.9429 31.6527 59.9477 31.5941 59.9871 31.5606L62.663 29.2729C62.6714 29.2657 62.6822 29.2597 62.6929 29.2561L66.0841 28.0895C66.1331 28.0728 66.1857 28.0991 66.2025 28.1469C66.2192 28.1959 66.1929 28.2485 66.1451 28.2652L62.7707 29.4259L60.108 31.7017C60.09 31.7172 60.0685 31.7244 60.047 31.7244Z" fill="#24E1E4"/>
<path d="M56.2192 29.7877C56.1929 29.7877 56.1666 29.7769 56.1486 29.7542C56.1151 29.7148 56.1199 29.6562 56.1594 29.6228L60.8364 25.6687C60.8448 25.6616 60.8556 25.6556 60.8663 25.652L65.3413 24.1125C65.3903 24.0957 65.4429 24.122 65.4597 24.1698C65.4764 24.2189 65.4501 24.2715 65.4022 24.2882L60.9441 25.8217L56.2802 29.7638C56.2623 29.7781 56.2407 29.7853 56.2204 29.7853L56.2192 29.7877Z" fill="#24E1E4"/>
<path d="M52.1569 28.8401C52.1318 28.8401 52.1055 28.8294 52.0875 28.809C52.0529 28.7708 52.0565 28.7122 52.0947 28.6776L59.169 22.3354C59.1773 22.3282 59.1869 22.3222 59.1976 22.3174L64.8197 20.1803C64.8675 20.1623 64.9213 20.1862 64.9393 20.2341C64.9572 20.2819 64.9333 20.3357 64.8855 20.3536L59.2802 22.4848L52.2191 28.815C52.2012 28.8306 52.1797 28.8389 52.1569 28.8389V28.8401Z" fill="#24E1E4"/>
<path d="M49.9595 27.2504C49.9356 27.2504 49.9117 27.2408 49.8938 27.2229C49.8579 27.187 49.8579 27.1272 49.8938 27.0914L57.3352 19.6424C57.3483 19.6292 57.3639 19.6208 57.3819 19.6173L64.1451 18.1793C64.1953 18.1686 64.2455 18.2008 64.2551 18.251C64.2659 18.3012 64.2336 18.3502 64.1833 18.361L57.4465 19.793L50.0241 27.2217C50.0062 27.2396 49.9823 27.2492 49.9584 27.2492L49.9595 27.2504Z" fill="#24E1E4"/>
<path d="M47.2766 22.9356C47.2527 22.9356 47.2275 22.9261 47.2096 22.9069C47.1737 22.8699 47.1749 22.8113 47.212 22.7754L53.8292 16.3615C53.8424 16.3484 53.8591 16.34 53.8771 16.3364L62.1642 14.767C62.2145 14.7575 62.2635 14.7909 62.273 14.8411C62.2826 14.8913 62.2492 14.9403 62.1989 14.9499L53.9393 16.5133L47.3411 22.9081C47.3232 22.926 47.2993 22.9344 47.2766 22.9344V22.9356Z" fill="#24E1E4"/>
<path d="M45.2969 18.5023C45.267 18.5023 45.2371 18.488 45.2191 18.4605C45.1916 18.4175 45.2036 18.3601 45.2466 18.3314L51.8675 14.0284C51.8795 14.0212 51.8926 14.0152 51.907 14.014L61.0768 12.8869C61.1295 12.8797 61.1749 12.9168 61.1809 12.9682C61.1869 13.0196 61.151 13.065 61.0996 13.0721L51.9512 14.1969L45.3483 18.4892C45.3328 18.4999 45.3148 18.5047 45.2981 18.5047L45.2969 18.5023Z" fill="#24E1E4"/>
<path d="M44.5899 13.8667C44.5564 13.8667 44.5241 13.8488 44.5074 13.8165C44.4834 13.7711 44.5014 13.7149 44.5481 13.691L50.2119 10.7757C50.2179 10.7721 50.2251 10.7697 50.2323 10.7685L57.8185 8.92182C57.8699 8.90986 57.919 8.93974 57.9309 8.98994C57.9429 9.04014 57.913 9.09035 57.8628 9.1023L50.2873 10.9454L44.633 13.856C44.6198 13.8631 44.6043 13.8667 44.5899 13.8667Z" fill="#24E1E4"/>
<path d="M44.5899 11.1975C44.56 11.1975 44.5301 11.1832 44.5121 11.1557C44.4834 11.1127 44.4954 11.0553 44.5385 11.0266L48.0505 8.70654C48.0564 8.70296 48.0624 8.69938 48.0696 8.69699L54.322 6.41278C54.3711 6.39485 54.4237 6.41996 54.4417 6.46777C54.4596 6.51558 54.4345 6.56937 54.3866 6.5873L48.1438 8.86791L44.6402 11.182C44.6246 11.1927 44.6067 11.1975 44.5887 11.1975H44.5899Z" fill="#24E1E4"/>
<path d="M64.7467 37.145C64.7049 37.145 64.6666 37.1163 64.6558 37.0733L63.4644 32.1092L62.6331 29.3708L60.8137 25.7826L59.1474 22.4453L57.3304 19.7691L53.8316 16.4952L51.8472 14.1644C51.8472 14.1644 51.8388 14.1524 51.8352 14.1464L50.1785 10.9132L48.0457 8.85848L44.5421 6.8516C44.4978 6.82649 44.4822 6.76912 44.5074 6.7249C44.5325 6.68067 44.5899 6.66513 44.6342 6.69023L48.1485 8.7031C48.1545 8.70668 48.1617 8.71146 48.1665 8.71624L50.3184 10.7901C50.3256 10.7972 50.3316 10.8056 50.3363 10.8152L51.9955 14.0532L53.9656 16.3673L57.4656 19.64C57.4656 19.64 57.4751 19.6495 57.4787 19.6555L59.3077 22.3509L60.9799 25.6977L62.8053 29.3003L63.6451 32.059L64.8376 37.0278C64.8496 37.078 64.8185 37.1282 64.7683 37.1402C64.7611 37.1414 64.7539 37.1426 64.7467 37.1426V37.145Z" fill="#24E1E4"/>
<path d="M8.06576 43.7149C7.99877 43.8762 7.92103 44.0149 7.83371 44.1308C7.74638 44.2468 7.6495 44.3639 7.54424 44.4822C7.4952 44.5408 7.4533 44.591 7.421 44.6329C7.3887 44.6747 7.36 44.7237 7.33608 44.7799C7.31096 44.8384 7.29425 44.9054 7.28468 44.9795C7.27511 45.0536 7.26791 45.1552 7.26073 45.2819C7.25475 45.4373 7.24878 45.5568 7.2428 45.6429C7.23682 45.7277 7.22485 45.7911 7.20811 45.8317C7.18897 45.8784 7.15786 45.907 7.116 45.9178C7.07413 45.9285 7.01432 45.9345 6.93657 45.9345C6.8648 45.9345 6.80976 45.9297 6.77029 45.9202C6.73081 45.9106 6.70451 45.8855 6.69015 45.8461C6.6758 45.8054 6.6698 45.7469 6.67339 45.6692C6.67578 45.5915 6.68538 45.4827 6.69973 45.3441C6.71767 45.2042 6.72961 45.0966 6.73559 45.0189C6.74157 44.9412 6.744 44.8827 6.74161 44.842C6.73922 44.8014 6.73205 44.7763 6.71889 44.7679C6.70573 44.7584 6.68659 44.7536 6.66147 44.7536C6.63635 44.7536 6.61479 44.7584 6.59804 44.7679C6.5801 44.7775 6.55979 44.8026 6.53707 44.842C6.51434 44.8827 6.4856 44.9412 6.45092 45.0189C6.41623 45.0966 6.37075 45.2054 6.31214 45.3441C6.25353 45.4839 6.20572 45.5927 6.16863 45.6692C6.13155 45.7469 6.09685 45.8054 6.06455 45.8461C6.03226 45.8867 5.99758 45.9106 5.9593 45.9202C5.92102 45.9297 5.87435 45.9345 5.81813 45.9345C5.76191 45.9345 5.72367 45.9214 5.70214 45.8951C5.6806 45.8688 5.6842 45.8018 5.71171 45.6931C5.74042 45.5843 5.79783 45.4218 5.88635 45.2042C5.97367 44.9867 6.09803 44.6878 6.25712 44.3065C6.41621 43.9252 6.5454 43.6264 6.64348 43.4113C6.74157 43.1961 6.82655 43.0336 6.90071 42.9248C6.97368 42.816 7.04542 42.7491 7.116 42.7228C7.18538 42.6965 7.27272 42.6833 7.37439 42.6833H7.77985C7.90426 42.6833 7.9988 42.7132 8.06459 42.7718C8.13038 42.8304 8.17222 42.9081 8.19016 43.0049C8.2093 43.1005 8.2069 43.2105 8.18298 43.3348C8.15906 43.4591 8.11959 43.5858 8.06576 43.7161V43.7149ZM7.55259 43.7292C7.59565 43.6264 7.61482 43.5356 7.61123 43.4543C7.60764 43.3742 7.561 43.3336 7.47129 43.3336H7.29899C7.2643 43.3336 7.23679 43.3372 7.21646 43.3431C7.19493 43.3491 7.17459 43.3659 7.15425 43.3921C7.13392 43.4184 7.11121 43.4579 7.08609 43.5105C7.06097 43.5631 7.02867 43.636 6.9892 43.7292C6.94972 43.8225 6.92102 43.8954 6.90188 43.9504C6.88154 44.0041 6.87197 44.0448 6.86958 44.0711C6.86719 44.0974 6.87558 44.1141 6.89113 44.1201C6.90668 44.1261 6.93179 44.1296 6.96648 44.1296H7.13872C7.18178 44.1296 7.22485 44.1177 7.26552 44.095C7.30619 44.0711 7.34446 44.0412 7.38035 44.0041C7.41623 43.9671 7.44851 43.9241 7.47841 43.8762C7.50832 43.8284 7.53348 43.7794 7.55382 43.7292H7.55259Z" fill="#24E1E4"/>
<path d="M8.94375 45.613C8.91145 45.6907 8.88041 45.7504 8.8517 45.7947C8.82299 45.8377 8.77992 45.8712 8.7249 45.8927C8.66987 45.9142 8.5945 45.9274 8.5012 45.9321C8.4079 45.9369 8.27868 45.9393 8.11361 45.9393C7.94854 45.9393 7.83014 45.9262 7.7488 45.8999C7.66626 45.8736 7.62559 45.8054 7.62439 45.6979C7.62439 45.5891 7.6627 45.4265 7.74284 45.209C7.82298 44.9926 7.9426 44.6926 8.10169 44.3113C8.26079 43.93 8.39234 43.6312 8.49401 43.4137C8.59569 43.1961 8.6914 43.0336 8.78231 42.9248C8.87203 42.816 8.96891 42.7491 9.07178 42.7228C9.17465 42.6965 9.30504 42.6833 9.46293 42.6833C9.62083 42.6833 9.74521 42.6857 9.83493 42.6905C9.92464 42.6953 9.98802 42.7084 10.0251 42.73C10.0622 42.7515 10.0778 42.7837 10.0706 42.828C10.0634 42.871 10.0431 42.932 10.0108 43.0097C9.97849 43.0874 9.94859 43.1471 9.92347 43.1913C9.89716 43.2344 9.86485 43.2678 9.82418 43.2894C9.78351 43.3109 9.73087 43.324 9.66508 43.3288C9.59929 43.3336 9.51195 43.336 9.40429 43.336C9.3074 43.336 9.23208 43.3384 9.17586 43.3431C9.11964 43.3479 9.07417 43.3599 9.03948 43.3802C9.00479 43.4005 8.97489 43.4316 8.95216 43.4734C8.92824 43.5153 8.90193 43.5714 8.87203 43.6432C8.84212 43.7149 8.82059 43.7711 8.80743 43.8129C8.79427 43.8547 8.79544 43.8858 8.81099 43.9061C8.82534 43.9264 8.85525 43.9384 8.89831 43.9432C8.94137 43.948 9.00121 43.9504 9.07896 43.9504C9.17226 43.9504 9.24521 43.9527 9.29665 43.9575C9.34928 43.9623 9.38518 43.9755 9.40312 43.997C9.42226 44.0185 9.42586 44.0496 9.4151 44.0902C9.40433 44.1308 9.38399 44.1882 9.35289 44.2623C9.32179 44.3364 9.29426 44.3938 9.27153 44.4344C9.2488 44.4751 9.2189 44.5062 9.18182 44.5277C9.14474 44.5492 9.09809 44.5623 9.04187 44.5671C8.98565 44.5719 8.91148 44.5743 8.81817 44.5743C8.74042 44.5743 8.67824 44.5779 8.6304 44.5838C8.58255 44.5898 8.54304 44.6054 8.50955 44.6281C8.47725 44.6508 8.44738 44.6866 8.42346 44.7345C8.39834 44.7823 8.36843 44.848 8.33374 44.9317C8.29906 45.0153 8.27389 45.0811 8.26074 45.1289C8.24638 45.1767 8.24881 45.2126 8.26675 45.2365C8.28469 45.2592 8.32057 45.2747 8.3744 45.2807C8.42822 45.2867 8.5036 45.2903 8.60289 45.2903C8.71413 45.2903 8.80261 45.2927 8.86601 45.2974C8.92941 45.3022 8.97131 45.3154 8.99404 45.3369C9.01557 45.3584 9.02151 45.3907 9.01074 45.4349C8.99998 45.4779 8.97844 45.5389 8.94614 45.6166L8.94375 45.613Z" fill="#24E1E4"/>
<path d="M10.2823 43.3335C10.2106 43.3335 10.1555 43.3311 10.116 43.3264C10.0766 43.3216 10.0502 43.3084 10.0395 43.2869C10.0287 43.2654 10.0299 43.2331 10.0431 43.1889C10.0574 43.1459 10.0801 43.0849 10.1124 43.0072C10.1447 42.9295 10.1758 42.8686 10.2069 42.8255C10.238 42.7825 10.2847 42.749 10.3481 42.7275C10.4115 42.706 10.4964 42.6929 10.6041 42.6881C10.7117 42.6833 10.8588 42.6809 11.0443 42.6809C11.2297 42.6809 11.3768 42.6833 11.4809 42.6881C11.5862 42.6929 11.6615 42.706 11.7069 42.7275C11.7524 42.749 11.7715 42.7813 11.7667 42.8255C11.7608 42.8686 11.7416 42.9295 11.7093 43.0072C11.677 43.0849 11.6495 43.1447 11.6268 43.1889C11.6041 43.2319 11.5766 43.2654 11.5467 43.2869C11.5156 43.3084 11.4797 43.3216 11.4366 43.3264C11.3948 43.3311 11.3373 43.3335 11.2656 43.3335C11.2069 43.3335 11.1567 43.3443 11.1149 43.3658C11.073 43.3873 11.0264 43.4411 10.9749 43.526C10.9235 43.6108 10.86 43.7411 10.7823 43.9144C10.7057 44.0878 10.6029 44.3268 10.4761 44.6304C10.3493 44.934 10.2476 45.1731 10.1722 45.3464C10.0969 45.5197 10.0323 45.65 9.97849 45.7373C9.92467 45.8245 9.87802 45.8783 9.83616 45.8998C9.79429 45.9213 9.74402 45.9321 9.68541 45.9321C9.62919 45.9321 9.58974 45.9213 9.56702 45.8998C9.54309 45.8783 9.54186 45.8245 9.561 45.7373C9.58014 45.65 9.62438 45.5197 9.69376 45.3464C9.76314 45.1731 9.86125 44.934 9.98924 44.6304C10.116 44.3268 10.2141 44.0878 10.2847 43.9144C10.3541 43.7411 10.3983 43.6108 10.4163 43.526C10.4342 43.4411 10.4318 43.3873 10.4091 43.3658C10.3851 43.3443 10.3445 43.3335 10.2847 43.3335H10.2823Z" fill="#24E1E4"/>
<path d="M13.1399 43.7149C13.073 43.8762 12.9952 44.0149 12.9079 44.1308C12.8206 44.2468 12.7237 44.3639 12.6184 44.4822C12.5694 44.5408 12.5275 44.591 12.4952 44.6329C12.463 44.6747 12.4342 44.7237 12.4103 44.7799C12.3852 44.8384 12.3684 44.9054 12.3589 44.9795C12.3493 45.0536 12.3421 45.1552 12.3349 45.2819C12.3289 45.4373 12.323 45.5568 12.317 45.6429C12.311 45.7277 12.299 45.7911 12.2823 45.8317C12.2632 45.8784 12.2321 45.907 12.1902 45.9178C12.1483 45.9285 12.0885 45.9345 12.0108 45.9345C11.939 45.9345 11.8839 45.9297 11.8445 45.9202C11.805 45.9106 11.7787 45.8855 11.7643 45.8461C11.75 45.8054 11.744 45.7469 11.7476 45.6692C11.75 45.5915 11.7596 45.4827 11.7739 45.3441C11.7919 45.2042 11.8039 45.0966 11.8098 45.0189C11.8158 44.9412 11.8182 44.8827 11.8158 44.842C11.8134 44.8014 11.8062 44.7763 11.7931 44.7679C11.7799 44.7584 11.7608 44.7536 11.7357 44.7536C11.7105 44.7536 11.689 44.7584 11.6722 44.7679C11.6543 44.7775 11.634 44.8026 11.6113 44.842C11.5885 44.8827 11.5598 44.9412 11.5251 45.0189C11.4904 45.0966 11.445 45.2054 11.3864 45.3441C11.3278 45.4839 11.2799 45.5927 11.2428 45.6692C11.2057 45.7469 11.171 45.8054 11.1387 45.8461C11.1064 45.8867 11.0718 45.9106 11.0335 45.9202C10.9952 45.9297 10.9485 45.9345 10.8923 45.9345C10.8361 45.9345 10.7979 45.9214 10.7763 45.8951C10.7548 45.8688 10.7584 45.8018 10.7859 45.6931C10.8134 45.5843 10.872 45.4218 10.9605 45.2042C11.0479 44.9867 11.1723 44.6878 11.3314 44.3065C11.4905 43.9252 11.6196 43.6264 11.7177 43.4113C11.8158 43.1961 11.9007 43.0336 11.9749 42.9248C12.0479 42.816 12.1196 42.7491 12.1902 42.7228C12.2596 42.6965 12.3469 42.6833 12.4486 42.6833H12.8541C12.9785 42.6833 13.073 42.7132 13.1388 42.7718C13.2046 42.8304 13.2464 42.9081 13.2644 43.0049C13.2835 43.1005 13.2811 43.2105 13.2572 43.3348C13.2332 43.4591 13.1938 43.5858 13.1399 43.7161V43.7149ZM12.6268 43.7292C12.6698 43.6264 12.689 43.5356 12.6854 43.4543C12.6818 43.3742 12.6352 43.3336 12.5455 43.3336H12.3732C12.3385 43.3336 12.311 43.3372 12.2907 43.3431C12.2692 43.3491 12.2488 43.3659 12.2285 43.3921C12.2082 43.4184 12.1854 43.4579 12.1603 43.5105C12.1352 43.5631 12.1029 43.636 12.0634 43.7292C12.0239 43.8225 11.9952 43.8954 11.9761 43.9504C11.9557 44.0041 11.9462 44.0448 11.9438 44.0711C11.9414 44.0974 11.9498 44.1141 11.9653 44.1201C11.9809 44.1261 12.006 44.1296 12.0407 44.1296H12.2129C12.256 44.1296 12.299 44.1177 12.3397 44.095C12.3804 44.0711 12.4187 44.0412 12.4545 44.0041C12.4904 43.9671 12.5228 43.9241 12.5527 43.8762C12.5826 43.8284 12.6077 43.7794 12.628 43.7292H12.6268Z" fill="#24E1E4"/>
<path d="M14.689 42.6277C14.8385 42.6277 14.957 42.6695 15.0455 42.7532C15.1352 42.8369 15.1938 42.9528 15.2237 43.1022C15.2524 43.2504 15.2488 43.4285 15.2129 43.6353C15.1758 43.8421 15.1065 44.0668 15.0048 44.3119C14.9019 44.5569 14.7835 44.7828 14.6471 44.9884C14.5108 45.1952 14.366 45.3721 14.2129 45.5215C14.0586 45.6709 13.9031 45.7868 13.7428 45.8705C13.5837 45.9542 13.4294 45.996 13.2811 45.996C13.1328 45.996 13.012 45.9542 12.9223 45.8705C12.8313 45.7868 12.7727 45.6709 12.7452 45.5215C12.7177 45.3733 12.7213 45.1952 12.756 44.9884C12.7907 44.7828 12.8601 44.5569 12.9617 44.3119C13.0646 44.0668 13.1842 43.8409 13.3218 43.6353C13.4593 43.4297 13.6041 43.2516 13.756 43.1022C13.9079 42.9528 14.0646 42.8369 14.2249 42.7532C14.3852 42.6695 14.5407 42.6277 14.689 42.6277ZM14.4162 43.2791C14.3361 43.2791 14.2524 43.3042 14.1675 43.3556C14.0826 43.407 13.9988 43.4775 13.9187 43.5672C13.8373 43.6568 13.7584 43.7656 13.683 43.8935C13.6065 44.0202 13.5371 44.1601 13.4725 44.3119C13.4079 44.4637 13.3625 44.6035 13.3326 44.7302C13.3027 44.8569 13.2907 44.9657 13.2966 45.0553C13.3026 45.145 13.3266 45.2155 13.3684 45.2669C13.4103 45.3183 13.4725 45.3434 13.5526 45.3434C13.6328 45.3434 13.7165 45.3183 13.8015 45.2669C13.8864 45.2155 13.9701 45.145 14.0503 45.0553C14.1316 44.9657 14.2106 44.8569 14.2871 44.7302C14.3637 44.6035 14.433 44.4637 14.4964 44.3119C14.5598 44.1601 14.6065 44.0202 14.6364 43.8935C14.6663 43.7668 14.6782 43.658 14.6722 43.5672C14.6663 43.4775 14.6423 43.407 14.6005 43.3556C14.5586 43.3042 14.4964 43.2791 14.4162 43.2791Z" fill="#24E1E4"/>
<path d="M17.6723 42.6274C17.7835 42.6274 17.8816 42.6393 17.9642 42.6644C18.0156 42.6835 18.0539 42.7015 18.0778 42.7206C18.1029 42.7397 18.1161 42.7648 18.1197 42.7971C18.1233 42.8294 18.1161 42.8712 18.0981 42.9202C18.0802 42.9692 18.0551 43.0338 18.0228 43.1115C17.9809 43.2107 17.9486 43.28 17.9247 43.3182C17.9007 43.3577 17.8673 43.3768 17.8242 43.3768C17.8051 43.3768 17.7871 43.3732 17.7704 43.3672C17.7524 43.3613 17.7309 43.3517 17.7046 43.3398L17.6735 43.3254C17.5994 43.2943 17.5252 43.2788 17.451 43.2788C17.256 43.2788 17.0634 43.3732 16.8745 43.5621C16.6855 43.7509 16.5216 44.0115 16.3816 44.3438C16.244 44.6725 16.1902 44.9211 16.2189 45.0908C16.2477 45.2594 16.3302 45.3443 16.4665 45.3443C16.5012 45.3443 16.5467 45.3335 16.6053 45.312C16.6352 45.3 16.6591 45.2869 16.6771 45.2725C16.695 45.2582 16.7117 45.2379 16.7285 45.2116C16.744 45.1853 16.7608 45.1518 16.7799 45.1112C16.7979 45.0705 16.8206 45.0179 16.8481 44.9534C16.8732 44.8948 16.89 44.8482 16.902 44.8135C16.9127 44.7801 16.9163 44.7538 16.9127 44.737C16.9091 44.7203 16.896 44.7095 16.8745 44.7048C16.8529 44.7 16.8242 44.6976 16.7871 44.6976C16.7345 44.6976 16.6926 44.6952 16.6639 44.6904C16.6352 44.6856 16.6173 44.6725 16.6101 44.651C16.6041 44.6295 16.6065 44.5972 16.6208 44.553C16.634 44.5099 16.6579 44.449 16.6902 44.3713C16.7225 44.2936 16.7512 44.2338 16.7776 44.1896C16.8039 44.1466 16.8362 44.1131 16.8745 44.0916C16.9127 44.0701 16.963 44.0569 17.024 44.0521C17.085 44.0474 17.1663 44.045 17.2692 44.045C17.372 44.045 17.4498 44.0521 17.5048 44.0665C17.5599 44.0808 17.591 44.1143 17.5969 44.1693C17.6041 44.2231 17.5874 44.3067 17.5491 44.4179C17.5096 44.5291 17.4498 44.6833 17.3685 44.8781C17.2883 45.0705 17.2201 45.2259 17.1663 45.3454C17.1113 45.465 17.0586 45.5618 17.0072 45.6359C16.9558 45.71 16.9008 45.7674 16.8398 45.808C16.7799 45.8487 16.7022 45.8857 16.6065 45.9192C16.4833 45.9694 16.3601 45.9933 16.2357 45.9933C16.0958 45.9933 15.9761 45.9586 15.8769 45.8881C15.7776 45.8188 15.7082 45.7136 15.6711 45.5737C15.6328 45.4339 15.6292 45.2594 15.6603 45.0478C15.6914 44.8374 15.7656 44.59 15.884 44.3079C15.9892 44.0569 16.1101 43.8274 16.2489 43.6194C16.3876 43.4115 16.5347 43.2346 16.6926 43.0864C16.8505 42.9393 17.0132 42.8246 17.1795 42.7445C17.3469 42.6644 17.5108 42.6238 17.6723 42.6238V42.6274Z" fill="#24E1E4"/>
<path d="M19.6699 43.7149C19.6029 43.8762 19.5252 44.0149 19.4379 44.1308C19.3505 44.2468 19.2536 44.3639 19.1483 44.4822C19.0993 44.5408 19.0575 44.591 19.0252 44.6329C18.9929 44.6747 18.9642 44.7237 18.9402 44.7799C18.9151 44.8384 18.8983 44.9054 18.8888 44.9795C18.8792 45.0536 18.8721 45.1552 18.8649 45.2819C18.8589 45.4373 18.8529 45.5568 18.8469 45.6429C18.8409 45.7277 18.8289 45.7911 18.8122 45.8317C18.7931 45.8784 18.762 45.907 18.7202 45.9178C18.6783 45.9285 18.6185 45.9345 18.5407 45.9345C18.469 45.9345 18.4139 45.9297 18.3744 45.9202C18.335 45.9106 18.3087 45.8855 18.2943 45.8461C18.28 45.8054 18.274 45.7469 18.2775 45.6692C18.2799 45.5915 18.2895 45.4827 18.3038 45.3441C18.3218 45.2042 18.3338 45.0966 18.3397 45.0189C18.3457 44.9412 18.3481 44.8827 18.3457 44.842C18.3433 44.8014 18.3361 44.7763 18.323 44.7679C18.3098 44.7584 18.2907 44.7536 18.2656 44.7536C18.2404 44.7536 18.2189 44.7584 18.2022 44.7679C18.1843 44.7775 18.1639 44.8026 18.1412 44.842C18.1184 44.8827 18.0898 44.9412 18.0551 45.0189C18.0204 45.0966 17.9749 45.2054 17.9163 45.3441C17.8577 45.4839 17.8098 45.5927 17.7727 45.6692C17.7356 45.7469 17.701 45.8054 17.6687 45.8461C17.6364 45.8867 17.6017 45.9106 17.5634 45.9202C17.5251 45.9297 17.4785 45.9345 17.4223 45.9345C17.3661 45.9345 17.3278 45.9214 17.3062 45.8951C17.2847 45.8688 17.2883 45.8018 17.3158 45.6931C17.3445 45.5843 17.4019 45.4218 17.4904 45.2042C17.5778 44.9867 17.7022 44.6878 17.8613 44.3065C18.0204 43.9252 18.1496 43.6264 18.2476 43.4113C18.3457 43.1961 18.4306 43.0336 18.5048 42.9248C18.5778 42.816 18.6496 42.7491 18.7202 42.7228C18.7895 42.6965 18.8768 42.6833 18.9785 42.6833H19.384C19.5084 42.6833 19.6029 42.7132 19.6687 42.7718C19.7345 42.8304 19.7764 42.9081 19.7943 43.0049C19.8135 43.1005 19.8111 43.2105 19.7871 43.3348C19.7632 43.4591 19.7237 43.5858 19.6699 43.7161V43.7149ZM19.1567 43.7292C19.1998 43.6264 19.2189 43.5356 19.2153 43.4543C19.2117 43.3742 19.1651 43.3336 19.0754 43.3336H18.9031C18.8685 43.3336 18.8409 43.3372 18.8206 43.3431C18.7991 43.3491 18.7787 43.3659 18.7584 43.3921C18.7381 43.4184 18.7154 43.4579 18.6902 43.5105C18.6651 43.5631 18.6328 43.636 18.5934 43.7292C18.5539 43.8225 18.5252 43.8954 18.506 43.9504C18.4857 44.0041 18.4761 44.0448 18.4737 44.0711C18.4713 44.0974 18.4797 44.1141 18.4952 44.1201C18.5108 44.1261 18.5359 44.1296 18.5706 44.1296H18.7429C18.7859 44.1296 18.829 44.1177 18.8697 44.095C18.9103 44.0711 18.9486 44.0412 18.9845 44.0041C19.0204 43.9671 19.0527 43.9241 19.0826 43.8762C19.1125 43.8284 19.1376 43.7794 19.1579 43.7292H19.1567Z" fill="#24E1E4"/>
<path d="M19.89 44.315C20.0455 44.0604 20.1795 43.8441 20.2907 43.6636C20.402 43.4843 20.4964 43.3337 20.5766 43.2153C20.6555 43.0958 20.7249 43.0002 20.7823 42.9297C20.8398 42.8579 20.8924 42.8054 20.9378 42.7695C20.9833 42.7336 21.0276 42.7109 21.0706 42.7014C21.1137 42.6918 21.1615 42.687 21.2142 42.687C21.2919 42.687 21.3493 42.7002 21.3888 42.7265C21.4271 42.7528 21.4451 42.8209 21.4415 42.9285C21.4379 43.0372 21.4139 43.1998 21.3697 43.4173C21.3254 43.6349 21.2608 43.9337 21.1759 44.315C21.1292 44.523 21.0874 44.7047 21.0515 44.8612C21.0156 45.0178 20.9833 45.1529 20.9534 45.2688C20.9235 45.3836 20.8984 45.4792 20.8745 45.5569C20.8517 45.6346 20.829 45.6979 20.8087 45.7481C20.7728 45.8354 20.7333 45.8892 20.6915 45.9107C20.6496 45.9322 20.5981 45.943 20.5359 45.943C20.4737 45.943 20.4259 45.9406 20.3924 45.9358C20.3589 45.931 20.335 45.9191 20.3206 45.9011C20.3063 45.882 20.3015 45.8557 20.3063 45.8199C20.3099 45.784 20.3195 45.735 20.3326 45.6729C20.3458 45.6107 20.3553 45.5617 20.3589 45.5258C20.3625 45.49 20.3553 45.4637 20.3386 45.4469C20.3206 45.4302 20.2907 45.4194 20.25 45.4147C20.2082 45.4099 20.1508 45.4075 20.0766 45.4075C20.0024 45.4075 19.9414 45.4099 19.8948 45.4147C19.8481 45.4194 19.8086 45.4302 19.7763 45.4469C19.744 45.4637 19.7154 45.49 19.6902 45.5258C19.6639 45.5617 19.6328 45.6107 19.5945 45.6729C19.5562 45.735 19.524 45.784 19.4977 45.8199C19.4714 45.8557 19.445 45.8832 19.4175 45.9011C19.39 45.9203 19.3565 45.931 19.317 45.9358C19.2776 45.9406 19.2273 45.943 19.1651 45.943C19.1029 45.943 19.0611 45.9322 19.0395 45.9107C19.0168 45.8892 19.0251 45.8354 19.061 45.7481C19.0814 45.6991 19.1137 45.6346 19.1544 45.5569C19.1962 45.4792 19.25 45.3836 19.317 45.2688C19.384 45.1541 19.4641 45.0178 19.5598 44.8612C19.6543 44.7047 19.7656 44.523 19.8936 44.315H19.89ZM20.5443 44.064C20.4654 44.1943 20.402 44.3007 20.3565 44.3855C20.311 44.4692 20.2763 44.5373 20.2548 44.5899C20.2225 44.6676 20.2154 44.7154 20.2333 44.7321C20.2513 44.7489 20.2895 44.7573 20.3481 44.7573C20.4068 44.7573 20.4486 44.7489 20.4821 44.7321C20.5156 44.7154 20.5491 44.6676 20.5814 44.5899C20.6029 44.5373 20.6256 44.4692 20.6484 44.3855C20.6711 44.3019 20.6986 44.1943 20.7309 44.064L20.8398 43.5799C20.8338 43.5799 20.7345 43.7413 20.5443 44.064Z" fill="#24E1E4"/>
<path d="M23.4702 43.7902C23.4104 43.9324 23.3374 44.0711 23.2501 44.2037C23.1628 44.3364 23.0671 44.4559 22.9618 44.5599C22.8566 44.6639 22.7441 44.7476 22.6269 44.8109C22.5085 44.8743 22.3876 44.9066 22.2632 44.9066H22.0587C22.018 44.9066 21.9845 44.9101 21.9582 44.9185C21.9319 44.9257 21.9056 44.9484 21.8793 44.9831C21.8529 45.0189 21.8243 45.0703 21.7932 45.1384C21.7621 45.2066 21.7202 45.301 21.6699 45.4217C21.6197 45.5424 21.5778 45.6369 21.5444 45.705C21.5109 45.7731 21.4797 45.8245 21.4486 45.8604C21.4175 45.8963 21.3841 45.9178 21.347 45.9261C21.3099 45.9333 21.2632 45.9381 21.207 45.9381C21.1508 45.9381 21.1125 45.9249 21.091 45.8986C21.0695 45.8723 21.073 45.8042 21.1017 45.6966C21.1305 45.5879 21.1879 45.4253 21.2764 45.2078C21.3637 44.9914 21.4881 44.6914 21.6472 44.3101C21.8063 43.9288 21.9355 43.63 22.0348 43.4124C22.1329 43.1949 22.2202 43.0324 22.2955 42.9236C22.3709 42.8148 22.4427 42.7479 22.5133 42.7216C22.5826 42.6953 22.6711 42.6821 22.7764 42.6821H23.1951C23.3195 42.6821 23.414 42.7144 23.4786 42.7777C23.5432 42.8411 23.585 42.9248 23.6054 43.0264C23.6245 43.1292 23.6221 43.2463 23.597 43.3802C23.5718 43.514 23.5312 43.6503 23.4726 43.789L23.4702 43.7902ZM22.9582 43.7902C22.9833 43.7316 23.0013 43.6742 23.0132 43.6204C23.0252 43.5666 23.0288 43.5176 23.0252 43.4758C23.0216 43.434 23.0085 43.3993 22.987 43.373C22.9654 43.3467 22.9331 43.3336 22.8901 43.3336H22.6998C22.6627 43.3336 22.6317 43.3371 22.6089 43.3455C22.5862 43.3527 22.5635 43.3718 22.5419 43.4017C22.5204 43.4316 22.4953 43.477 22.4666 43.5391C22.4379 43.6013 22.4008 43.6862 22.3553 43.7949C22.3099 43.9037 22.2752 43.9886 22.2537 44.0507C22.2309 44.1129 22.2178 44.1583 22.2142 44.1882C22.2106 44.2181 22.2178 44.236 22.2346 44.2444C22.2513 44.2515 22.2788 44.2563 22.3159 44.2563H22.5073C22.5503 44.2563 22.5946 44.2432 22.6377 44.2169C22.6807 44.1906 22.7226 44.1559 22.7633 44.1129C22.8027 44.0699 22.8398 44.0197 22.8745 43.9635C22.9092 43.9073 22.9379 43.8499 22.963 43.7913L22.9582 43.7902Z" fill="#24E1E4"/>
<path d="M23.4762 44.3101C23.6353 43.9288 23.7621 43.63 23.8566 43.4124C23.9511 43.1949 24.0288 43.0324 24.091 42.9236C24.1532 42.8148 24.2071 42.7479 24.2501 42.7216C24.2932 42.6953 24.3434 42.6821 24.3996 42.6821C24.4559 42.6821 24.4977 42.6881 24.5276 42.6989C24.5575 42.7096 24.5707 42.7359 24.5695 42.7777C24.5671 42.8196 24.5516 42.8817 24.5217 42.9642C24.4918 43.0467 24.4463 43.1602 24.3853 43.3061C24.3243 43.4519 24.28 43.5654 24.2513 43.6479C24.2226 43.7304 24.2118 43.7926 24.2178 43.8344C24.2238 43.8762 24.2489 43.9025 24.2919 43.9133C24.335 43.924 24.3984 43.93 24.4833 43.93C24.5683 43.93 24.6353 43.9252 24.6879 43.9133C24.7405 43.9025 24.7872 43.8762 24.8278 43.8344C24.8685 43.7926 24.9092 43.7304 24.9498 43.6479C24.9905 43.5654 25.0408 43.4519 25.1018 43.3061C25.1628 43.1602 25.2118 43.0467 25.2489 42.9642C25.286 42.8817 25.3219 42.8196 25.3566 42.7777C25.3913 42.7359 25.4272 42.7096 25.4642 42.6989C25.5013 42.6881 25.548 42.6821 25.6042 42.6821C25.6604 42.6821 25.6998 42.6953 25.7226 42.7216C25.7453 42.7479 25.7417 42.8148 25.7118 42.9236C25.6819 43.0324 25.6245 43.1949 25.5372 43.4124C25.4511 43.63 25.3278 43.9288 25.1688 44.3101C25.0097 44.6914 24.8817 44.9914 24.786 45.2078C24.6903 45.4253 24.6126 45.5879 24.5516 45.6966C24.4906 45.8054 24.4379 45.8723 24.3925 45.8986C24.347 45.9249 24.2968 45.9381 24.2405 45.9381C24.1843 45.9381 24.1424 45.9333 24.1149 45.9214C24.0874 45.9106 24.0742 45.8831 24.0754 45.8377C24.0778 45.7923 24.0958 45.7241 24.1305 45.6333C24.1652 45.5424 24.2166 45.4169 24.2824 45.2592C24.3482 45.1014 24.3973 44.9759 24.4296 44.885C24.4618 44.7942 24.475 44.7249 24.4702 44.6806C24.4654 44.6352 24.4415 44.6077 24.3984 44.597C24.3554 44.5862 24.2908 44.5802 24.207 44.5802C24.1233 44.5802 24.0551 44.585 24.0025 44.597C23.9498 44.6077 23.902 44.6364 23.8601 44.6806C23.8183 44.7261 23.7752 44.7942 23.7309 44.885C23.6867 44.9771 23.6317 45.1014 23.5647 45.2592C23.4989 45.4169 23.4439 45.5424 23.4008 45.6333C23.3578 45.7253 23.3195 45.7935 23.2848 45.8377C23.2501 45.8831 23.2142 45.9106 23.176 45.9214C23.1365 45.9321 23.0898 45.9381 23.0336 45.9381C22.9773 45.9381 22.9391 45.9249 22.9176 45.8986C22.896 45.8723 22.8996 45.8042 22.9283 45.6966C22.957 45.5879 23.0144 45.4253 23.103 45.2078C23.1903 44.9914 23.3147 44.6914 23.4738 44.3101H23.4762Z" fill="#24E1E4"/>
<path d="M26.3769 42.6821C26.4331 42.6821 26.4726 42.6953 26.4953 42.7216C26.518 42.7479 26.5144 42.8148 26.4857 42.9236C26.4558 43.0324 26.3984 43.1949 26.3111 43.4124C26.225 43.63 26.1017 43.9288 25.9427 44.3101C25.7836 44.6914 25.6555 44.9914 25.5599 45.2078C25.4642 45.4253 25.3864 45.5879 25.3254 45.6966C25.2644 45.8054 25.2118 45.8723 25.1663 45.8986C25.1209 45.9249 25.0706 45.9381 25.0144 45.9381C24.9582 45.9381 24.9199 45.9249 24.8984 45.8986C24.8769 45.8723 24.8805 45.8042 24.908 45.6966C24.9367 45.5879 24.9941 45.4253 25.0826 45.2078C25.1699 44.9914 25.2943 44.6914 25.4534 44.3101C25.6125 43.9288 25.7393 43.63 25.8338 43.4124C25.9271 43.1949 26.006 43.0324 26.0682 42.9236C26.1304 42.8148 26.1843 42.7479 26.2273 42.7216C26.2704 42.6953 26.3206 42.6821 26.3769 42.6821Z" fill="#24E1E4"/>
<path d="M26.1795 44.3106C26.2848 44.0596 26.4068 43.8301 26.5443 43.6221C26.6819 43.4142 26.829 43.2373 26.9833 43.089C27.1376 42.942 27.2979 42.8273 27.4642 42.7472C27.6305 42.6671 27.7931 42.6265 27.9546 42.6265C28.0443 42.6265 28.1269 42.6384 28.1999 42.6635C28.2513 42.6827 28.2884 42.7018 28.3123 42.7221C28.3362 42.7424 28.3494 42.7675 28.353 42.7986C28.3554 42.8297 28.3482 42.8703 28.3302 42.9193C28.3123 42.9683 28.2872 43.0329 28.2549 43.1106C28.213 43.2098 28.1807 43.2791 28.1568 43.3173C28.1329 43.3568 28.0993 43.3759 28.0551 43.3759C28.03 43.3759 27.9941 43.364 27.9451 43.3389L27.9188 43.3245C27.8877 43.309 27.8554 43.297 27.8219 43.2899C27.7884 43.2827 27.7525 43.2779 27.7154 43.2779C27.6257 43.2779 27.5336 43.303 27.4391 43.3544C27.3446 43.4058 27.2537 43.4763 27.164 43.566C27.0755 43.6556 26.9905 43.7644 26.9092 43.8923C26.8279 44.019 26.7561 44.1588 26.6915 44.3106C26.6269 44.4624 26.5838 44.6023 26.5587 44.729C26.5336 44.8557 26.5276 44.9645 26.5408 45.0541C26.5539 45.1437 26.5874 45.2143 26.6388 45.2657C26.6903 45.3171 26.7609 45.3422 26.8518 45.3422C26.8889 45.3422 26.9283 45.3386 26.9678 45.3302C27.0085 45.323 27.0503 45.3111 27.0946 45.2956L27.1328 45.2812C27.2022 45.2561 27.2489 45.2441 27.274 45.2441C27.3171 45.2441 27.335 45.2633 27.3266 45.3027C27.3183 45.3422 27.2932 45.4103 27.2513 45.5095C27.219 45.5872 27.1903 45.6506 27.1664 45.7008C27.1424 45.7498 27.1161 45.7904 27.0886 45.8215C27.0599 45.8526 27.0252 45.8776 26.9845 45.898C26.9439 45.9183 26.89 45.9374 26.823 45.9566C26.7286 45.9817 26.6364 45.9936 26.5467 45.9936C26.3852 45.9936 26.2561 45.953 26.1568 45.8729C26.0587 45.7928 25.9941 45.678 25.9618 45.531C25.9307 45.384 25.9319 45.2059 25.9678 44.9979C26.0037 44.7899 26.0742 44.5605 26.1783 44.3094L26.1795 44.3106Z" fill="#24E1E4"/>
<path d="M4.09329 41.5312H3.50116V47.2089H4.09329V41.5312Z" fill="#24E1E4"/>
<path d="M5.27031 41.5312H3.50116V42.0345H5.27031V41.5312Z" fill="#24E1E4"/>
<path d="M1.7691 44.1179H0V44.6211H1.7691V44.1179Z" fill="#24E1E4"/>
<path d="M1.13635 43.4861H0.632706V45.2539H1.13635V43.4861Z" fill="#24E1E4"/>
<path d="M5.27031 46.7043H3.50116V47.2076H5.27031V46.7043Z" fill="#24E1E4"/>
<path d="M30.8626 41.531H30.2705V47.2086H30.8626V41.531Z" fill="#24E1E4"/>
<path d="M30.8626 46.7041H29.0934V47.2073H30.8626V46.7041Z" fill="#24E1E4"/>
<path d="M34.3638 44.1177H32.5947V44.6209H34.3638V44.1177Z" fill="#24E1E4"/>
<path d="M33.731 43.4858H33.2274V45.2537H33.731V43.4858Z" fill="#24E1E4"/>
<path d="M30.8626 41.5312H29.0934V42.0345H30.8626V41.5312Z" fill="#24E1E4"/>
</svg>
