<svg width="74" height="74" viewBox="0 0 74 74" fill="none" xmlns="http://www.w3.org/2000/svg">
<path d="M39.3482 50.2166L38.5161 48.6283C38.1727 47.9683 37.3581 47.7131 36.6977 48.0607L27.5569 52.8389C27.2398 53.0061 26.8699 53.0369 26.5309 52.9313L14.5192 49.1739C14.1802 49.0683 13.8103 49.0991 13.4933 49.2663L11.1905 50.4718C10.1249 51.0262 10.2658 52.5925 11.4106 52.9489L21.2031 56.0112C21.912 56.2312 22.3083 56.9879 22.0881 57.6963L18.4864 69.1886C18.1298 70.3326 19.3319 71.3401 20.3974 70.7858L23.0437 69.3998C23.3519 69.237 23.5853 68.9642 23.6953 68.6387L27.0989 58.5587C27.209 58.2287 27.4423 57.9559 27.7506 57.7975L38.7759 52.0338C39.4364 51.6906 39.6918 50.8766 39.3439 50.2166H39.3482Z" fill="url(#paint0_linear_111_818)"/>
<path d="M28.9041 48.154L29.4413 46.4425C29.6614 45.7341 29.2697 44.9774 28.5564 44.7574L18.711 41.6775C18.372 41.5719 18.0857 41.3343 17.9184 41.0176L12.0843 29.8728C11.917 29.556 11.6352 29.3184 11.2917 29.2129L8.81286 28.4385C7.66805 28.0821 6.65969 29.2832 7.21448 30.348L11.9698 39.4336C12.3133 40.0936 12.0579 40.9076 11.4018 41.2507L0.724321 46.8341C-0.341228 47.3885 -0.200329 48.9548 0.944475 49.3112L3.79767 50.2044C4.1279 50.31 4.48897 50.2791 4.79718 50.1252L14.3388 45.4042C14.6514 45.2502 15.008 45.2238 15.3383 45.325L27.2134 49.0384C27.9223 49.2584 28.6796 48.8668 28.8997 48.154H28.9041Z" fill="url(#paint1_linear_111_818)"/>
<path d="M22.9776 39.3191L24.5671 38.4875C25.2276 38.1444 25.483 37.3304 25.1351 36.6704L20.3533 27.5364C20.186 27.2196 20.1552 26.85 20.2609 26.5112L24.0211 14.5085C24.1268 14.1698 24.096 13.8002 23.9287 13.4834L22.7223 11.1823C22.1675 10.1175 20.5999 10.2583 20.2433 11.4023L17.1787 21.1875C16.9586 21.8958 16.2012 22.2918 15.4923 22.0718L3.99148 18.4728C2.84667 18.1164 1.83831 19.3175 2.3931 20.3823L3.78014 23.0266C3.94305 23.3346 4.21603 23.5678 4.54186 23.6777L14.6293 27.0788C14.9595 27.1888 15.2325 27.422 15.391 27.73L21.1591 38.7471C21.5026 39.4071 22.3171 39.6623 22.9776 39.3147V39.3191Z" fill="url(#paint2_linear_111_818)"/>
<path d="M25.0427 28.8826L26.7555 29.4194C27.4644 29.6394 28.2218 29.2478 28.4419 28.535L31.5241 18.697C31.6298 18.3582 31.8675 18.0722 32.1846 17.9051L43.3375 12.0753C43.6546 11.9081 43.8923 11.6265 43.998 11.2833L44.773 8.80624C45.1296 7.66229 43.9276 6.65473 42.8621 7.2091L33.7696 11.9609C33.1092 12.3041 32.2946 12.0489 31.9512 11.3933L26.3636 0.723781C25.8088 -0.340974 24.2413 -0.20018 23.8847 0.943772L22.9909 3.79484C22.8852 4.12483 22.916 4.48562 23.0701 4.79361L27.7946 14.328C27.9487 14.6404 27.9752 14.9968 27.8739 15.3268L24.1576 27.1931C23.9375 27.9014 24.3294 28.6582 25.0427 28.8782V28.8826Z" fill="url(#paint3_linear_111_818)"/>
<path d="M33.8885 22.9607L34.7207 24.549C35.0641 25.209 35.8787 25.4642 36.5391 25.1166L45.68 20.3384C45.997 20.1712 46.3669 20.1404 46.7059 20.246L58.7176 24.0035C59.0566 24.109 59.4264 24.0782 59.7434 23.911L62.0462 22.7055C63.1118 22.1511 62.9709 20.5848 61.8261 20.2284L52.0336 17.1661C51.3247 16.9461 50.9284 16.1894 51.1486 15.481L54.7504 3.98869C55.107 2.84474 53.9049 1.83719 52.8394 2.39157L50.1931 3.77751C49.8849 3.9403 49.6516 4.21308 49.5415 4.53867L46.1379 14.6186C46.0278 14.9486 45.7945 15.2214 45.4862 15.3798L34.4609 21.1436C33.8004 21.4868 33.545 22.3007 33.8929 22.9607H33.8885Z" fill="url(#paint4_linear_111_818)"/>
<path d="M44.3282 25.0245L43.7911 26.736C43.5709 27.4444 43.9628 28.2012 44.6761 28.4212L54.5215 31.501C54.8605 31.6066 55.1466 31.8442 55.3139 32.161L61.148 43.3057C61.3153 43.6225 61.5972 43.8601 61.9406 43.9657L64.4196 44.7401C65.5644 45.0965 66.5727 43.8953 66.0179 42.8306L61.2625 33.7449C60.9191 33.085 61.1745 32.271 61.8305 31.9278L72.508 26.3445C73.5736 25.7901 73.4327 24.2238 72.2879 23.8674L69.4347 22.9742C69.1044 22.8686 68.7434 22.8994 68.4352 23.0534L58.8937 27.7744C58.5811 27.9284 58.2244 27.9548 57.8942 27.8536L46.0191 24.1402C45.3102 23.9202 44.5528 24.3117 44.3326 25.0245H44.3282Z" fill="url(#paint5_linear_111_818)"/>
<path d="M50.2547 33.859L48.6653 34.6906C48.0048 35.0338 47.7494 35.8478 48.0973 36.5077L52.8791 45.6417C53.0464 45.9585 53.0772 46.3281 52.9715 46.6669L49.2113 58.6696C49.1056 59.0084 49.1364 59.378 49.3037 59.6947L50.5102 61.9959C51.0649 63.0606 52.6325 62.9198 52.9892 61.7759L56.0537 51.9907C56.2738 51.2823 57.0311 50.8863 57.74 51.1063L69.2409 54.7054C70.3857 55.0618 71.394 53.8606 70.8392 52.7958L69.4523 50.1515C69.2894 49.8436 69.0164 49.6104 68.6905 49.5004L58.6031 46.0993C58.2729 45.9893 57.9998 45.7562 57.8413 45.4482L52.0733 34.431C51.7298 33.771 50.9152 33.5159 50.2547 33.8635V33.859Z" fill="url(#paint6_linear_111_818)"/>
<path d="M48.1941 44.2947L46.4814 43.7579C45.7725 43.5379 45.0151 43.9295 44.795 44.6423L41.7128 54.4803C41.6071 54.8191 41.3694 55.105 41.0523 55.2722L29.8993 61.102C29.5822 61.2692 29.3445 61.5508 29.2388 61.894L28.4639 64.3711C28.1072 65.515 29.3093 66.5226 30.3748 65.9682L39.4672 61.2164C40.1276 60.8732 40.9423 61.1284 41.2857 61.784L46.8732 72.4535C47.428 73.5183 48.9956 73.3775 49.3522 72.2335L50.246 69.3825C50.3516 69.0525 50.3208 68.6917 50.1667 68.3837L45.4422 58.8493C45.2881 58.5369 45.2617 58.1805 45.363 57.8505L49.0792 45.9842C49.2993 45.2759 48.9074 44.5191 48.1941 44.2991V44.2947Z" fill="url(#paint7_linear_111_818)"/>
<defs>
<linearGradient id="paint0_linear_111_818" x1="24.9828" y1="47.9053" x2="33.5402" y2="76.2081" gradientUnits="userSpaceOnUse">
<stop stop-color="#50B2B2"/>
<stop offset="0.740385" stop-color="#224C4C"/>
</linearGradient>
<linearGradient id="paint1_linear_111_818" x1="14.7513" y1="28.3745" x2="22.4368" y2="55.5559" gradientUnits="userSpaceOnUse">
<stop stop-color="#50B2B2"/>
<stop offset="0.740385" stop-color="#224C4C"/>
</linearGradient>
<linearGradient id="paint2_linear_111_818" x1="13.7635" y1="10.4585" x2="28.9298" y2="42.0872" gradientUnits="userSpaceOnUse">
<stop stop-color="#50B2B2"/>
<stop offset="0.740385" stop-color="#224C4C"/>
</linearGradient>
<linearGradient id="paint3_linear_111_818" x1="33.8828" y1="0" x2="49.9322" y2="31.3005" gradientUnits="userSpaceOnUse">
<stop stop-color="#50B2B2"/>
<stop offset="0.740385" stop-color="#224C4C"/>
</linearGradient>
<linearGradient id="paint4_linear_111_818" x1="48.2539" y1="2.23486" x2="56.8113" y2="30.5376" gradientUnits="userSpaceOnUse">
<stop stop-color="#50B2B2"/>
<stop offset="0.740385" stop-color="#224C4C"/>
</linearGradient>
<linearGradient id="paint5_linear_111_818" x1="58.4811" y1="22.9121" x2="66.1667" y2="50.0935" gradientUnits="userSpaceOnUse">
<stop stop-color="#50B2B2"/>
<stop offset="0.740385" stop-color="#224C4C"/>
</linearGradient>
<linearGradient id="paint6_linear_111_818" x1="59.4689" y1="33.708" x2="74.6352" y2="65.3367" gradientUnits="userSpaceOnUse">
<stop stop-color="#50B2B2"/>
<stop offset="0.740385" stop-color="#224C4C"/>
</linearGradient>
<linearGradient id="paint7_linear_111_818" x1="39.354" y1="43.6968" x2="55.4034" y2="74.9973" gradientUnits="userSpaceOnUse">
<stop stop-color="#50B2B2"/>
<stop offset="0.740385" stop-color="#224C4C"/>
</linearGradient>
</defs>
</svg>
