<svg width="729" height="508" viewBox="0 0 729 508" fill="none" xmlns="http://www.w3.org/2000/svg">
<path d="M364.069 486.181C363.975 486.181 363.882 486.153 363.797 486.106C275.319 435.876 203.524 290.784 203.758 162.691C203.758 162.419 203.964 162.185 204.236 162.148C384.481 137.931 603.05 159.059 691.463 209.261C691.632 209.354 691.735 209.541 691.735 209.738C691.5 337.925 544.539 461.937 364.134 486.181C364.106 486.181 364.088 486.181 364.06 486.181H364.069ZM204.854 163.168C204.789 290.728 276.181 434.987 364.181 485.067C543.818 460.851 690.171 337.55 690.648 210.047C602.301 160.107 384.612 139.092 204.854 163.159V163.168Z" fill="url(#paint0_linear_47_180)"/>
<path d="M529.016 432.347C528.923 432.347 528.829 432.328 528.744 432.272C484.248 407.007 374.158 396.383 283.346 408.589C283.047 408.627 282.775 408.421 282.728 408.121C282.691 407.822 282.897 407.55 283.196 407.503C374.223 395.269 484.613 405.959 529.278 431.317C529.541 431.467 529.634 431.804 529.485 432.066C529.382 432.244 529.194 432.347 529.007 432.347H529.016Z" fill="url(#paint1_linear_47_180)"/>
<path d="M646.376 333.366C646.282 333.366 646.188 333.347 646.104 333.291C569.925 290.044 381.483 271.847 226.034 292.731C225.763 292.768 225.463 292.562 225.417 292.263C225.379 291.963 225.585 291.692 225.885 291.645C381.53 270.733 570.282 288.986 646.638 332.336C646.901 332.486 646.994 332.823 646.844 333.085C646.741 333.263 646.554 333.366 646.367 333.366H646.376Z" fill="url(#paint2_linear_47_180)"/>
<path d="M364.07 486.181C363.854 486.181 363.648 486.05 363.564 485.844C363.451 485.563 363.583 485.245 363.854 485.132C474.637 439.002 564.952 297.552 565.186 169.833C565.186 169.533 565.43 169.29 565.73 169.29C566.029 169.29 566.273 169.533 566.273 169.833C566.029 297.963 475.415 439.854 364.266 486.143C364.201 486.171 364.126 486.181 364.06 486.181H364.07Z" fill="url(#paint3_linear_47_180)"/>
<path d="M364.069 486.181C364.069 486.181 363.975 486.181 363.929 486.162C363.638 486.087 363.46 485.788 363.544 485.498C378.186 430.016 390.29 280.833 390.524 152.955C390.524 152.656 390.767 152.413 391.067 152.413C391.367 152.413 391.61 152.656 391.61 152.955C391.376 280.917 379.254 430.222 364.594 485.778C364.528 486.022 364.303 486.181 364.069 486.181Z" fill="url(#paint4_linear_47_180)"/>
<path d="M303.534 490.281C220.676 490.281 146.006 466.654 96.6096 423.398C57.7802 389.4 37.2551 345.994 37.2551 297.851C9.88247 282.247 -2.8108 264.864 0.542859 247.574C7.6811 210.805 85.7242 178.08 204.226 162.148C204.386 162.129 204.545 162.176 204.657 162.279C204.779 162.382 204.844 162.532 204.844 162.691C204.601 290.438 276.152 435.099 364.331 485.161C364.537 485.273 364.64 485.507 364.593 485.741C364.546 485.975 364.359 486.144 364.125 486.181C343.619 488.933 323.328 490.29 303.525 490.29L303.534 490.281ZM203.758 163.309C86.0801 179.203 8.64589 211.545 1.62006 247.771C-1.64929 264.62 10.9599 281.657 38.0702 297.056C38.2388 297.149 38.3419 297.336 38.3419 297.533C38.2576 345.479 58.6512 388.717 97.3214 422.574C157.996 475.697 256.986 499.09 362.392 485.301C274.7 434.416 203.749 290.578 203.758 163.309Z" fill="url(#paint5_linear_47_180)"/>
<path d="M199.234 476.661C199.14 476.661 199.047 476.642 198.962 476.586C184.939 468.629 178.438 459.727 180.161 450.844C183.787 432.169 223.262 415.563 283.197 407.513C283.488 407.466 283.769 407.681 283.816 407.981C283.853 408.28 283.647 408.552 283.347 408.599C223.899 416.583 184.77 432.852 181.239 451.059C179.618 459.437 185.932 467.937 199.506 475.65C199.768 475.8 199.861 476.137 199.712 476.399C199.608 476.577 199.421 476.68 199.234 476.68V476.661Z" fill="url(#paint6_linear_47_180)"/>
<path d="M82.1834 409.179C82.0897 409.179 81.996 409.16 81.9117 409.104C58.0801 395.578 47.0262 380.488 49.9396 365.474C56.1036 333.694 123.524 305.405 225.885 291.654C226.176 291.608 226.456 291.823 226.503 292.122C226.541 292.422 226.335 292.693 226.035 292.74C124.16 306.435 57.0967 334.377 51.0264 365.689C48.2161 380.198 59.0828 394.885 82.4647 408.159C82.727 408.309 82.8204 408.646 82.6706 408.908C82.5675 409.085 82.3804 409.188 82.193 409.188L82.1834 409.179Z" fill="url(#paint7_linear_47_180)"/>
<path d="M364.069 486.181C364.069 486.181 364.003 486.181 363.966 486.181C196.526 455.056 60.497 325.447 60.7406 197.269C60.7406 196.97 60.9837 196.727 61.2835 196.727C61.5833 196.727 61.8269 196.97 61.8269 197.269C61.5927 324.941 197.219 454.064 364.163 485.104C364.462 485.161 364.659 485.441 364.603 485.741C364.556 486.003 364.322 486.19 364.069 486.19V486.181Z" fill="url(#paint8_linear_47_180)"/>
<path d="M364.069 486.181H364.06C267.01 484.047 175.805 457.874 107.252 412.484C38.6238 367.046 0.890232 307.792 1.01201 245.637C1.01201 245.337 1.25565 245.094 1.55542 245.094C1.85519 245.094 2.09882 245.337 2.09882 245.637C1.86463 373.271 164.245 480.686 364.079 485.086C364.378 485.086 364.622 485.339 364.613 485.648C364.613 485.947 364.36 486.181 364.069 486.181Z" fill="url(#paint9_linear_47_180)"/>
<path d="M422.514 503.527C404.069 503.527 384.331 497.742 363.956 486.2C257.716 500.437 157.791 476.961 96.6097 423.398C57.6866 389.325 37.1615 345.797 37.2552 297.533C37.2552 297.336 37.3583 297.159 37.5269 297.065C37.6955 296.971 37.9017 296.962 38.0703 297.065C126.315 347.164 344.574 368.235 524.613 344.047C524.773 344.028 524.932 344.075 525.044 344.178C525.166 344.281 525.232 344.431 525.232 344.59C525.101 416.013 502.759 469.903 463.929 492.434C451.161 499.838 437.24 503.536 422.514 503.536V503.527ZM364.069 485.086C364.162 485.086 364.256 485.114 364.34 485.161C400.697 505.801 434.945 507.992 463.386 491.489C501.756 469.219 523.883 415.928 524.145 345.207C344.574 369.218 127.186 348.287 38.3512 298.478C38.5291 346.05 58.904 388.95 97.3306 422.593C158.305 475.978 257.988 499.342 363.994 485.105C364.022 485.105 364.041 485.105 364.069 485.105V485.086Z" fill="url(#paint10_linear_47_180)"/>
<path d="M365.587 505.464C297.155 505.464 231.075 494.821 198.962 476.586C198.7 476.436 198.606 476.099 198.756 475.837C198.906 475.575 199.243 475.482 199.506 475.631C244.003 500.896 354.083 511.521 444.904 499.314C445.194 499.267 445.475 499.483 445.522 499.782C445.56 500.082 445.354 500.353 445.054 500.4C419.47 503.835 392.351 505.464 365.596 505.464H365.587Z" fill="url(#paint11_linear_47_180)"/>
<path d="M366.758 458.464C249.764 458.464 136.807 440.266 81.9215 409.113C81.6592 408.964 81.5654 408.627 81.7152 408.365C81.8651 408.102 82.2026 408.009 82.4649 408.159C158.644 451.405 347.095 469.603 502.534 448.719C502.834 448.672 503.106 448.887 503.153 449.187C503.19 449.487 502.984 449.758 502.684 449.805C458.918 455.683 412.529 458.473 366.767 458.473L366.758 458.464Z" fill="url(#paint12_linear_47_180)"/>
<path d="M295.647 500.924C270.063 500.924 246.428 494.128 226.156 480.602C206.269 467.328 190.634 448.373 179.683 424.269C168.357 399.341 162.652 370.126 162.708 337.438C162.708 337.138 162.952 336.895 163.252 336.895C163.552 336.895 163.795 337.138 163.795 337.438C163.673 401.99 186.034 452.51 226.747 479.684C263.946 504.519 312.64 506.447 363.844 485.123C364.125 485.011 364.444 485.142 364.556 485.413C364.668 485.694 364.537 486.012 364.265 486.125C340.565 495.991 317.399 500.915 295.637 500.915L295.647 500.924Z" fill="url(#paint13_linear_47_180)"/>
<path d="M353.54 507.149C353.418 507.149 353.296 507.149 353.165 507.121C343.254 505.829 337.212 447.277 337.38 354.315C337.38 354.016 337.624 353.772 337.924 353.772C338.223 353.772 338.467 354.016 338.467 354.315C338.27 457.761 345.774 505.061 353.296 506.035C355.048 506.26 358.673 503.901 363.526 485.488C363.601 485.198 363.891 485.02 364.191 485.095C364.481 485.17 364.659 485.469 364.575 485.76C360.781 500.128 357.165 507.14 353.521 507.14L353.54 507.149Z" fill="url(#paint14_linear_47_180)"/>
<path d="M422.515 503.527C404.014 503.527 384.229 497.704 363.798 486.106C363.591 485.994 363.489 485.76 363.535 485.526C363.582 485.292 363.77 485.123 364.004 485.086C414.468 478.309 462.29 463.715 505.007 443.393C517.392 417.22 524.08 383.521 524.155 344.571C524.155 344.299 524.361 344.065 524.633 344.028C579.069 336.708 624.924 325.877 659.229 312.763C679.313 280.084 690.592 245.056 690.658 209.719C690.658 209.523 690.761 209.345 690.929 209.251C691.098 209.158 691.304 209.148 691.473 209.251C719.033 224.903 731.82 242.342 728.457 259.687C724.616 279.485 700.203 298.123 659.978 313.587C627.762 365.839 573.139 412.109 505.822 444.198C495.546 465.784 481.41 482.278 463.939 492.415C451.171 499.82 437.25 503.517 422.524 503.517L422.515 503.527ZM365.755 485.947C401.587 505.848 435.311 507.767 463.386 491.47C480.342 481.632 494.131 465.728 504.258 444.937C462.206 464.792 415.245 479.123 365.755 485.938V485.947ZM525.242 345.048C525.12 383.371 518.591 416.612 506.553 442.653C572.643 410.92 626.329 365.502 658.33 314.214C624.156 327.141 578.853 337.812 525.242 345.048ZM691.744 210.665C691.482 245.45 680.447 279.907 660.868 312.136C699.951 296.953 723.642 278.765 727.38 259.481C730.611 242.8 718.293 225.942 691.735 210.665H691.744Z" fill="url(#paint15_linear_47_180)"/>
<path d="M444.978 500.4C444.707 500.4 444.473 500.203 444.435 499.923C444.398 499.623 444.604 499.352 444.903 499.305C504.351 491.32 543.481 475.051 547.012 456.844C548.642 448.466 542.319 439.967 528.745 432.253C528.483 432.104 528.389 431.767 528.539 431.505C528.689 431.242 529.026 431.149 529.288 431.299C543.312 439.255 549.813 448.157 548.089 457.041C544.464 475.716 504.989 492.322 445.054 500.372C445.025 500.372 445.007 500.372 444.978 500.372V500.4Z" fill="url(#paint16_linear_47_180)"/>
<path d="M502.599 449.805C502.328 449.805 502.094 449.608 502.056 449.327C502.019 449.028 502.225 448.756 502.524 448.709C604.399 435.015 671.463 407.073 677.533 375.761C680.353 361.252 669.477 346.564 646.095 333.291C645.833 333.141 645.739 332.804 645.889 332.542C646.039 332.28 646.376 332.186 646.639 332.336C670.47 345.862 681.524 360.952 678.611 375.967C672.447 407.747 605.027 436.035 502.675 449.786C502.646 449.786 502.628 449.786 502.599 449.786V449.805Z" fill="url(#paint17_linear_47_180)"/>
<path d="M435.939 493.024C412.604 493.024 388.566 490.739 363.966 486.162C363.667 486.106 363.47 485.825 363.526 485.525C363.582 485.226 363.873 485.039 364.163 485.086C460.155 502.927 548.399 485.647 606.283 437.664C646.011 404.732 667.061 360.578 667.154 309.992C667.154 309.692 667.398 309.449 667.698 309.449C667.997 309.449 668.241 309.692 668.241 309.992C668.147 360.915 646.957 405.36 606.966 438.506C579.172 461.543 542.806 478.149 501.813 486.527C480.633 490.852 458.618 493.014 435.93 493.014L435.939 493.024Z" fill="url(#paint18_linear_47_180)"/>
<path d="M376.8 486.321C372.556 486.321 368.322 486.274 364.06 486.181C363.76 486.181 363.516 485.928 363.526 485.619C363.526 485.32 363.779 485.086 364.069 485.086H364.078C488.398 487.828 602.704 450.338 669.87 384.813C707.098 348.493 726.817 305.901 726.901 261.634C726.901 261.335 727.145 261.091 727.445 261.091C727.745 261.091 727.988 261.335 727.988 261.634C727.904 306.201 708.072 349.064 670.629 385.599C605.57 449.075 496.426 486.331 376.8 486.331V486.321Z" fill="url(#paint19_linear_47_180)"/>
<path d="M691.192 210.281C691.098 210.281 691.005 210.253 690.92 210.206C602.676 160.107 384.416 139.036 204.377 163.224C204.217 163.252 204.058 163.196 203.946 163.093C203.824 162.99 203.759 162.84 203.759 162.681C203.89 91.2489 226.232 37.3682 265.061 14.8367C293.811 -1.84421 328.387 0.308767 365.034 21.0616C471.274 6.82388 571.2 30.3007 632.381 83.8632C671.304 117.936 691.819 161.464 691.735 209.728C691.735 209.925 691.632 210.103 691.464 210.196C691.379 210.243 691.286 210.271 691.192 210.271V210.281ZM361.634 152.113C496.539 152.113 626.788 172.997 690.639 208.802C690.461 161.23 670.086 118.33 631.66 84.6963C570.685 31.3117 470.993 7.93782 364.997 22.185C364.875 22.2037 364.753 22.1849 364.65 22.1194C328.294 1.47887 294.036 -0.711563 265.605 15.7915C227.234 38.0608 205.107 91.3519 204.845 162.073C255.347 155.324 308.846 152.122 361.634 152.122V152.113Z" fill="url(#paint20_linear_47_180)"/>
<path d="M646.806 99.1775C646.713 99.1775 646.619 99.1588 646.535 99.1026C570.356 55.8557 381.914 37.6584 226.465 58.5423C226.184 58.5797 225.894 58.3738 225.847 58.0742C225.81 57.7747 226.016 57.5032 226.316 57.4564C381.961 36.5444 570.712 54.798 647.069 98.1478C647.331 98.2976 647.425 98.6346 647.275 98.8967C647.172 99.0745 646.985 99.1775 646.797 99.1775H646.806Z" fill="url(#paint21_linear_47_180)"/>
<path d="M529.756 31.6957C529.663 31.6957 529.569 31.677 529.485 31.6208C484.997 6.36538 374.907 -4.25911 284.087 7.938C283.787 7.97544 283.515 7.76951 283.468 7.46996C283.431 7.17041 283.637 6.89895 283.937 6.85214C374.954 -5.38241 485.353 5.29825 530.019 30.666C530.281 30.8158 530.375 31.1528 530.225 31.4149C530.122 31.5927 529.934 31.6957 529.747 31.6957H529.756Z" fill="url(#paint22_linear_47_180)"/>
<path d="M565.738 170.366C565.439 170.366 565.195 170.123 565.195 169.824C565.317 105.272 542.956 54.7513 502.244 27.5769C465.044 2.74276 416.351 0.814414 365.146 22.1383C364.865 22.2506 364.547 22.1196 364.435 21.8481C364.322 21.5673 364.453 21.249 364.725 21.1367C416.285 -0.336943 465.335 1.63817 502.853 26.6783C522.74 39.9519 538.375 58.9075 549.326 83.0116C560.652 107.939 566.357 137.154 566.301 169.842C566.301 170.142 566.057 170.385 565.757 170.385L565.738 170.366Z" fill="url(#paint23_linear_47_180)"/>
<path d="M391.067 153.489C390.767 153.489 390.524 153.246 390.524 152.946C390.711 49.4999 383.217 2.19983 375.694 1.22631C373.952 1.02037 370.327 3.36058 365.465 21.7733C365.39 22.0634 365.09 22.2413 364.799 22.1664C364.509 22.0915 364.331 21.792 364.416 21.5018C368.341 6.63685 372.069 -0.336935 375.844 0.149826C385.755 1.44162 391.797 59.9934 391.629 152.955C391.629 153.255 391.385 153.498 391.085 153.498L391.067 153.489Z" fill="url(#paint24_linear_47_180)"/>
<path d="M37.7989 298.076C37.7053 298.076 37.6115 298.048 37.5272 298.001C9.96726 282.35 -2.81973 264.91 0.543297 247.565C4.38408 227.767 28.7966 209.129 69.0218 193.665C101.238 141.413 155.861 95.143 223.178 63.0542C233.454 41.4682 247.59 24.9745 265.061 14.8368C293.858 -1.87223 328.481 0.308831 365.203 21.1553C365.409 21.2676 365.512 21.5017 365.465 21.7357C365.418 21.9697 365.231 22.1382 364.997 22.1756C314.542 28.9529 266.71 43.5463 223.993 63.8686C211.618 90.0414 204.92 123.74 204.845 162.691C204.845 162.962 204.639 163.196 204.367 163.233C149.931 170.554 104.066 181.384 69.771 194.498C49.6865 227.177 38.4079 262.205 38.3423 297.542C38.3423 297.739 38.2393 297.917 38.0706 298.01C37.9863 298.057 37.8926 298.085 37.7989 298.085V298.076ZM68.1317 195.116C29.0493 210.299 5.35824 228.488 1.6205 247.771C-1.61138 264.452 10.7073 281.31 37.2555 296.587C37.5178 261.803 48.5624 227.345 68.1317 195.116ZM222.447 64.5988C156.357 96.3318 102.671 141.75 70.6703 193.038C104.844 180.111 150.147 169.44 203.759 162.204C203.88 123.881 210.409 90.6405 222.447 64.5988ZM306.476 4.83009C291.928 4.83009 278.195 8.47145 265.605 15.7822C248.649 25.6204 234.859 41.5244 224.733 62.3147C266.785 42.4605 313.736 28.1291 363.235 21.3145C343.479 10.3436 324.359 4.83946 306.476 4.83946V4.83009Z" fill="url(#paint25_linear_47_180)"/>
<path d="M82.6238 174.991C82.5301 174.991 82.4364 174.972 82.3521 174.916C58.5205 161.389 47.4666 146.3 50.38 131.285C56.544 99.5051 123.964 71.2168 226.325 57.4658C226.625 57.419 226.897 57.6343 226.944 57.9339C226.981 58.2334 226.775 58.5049 226.475 58.5517C124.601 72.2465 57.5366 100.188 51.4663 131.5C48.656 146.01 59.5227 160.697 82.9046 173.97C83.1669 174.12 83.2608 174.457 83.1109 174.719C83.0079 174.897 82.8203 175 82.6329 175L82.6238 174.991Z" fill="url(#paint26_linear_47_180)"/>
<path d="M199.974 76.0096C199.88 76.0096 199.787 75.9909 199.702 75.9347C185.679 67.978 179.178 59.0759 180.901 50.1925C184.527 31.5178 224.002 14.9117 283.937 6.86144C284.228 6.81464 284.509 7.02994 284.556 7.32948C284.593 7.62903 284.387 7.90049 284.087 7.9473C224.639 15.9321 185.51 32.2011 181.979 50.4078C180.358 58.7858 186.672 67.2853 200.246 74.9986C200.508 75.1484 200.602 75.4854 200.452 75.7475C200.349 75.9254 200.161 76.0283 199.974 76.0283V76.0096Z" fill="url(#paint27_linear_47_180)"/>
<path d="M61.2842 197.803C60.9844 197.803 60.7412 197.56 60.7412 197.26C60.8349 146.337 82.0245 101.892 122.015 68.7457C149.81 45.7087 186.175 29.1027 227.169 20.7248C270.129 11.9537 316.509 12.0754 365.034 21.0899C365.334 21.146 365.531 21.4269 365.475 21.7264C365.418 22.026 365.137 22.2225 364.837 22.1664C268.846 4.3247 180.602 21.6047 122.718 69.5881C82.9894 102.519 61.9308 146.674 61.8372 197.26C61.8372 197.56 61.5935 197.803 61.2938 197.803H61.2842Z" fill="url(#paint28_linear_47_180)"/>
<path d="M1.55525 246.179C1.25548 246.179 1.01184 245.936 1.01184 245.637C1.09615 201.07 20.9277 158.207 58.3707 121.672C125.744 55.9401 240.358 18.3378 364.95 21.0805C365.249 21.0805 365.493 21.3332 365.484 21.6421C365.484 21.9416 365.231 22.1757 364.941 22.1757H364.931C240.574 19.4236 126.306 56.9229 59.1391 122.448C21.9116 158.768 2.19211 201.36 2.1078 245.627C2.1078 245.927 1.86417 246.17 1.5644 246.17L1.55525 246.179Z" fill="url(#paint29_linear_47_180)"/>
<path d="M367.357 355.148C231.881 355.148 101.088 334.087 37.5276 298.001C37.3589 297.907 37.2559 297.72 37.2559 297.523C37.4994 169.337 184.461 45.325 364.856 21.0805C364.978 21.0618 365.1 21.0805 365.203 21.146C453.691 71.3854 525.476 216.468 525.242 344.561C525.242 344.833 525.036 345.067 524.764 345.104C474.085 351.919 420.36 355.139 367.357 355.139V355.148ZM38.3518 297.215C126.699 347.154 344.388 368.169 524.146 344.103C524.211 216.543 452.819 72.284 364.819 22.2038C185.182 46.4202 38.8389 169.721 38.3518 297.224V297.215Z" fill="url(#paint30_linear_47_180)"/>
<path d="M367.188 224.275C250.194 224.275 137.238 206.078 82.352 174.925C82.0897 174.775 81.9958 174.438 82.1457 174.176C82.2956 173.914 82.6331 173.821 82.8954 173.97C159.074 217.217 347.525 235.415 502.965 214.531C503.265 214.493 503.536 214.699 503.583 214.999C503.621 215.298 503.415 215.57 503.115 215.616C459.349 221.495 412.959 224.285 367.198 224.285L367.188 224.275Z" fill="url(#paint31_linear_47_180)"/>
<path d="M366.336 104.813C297.904 104.813 231.824 94.1695 199.711 75.9347C199.449 75.7849 199.355 75.4479 199.505 75.1858C199.655 74.9237 199.992 74.8301 200.255 74.9799C244.751 100.245 354.832 110.869 445.653 98.6627C445.943 98.6159 446.224 98.8312 446.271 99.1307C446.308 99.4303 446.102 99.7017 445.803 99.7485C420.219 103.184 393.1 104.813 366.345 104.813H366.336Z" fill="url(#paint32_linear_47_180)"/>
<path d="M163.252 337.981C162.952 337.981 162.709 337.737 162.709 337.438C162.952 209.307 253.567 67.4165 364.716 21.1274C364.997 21.0151 365.315 21.1461 365.428 21.4176C365.54 21.6984 365.409 22.0167 365.137 22.129C254.354 68.259 164.039 209.71 163.805 337.429C163.805 337.728 163.562 337.972 163.262 337.972L163.252 337.981Z" fill="url(#paint33_linear_47_180)"/>
<path d="M337.933 354.858C337.633 354.858 337.39 354.615 337.39 354.315C337.624 226.353 349.746 77.0486 364.406 21.4923C364.481 21.2021 364.772 21.0243 365.071 21.0992C365.362 21.174 365.54 21.4736 365.456 21.7638C350.814 77.2452 338.711 226.428 338.477 354.306C338.477 354.606 338.233 354.849 337.933 354.849V354.858Z" fill="url(#paint34_linear_47_180)"/>
<path d="M524.689 345.123C524.558 345.123 524.427 345.076 524.333 344.992C524.211 344.889 524.145 344.739 524.145 344.58C524.38 216.833 452.838 72.1715 364.659 22.11C364.453 21.9977 364.35 21.7637 364.397 21.5296C364.444 21.2956 364.631 21.1271 364.865 21.0897C471.18 6.80512 571.181 30.2726 632.399 83.8632C671.229 117.862 691.753 161.268 691.753 209.41C719.126 225.015 731.82 242.398 728.466 259.687C721.328 296.456 643.285 329.182 524.782 345.114C524.754 345.114 524.736 345.114 524.707 345.114L524.689 345.123ZM366.598 21.9603C454.29 72.8455 525.241 216.684 525.232 343.953C642.91 328.058 720.344 295.717 727.37 259.49C730.639 242.641 718.03 225.604 690.92 210.206C690.751 210.112 690.648 209.925 690.648 209.728C690.742 161.782 670.339 118.545 631.669 84.6869C570.994 31.5644 472.005 8.16245 366.598 21.9603Z" fill="url(#paint35_linear_47_180)"/>
<path d="M503.04 215.607C502.768 215.607 502.534 215.411 502.496 215.13C502.459 214.83 502.665 214.559 502.965 214.512C604.839 200.817 671.903 172.875 677.973 141.563C680.793 127.054 669.917 112.367 646.535 99.0933C646.273 98.9436 646.179 98.6066 646.329 98.3445C646.479 98.0824 646.816 97.9888 647.078 98.1385C670.91 111.665 681.964 126.754 679.051 141.769C672.887 173.549 605.467 201.837 503.115 215.588C503.087 215.588 503.068 215.588 503.04 215.588V215.607Z" fill="url(#paint36_linear_47_180)"/>
<path d="M445.719 99.7579C445.447 99.7579 445.213 99.5613 445.175 99.2805C445.138 98.981 445.344 98.7095 445.644 98.6627C505.092 90.6779 544.221 74.4089 547.753 56.2021C549.373 47.8242 543.059 39.3246 529.485 31.6114C529.223 31.4616 529.129 31.1246 529.279 30.8625C529.429 30.6004 529.767 30.5068 530.029 30.6565C544.052 38.6132 550.553 47.5153 548.83 56.3987C545.204 75.0735 505.729 91.6796 445.794 99.7298C445.766 99.7298 445.747 99.7298 445.719 99.7298V99.7579Z" fill="url(#paint37_linear_47_180)"/>
<path d="M667.707 310.544C667.407 310.544 667.163 310.301 667.163 310.001C667.397 182.33 531.771 53.2068 364.828 22.1664C364.528 22.1103 364.331 21.8294 364.387 21.5299C364.444 21.2303 364.734 21.0338 365.025 21.0899C532.464 52.2146 668.494 181.824 668.25 310.001C668.25 310.301 668.006 310.544 667.707 310.544Z" fill="url(#paint38_linear_47_180)"/>
<path d="M727.444 262.177C727.145 262.177 726.901 261.934 726.901 261.634C727.135 134 564.755 26.5846 364.921 22.185C364.621 22.185 364.378 21.9323 364.387 21.6234C364.387 21.3238 364.706 21.0992 364.949 21.0898C461.999 23.2241 553.204 49.3968 621.757 94.7873C690.386 140.225 728.119 199.478 727.997 261.634C727.997 261.934 727.754 262.177 727.454 262.177H727.444Z" fill="url(#paint39_linear_47_180)"/>
<path d="M360.978 507.261C357.578 507.233 353.034 507.149 349.662 507.046C347.376 506.98 344.575 506.859 341.952 506.737L338.364 506.587C334.804 506.4 330.102 506.11 326.654 505.857C324.266 505.679 321.352 505.427 318.617 505.183L314.916 504.855C311.038 504.481 305.924 503.919 302.195 503.47C299.638 503.161 296.509 502.731 293.586 502.328C292.181 502.132 290.823 501.944 289.586 501.785C285.043 501.111 279.197 500.166 275.019 499.426C272.162 498.921 268.677 498.237 265.427 497.601C263.881 497.301 262.401 497.011 261.052 496.749C255.225 495.532 248.246 493.95 243.272 492.724C240.03 491.919 236.143 490.871 232.396 489.86C230.644 489.382 228.949 488.923 227.412 488.521C220.874 486.621 211.309 483.71 204.021 481.201C200.339 479.937 195.955 478.299 191.711 476.708C189.735 475.968 187.815 475.247 186.082 474.611C176.573 470.698 163.224 465.025 153.472 460.176C149.529 458.22 144.873 455.702 140.367 453.259C138.269 452.126 136.236 451.022 134.4 450.048C127.449 445.948 114.399 438.085 104.863 431.336C101.153 428.715 96.8253 425.364 92.6473 422.125C90.7082 420.618 88.8254 419.167 87.1204 417.875C80.6192 412.436 71.3732 404.321 64.8907 397.815C61.7432 394.66 58.1648 390.673 54.6987 386.816C53.0968 385.028 51.5416 383.306 50.1177 381.761C45.387 376.042 38.6515 367.402 33.8646 360.231C31.4758 356.655 28.872 352.19 26.352 347.866C25.1811 345.853 24.0475 343.915 22.9983 342.174C19.9725 336.389 15.401 326.935 12.4408 319.222C10.9326 315.299 9.44315 310.469 8.00988 305.798C7.34477 303.636 6.69812 301.539 6.08921 299.667C4.41238 292.927 2.13601 282.106 1.17113 273.672C0.693375 269.488 0.496945 264.424 0.300221 259.528C0.215911 257.244 0.122179 255.044 0.00976562 253.06C0.122179 244.831 0.806136 235.143 1.76165 228.347C2.34245 224.2 3.41025 219.286 4.4407 214.531C4.91846 212.321 5.37717 210.196 5.76125 208.259C7.93457 200.246 11.0357 190.895 13.6493 184.417C15.2324 180.504 17.4522 175.927 19.5975 171.499C20.5998 169.44 21.5647 167.446 22.4078 165.639C26.6889 157.813 32.1506 148.893 36.3286 142.892C38.8111 139.317 42.0617 135.198 45.1905 131.21C46.6519 129.357 48.0569 127.569 49.3122 125.931C54.6519 119.762 62.7739 110.85 69.6217 104.298C72.863 101.199 76.9377 97.6704 80.8909 94.2537C82.7364 92.653 84.5163 91.1178 86.1182 89.7043C91.1113 85.7728 103.777 75.944 114.156 69.1199C117.922 66.6487 122.568 63.8592 127.065 61.1539C129.163 59.8996 131.186 58.6827 133.004 57.5687C139.393 53.9461 147.739 49.5185 153.8 46.5324C164.583 41.2154 179.103 35.2526 191.89 30.1135C198.372 27.7546 207.862 24.4409 215.103 22.1943C224.527 19.2644 237.614 15.7073 247.684 13.339C252.405 12.225 258.897 10.8209 263.815 9.82868C273.089 7.96588 285.352 6.05629 294.991 4.60537C299.075 4.06244 304.518 3.39783 308.547 2.96723C311.151 2.68641 314.345 2.39623 317.333 2.12476C318.748 1.99371 320.116 1.872 321.352 1.75031C324.968 1.45076 329.849 1.1138 333.484 0.898502C335.882 0.75809 338.814 0.627026 341.559 0.505336L345.268 0.336849C352.107 0.168354 361.24 0.0373068 368.004 0.0185852C371.404 0.0466676 375.947 0.130896 379.32 0.233865C381.606 0.299391 384.407 0.421088 387.029 0.533417L390.627 0.683194C394.159 0.861049 398.861 1.16059 402.337 1.41333C404.716 1.59119 407.63 1.84393 410.356 2.08731L414.074 2.41495C417.962 2.78938 423.077 3.35101 426.796 3.80033C429.363 4.10923 432.501 4.5492 435.442 4.95171C436.838 5.14829 438.187 5.32613 439.405 5.49463C443.958 6.1686 449.813 7.11406 453.972 7.85356C456.82 8.35905 460.305 9.04237 463.555 9.6789C465.101 9.97845 466.6 10.278 467.949 10.5307C473.794 11.757 480.773 13.339 485.729 14.5559C488.961 15.3516 492.829 16.4 496.567 17.4109C498.337 17.8883 500.042 18.347 501.588 18.7589C508.117 20.6591 517.682 23.5703 524.98 26.079C528.661 27.3427 533.055 28.9902 537.308 30.5816C539.284 31.3211 541.195 32.0325 542.928 32.669C552.427 36.5818 565.776 42.2545 575.538 47.1034C578.235 48.442 581.271 50.0427 584.362 51.7089C587.837 53.4874 591.266 55.3315 594.629 57.2411C594.629 57.2411 594.638 57.2411 594.648 57.2505C603.856 62.7265 616.746 70.6177 625.964 77.2264C629.655 79.8755 633.955 83.2454 638.114 86.5123C640.044 88.0288 641.899 89.489 643.594 90.7902C650.021 96.2382 659.154 104.382 665.561 110.916C668.672 114.089 672.213 118.086 675.641 121.962C677.234 123.768 678.779 125.509 680.194 127.063C684.859 132.792 691.491 141.46 696.203 148.649C698.555 152.234 701.122 156.718 703.595 161.062C704.747 163.084 705.871 165.04 706.902 166.79C709.862 172.575 714.33 182.039 717.225 189.79C718.696 193.721 720.129 198.561 721.525 203.241C722.171 205.413 722.789 207.51 723.389 209.401C725.328 217.395 727.07 226.877 727.838 233.598C728.316 237.792 728.513 242.856 728.71 247.761C728.794 250.036 728.888 252.226 728.991 254.211C728.785 260.23 728.063 275.348 725.984 286.627C725.225 290.746 723.951 295.614 722.714 300.332C722.143 302.513 721.59 304.619 721.122 306.528C718.592 314.513 715.089 323.79 712.194 330.192C710.443 334.058 708.035 338.561 705.712 342.923C704.625 344.954 703.576 346.911 702.658 348.699C697.993 356.496 692.129 365.342 687.688 371.258C685.056 374.769 681.646 378.803 678.358 382.707C676.831 384.513 675.351 386.264 674.04 387.864C668.325 394.033 659.697 402.888 652.54 409.301C649.187 412.305 644.981 415.731 640.906 419.036C639.013 420.571 637.186 422.059 635.547 423.417C630.179 427.376 616.606 437.252 605.917 443.832C602.104 446.182 597.402 448.822 592.849 451.377C590.732 452.566 588.68 453.717 586.835 454.775C578.91 458.931 569.589 463.528 563.059 466.476C552.333 471.325 537.973 476.736 525.345 481.379C513.289 485.291 503.64 488.231 496.651 490.112C492.033 491.357 485.607 492.967 480.661 494.119C476.023 495.205 469.644 496.581 464.792 497.545C455.649 499.37 443.527 501.242 433.99 502.684C429.925 503.227 424.482 503.891 420.435 504.322C417.831 504.603 414.637 504.893 411.648 505.164C410.234 505.295 408.866 505.417 407.629 505.539C404.013 505.838 399.142 506.175 395.498 506.391C393.09 506.531 390.131 506.662 387.367 506.784L383.714 506.943C376.875 507.112 367.742 507.243 360.978 507.261ZM368.013 1.09507C361.259 1.11379 352.135 1.24484 345.315 1.41333L341.615 1.58182C338.879 1.70351 335.947 1.83458 333.559 1.97499C329.924 2.19029 325.062 2.52728 321.455 2.82682C320.228 2.94851 318.851 3.0702 317.437 3.20125C314.458 3.47271 311.263 3.76289 308.668 4.04371C304.649 4.47431 299.216 5.12957 295.151 5.68185C285.53 7.13278 273.286 9.04239 264.031 10.8958C259.113 11.8787 252.649 13.2922 247.928 14.3967C237.885 16.7557 224.817 20.3128 215.421 23.2333C208.199 25.4799 198.728 28.7843 192.274 31.1339C179.524 36.2542 165.032 42.2077 154.278 47.5152C148.236 50.492 139.908 54.9103 133.557 58.5142C131.749 59.6187 129.725 60.8356 127.627 62.0993C123.14 64.7953 118.502 67.5754 114.755 70.0373C104.413 76.8332 91.7668 86.6434 86.8112 90.5468C85.2374 91.9416 83.4486 93.4861 81.6031 95.0868C77.6687 98.4941 73.6031 102.014 70.3806 105.093C63.5515 111.627 55.4576 120.501 50.1648 126.633C48.9283 128.243 47.5136 130.04 46.0523 131.903C42.9234 135.872 39.6916 139.981 37.2279 143.529C33.0686 149.501 27.6447 158.384 23.3917 166.154C22.558 167.932 21.5929 169.936 20.5905 171.995C18.4546 176.404 16.2347 180.953 14.6702 184.838C12.066 191.278 8.98389 200.583 6.8293 208.521C6.45459 210.421 5.98651 212.555 5.50876 214.774C4.4783 219.51 3.41943 224.406 2.848 228.516C1.90185 235.274 1.20877 244.906 1.10572 253.06C1.21813 255.016 1.3025 257.225 1.39618 259.509C1.58353 264.386 1.78018 269.422 2.25794 273.569C3.21345 281.956 5.48042 292.721 7.13851 299.386C7.73805 301.23 8.38446 303.327 9.04957 305.499C10.4828 310.151 11.9629 314.962 13.4618 318.857C16.4126 326.523 20.9562 335.931 23.9538 341.659C24.9843 343.372 26.127 345.32 27.298 347.341C29.8085 351.647 32.413 356.103 34.783 359.651C39.5419 366.784 46.249 375.386 50.9516 381.068C52.3568 382.594 53.9119 384.326 55.5138 386.114C58.9705 389.961 62.5489 393.939 65.6683 397.075C72.1321 403.562 81.3405 411.65 87.8042 417.051C89.4904 418.334 91.3735 419.785 93.322 421.292C97.5 424.521 101.809 427.863 105.5 430.475C115.008 437.196 128.02 445.04 134.943 449.121C136.761 450.086 138.803 451.19 140.901 452.323C145.397 454.757 150.053 457.275 153.969 459.222C163.693 464.052 177.023 469.715 186.485 473.609C188.199 474.236 190.119 474.957 192.105 475.697C196.34 477.279 200.724 478.917 204.386 480.18C211.656 482.68 221.201 485.591 227.712 487.482C229.239 487.884 230.935 488.343 232.686 488.82C236.433 489.831 240.312 490.88 243.543 491.676C248.508 492.902 255.469 494.474 261.277 495.691C262.616 495.944 264.106 496.244 265.651 496.543C268.902 497.18 272.378 497.863 275.226 498.368C279.385 499.108 285.23 500.053 289.755 500.718C290.973 500.887 292.34 501.074 293.746 501.261C296.668 501.663 299.778 502.094 302.336 502.403C306.064 502.852 311.16 503.414 315.029 503.788L318.72 504.107C321.446 504.35 324.359 504.603 326.739 504.781C330.177 505.033 334.87 505.333 338.42 505.511L342.008 505.661C344.622 505.773 347.423 505.895 349.699 505.96C353.072 506.063 357.606 506.147 360.987 506.175C367.741 506.157 376.856 506.026 383.676 505.857L387.32 505.698C390.074 505.576 393.025 505.445 395.433 505.305C399.067 505.09 403.929 504.753 407.536 504.453C408.763 504.331 410.131 504.21 411.554 504.079C414.533 503.807 417.728 503.517 420.323 503.236C424.36 502.805 429.794 502.141 433.84 501.598C443.358 500.166 455.47 498.284 464.585 496.468C469.438 495.504 475.799 494.128 480.426 493.052C485.354 491.9 491.771 490.29 496.38 489.054C503.35 487.173 512.979 484.243 524.998 480.349C537.589 475.715 551.921 470.324 562.619 465.484C569.13 462.535 578.432 457.958 586.32 453.82C588.146 452.772 590.198 451.621 592.325 450.423C596.868 447.867 601.561 445.237 605.355 442.896C616.015 436.334 629.561 426.487 634.882 422.555C636.493 421.217 638.33 419.719 640.222 418.184C644.287 414.88 648.484 411.472 651.819 408.477C658.948 402.083 667.548 393.266 673.224 387.134C674.517 385.562 675.997 383.811 677.534 381.995C680.822 378.11 684.213 374.085 686.826 370.603C691.248 364.715 697.094 355.907 701.712 348.175C702.621 346.415 703.67 344.449 704.757 342.418C707.08 338.074 709.478 333.59 711.211 329.752C714.086 323.378 717.572 314.148 720.082 306.238C720.541 304.357 721.094 302.241 721.665 300.06C722.892 295.37 724.167 290.512 724.916 286.44C726.986 275.226 727.698 260.174 727.913 254.23C727.801 252.292 727.717 250.092 727.623 247.818C727.436 242.931 727.239 237.886 726.761 233.739C726.002 227.065 724.269 217.629 722.349 209.71C721.768 207.856 721.141 205.75 720.494 203.569C719.108 198.907 717.674 194.087 716.222 190.183C713.852 183.846 709.825 174.869 705.965 167.324C704.944 165.602 703.829 163.645 702.668 161.614C700.194 157.289 697.646 152.824 695.314 149.267C690.62 142.115 684.016 133.485 679.389 127.793C677.993 126.258 676.447 124.508 674.854 122.701C671.435 118.835 667.904 114.847 664.812 111.693C658.423 105.187 649.327 97.0713 642.938 91.6514C641.262 90.3596 639.398 88.8993 637.468 87.3829C633.318 84.1253 629.027 80.7554 625.355 78.125C616.165 71.535 603.303 63.6533 594.123 58.1959C592.287 57.2224 590.264 56.1272 588.165 54.9945C586.741 54.2269 585.308 53.45 583.884 52.6824C533.804 27.1087 471.78 15.3422 405.166 18.5155C392.641 19.1146 379.947 20.2379 367.142 21.9041C367.011 21.9228 366.889 21.9416 366.758 21.9509C366.72 21.9509 366.683 21.9603 366.645 21.9696C366.364 22.0071 366.083 22.0445 365.802 22.082C365.54 22.1194 365.278 22.1475 365.025 22.1849C364.734 22.2224 364.453 22.0164 364.406 21.7169C364.406 21.6888 364.406 21.6701 364.406 21.642C364.406 21.3705 364.603 21.1365 364.884 21.0991C432.941 11.9536 497.916 17.9258 552.493 37.8549C548.952 36.3478 545.57 34.9343 542.563 33.6987C540.849 33.0715 538.938 32.3508 536.961 31.6113C532.717 30.0199 528.333 28.3818 524.661 27.1181C517.382 24.6187 507.836 21.7075 501.335 19.8167C499.799 19.4141 498.085 18.9461 496.314 18.4687C492.576 17.4577 488.717 16.4187 485.494 15.623C480.539 14.3967 473.578 12.8241 467.761 11.6072C466.421 11.3451 464.923 11.055 463.368 10.7554C460.126 10.1189 456.651 9.43553 453.803 8.93005C449.653 8.19055 443.817 7.2451 439.274 6.58048C438.065 6.42135 436.716 6.23415 435.311 6.03757C432.379 5.63505 429.25 5.20445 426.683 4.88618C422.964 4.43686 417.859 3.87523 413.99 3.5008L410.281 3.17317C407.564 2.92979 404.651 2.67704 402.28 2.49919C398.814 2.24645 394.112 1.9469 390.599 1.76905L387.002 1.61927C384.388 1.50694 381.596 1.38525 379.311 1.31972C375.938 1.21675 371.404 1.13252 368.023 1.10444L368.013 1.09507Z" fill="url(#paint40_linear_47_180)"/>
<path d="M364.069 486.181C363.975 486.181 363.882 486.153 363.797 486.106C275.319 435.876 203.524 290.784 203.758 162.691C203.758 162.419 203.964 162.185 204.236 162.148C384.481 137.931 603.05 159.059 691.463 209.261C691.632 209.354 691.735 209.541 691.735 209.738C691.5 337.925 544.539 461.937 364.134 486.181C364.106 486.181 364.088 486.181 364.06 486.181H364.069ZM204.854 163.168C204.789 290.728 276.181 434.987 364.181 485.067C543.818 460.851 690.171 337.55 690.648 210.047C602.301 160.107 384.612 139.092 204.854 163.159V163.168Z" fill="url(#paint41_linear_47_180)"/>
<path d="M529.016 432.347C528.923 432.347 528.829 432.328 528.744 432.272C484.248 407.007 374.158 396.383 283.346 408.589C283.047 408.627 282.775 408.421 282.728 408.121C282.691 407.822 282.897 407.55 283.196 407.503C374.223 395.269 484.613 405.959 529.278 431.317C529.541 431.467 529.634 431.804 529.485 432.066C529.382 432.244 529.194 432.347 529.007 432.347H529.016Z" fill="url(#paint42_linear_47_180)"/>
<path d="M646.376 333.366C646.282 333.366 646.188 333.347 646.104 333.291C569.925 290.044 381.483 271.847 226.034 292.731C225.763 292.768 225.463 292.562 225.417 292.263C225.379 291.963 225.585 291.692 225.885 291.645C381.53 270.733 570.282 288.986 646.638 332.336C646.901 332.486 646.994 332.823 646.844 333.085C646.741 333.263 646.554 333.366 646.367 333.366H646.376Z" fill="url(#paint43_linear_47_180)"/>
<path d="M364.07 486.181C363.854 486.181 363.648 486.05 363.564 485.844C363.451 485.563 363.583 485.245 363.854 485.132C474.637 439.002 564.952 297.552 565.186 169.833C565.186 169.533 565.43 169.29 565.73 169.29C566.029 169.29 566.273 169.533 566.273 169.833C566.029 297.963 475.415 439.854 364.266 486.143C364.201 486.171 364.126 486.181 364.06 486.181H364.07Z" fill="url(#paint44_linear_47_180)"/>
<path d="M364.069 486.181C364.069 486.181 363.975 486.181 363.929 486.162C363.638 486.087 363.46 485.788 363.544 485.498C378.186 430.016 390.29 280.833 390.524 152.955C390.524 152.656 390.767 152.413 391.067 152.413C391.367 152.413 391.61 152.656 391.61 152.955C391.376 280.917 379.254 430.222 364.594 485.778C364.528 486.022 364.303 486.181 364.069 486.181Z" fill="url(#paint45_linear_47_180)"/>
<path d="M303.534 490.281C220.676 490.281 146.006 466.654 96.6096 423.398C57.7802 389.4 37.2551 345.994 37.2551 297.851C9.88247 282.247 -2.8108 264.864 0.542859 247.574C7.6811 210.805 85.7242 178.08 204.226 162.148C204.386 162.129 204.545 162.176 204.657 162.279C204.779 162.382 204.844 162.532 204.844 162.691C204.601 290.438 276.152 435.099 364.331 485.161C364.537 485.273 364.64 485.507 364.593 485.741C364.546 485.975 364.359 486.144 364.125 486.181C343.619 488.933 323.328 490.29 303.525 490.29L303.534 490.281ZM203.758 163.309C86.0801 179.203 8.64589 211.545 1.62006 247.771C-1.64929 264.62 10.9599 281.657 38.0702 297.056C38.2388 297.149 38.3419 297.336 38.3419 297.533C38.2576 345.479 58.6512 388.717 97.3214 422.574C157.996 475.697 256.986 499.09 362.392 485.301C274.7 434.416 203.749 290.578 203.758 163.309Z" fill="url(#paint46_linear_47_180)"/>
<path d="M199.234 476.661C199.14 476.661 199.047 476.642 198.962 476.586C184.939 468.629 178.438 459.727 180.161 450.844C183.787 432.169 223.262 415.563 283.197 407.513C283.488 407.466 283.769 407.681 283.816 407.981C283.853 408.28 283.647 408.552 283.347 408.599C223.899 416.583 184.77 432.852 181.239 451.059C179.618 459.437 185.932 467.937 199.506 475.65C199.768 475.8 199.861 476.137 199.712 476.399C199.608 476.577 199.421 476.68 199.234 476.68V476.661Z" fill="url(#paint47_linear_47_180)"/>
<path d="M82.1834 409.179C82.0897 409.179 81.996 409.16 81.9117 409.104C58.0801 395.578 47.0262 380.488 49.9396 365.474C56.1036 333.694 123.524 305.405 225.885 291.654C226.176 291.608 226.456 291.823 226.503 292.122C226.541 292.422 226.335 292.693 226.035 292.74C124.16 306.435 57.0967 334.377 51.0264 365.689C48.2161 380.198 59.0828 394.885 82.4647 408.159C82.727 408.309 82.8204 408.646 82.6706 408.908C82.5675 409.085 82.3804 409.188 82.193 409.188L82.1834 409.179Z" fill="url(#paint48_linear_47_180)"/>
<path d="M364.069 486.181C364.069 486.181 364.003 486.181 363.966 486.181C196.526 455.056 60.497 325.447 60.7406 197.269C60.7406 196.97 60.9837 196.727 61.2835 196.727C61.5833 196.727 61.8269 196.97 61.8269 197.269C61.5927 324.941 197.219 454.064 364.163 485.104C364.462 485.161 364.659 485.441 364.603 485.741C364.556 486.003 364.322 486.19 364.069 486.19V486.181Z" fill="url(#paint49_linear_47_180)"/>
<path d="M364.069 486.181H364.06C267.01 484.047 175.805 457.874 107.252 412.484C38.6238 367.046 0.890232 307.792 1.01201 245.637C1.01201 245.337 1.25565 245.094 1.55542 245.094C1.85519 245.094 2.09882 245.337 2.09882 245.637C1.86463 373.271 164.245 480.686 364.079 485.086C364.378 485.086 364.622 485.339 364.613 485.648C364.613 485.947 364.36 486.181 364.069 486.181Z" fill="url(#paint50_linear_47_180)"/>
<path d="M422.514 503.527C404.069 503.527 384.331 497.742 363.956 486.2C257.716 500.437 157.791 476.961 96.6097 423.398C57.6866 389.325 37.1615 345.797 37.2552 297.533C37.2552 297.336 37.3583 297.159 37.5269 297.065C37.6955 296.971 37.9017 296.962 38.0703 297.065C126.315 347.164 344.574 368.235 524.613 344.047C524.773 344.028 524.932 344.075 525.044 344.178C525.166 344.281 525.232 344.431 525.232 344.59C525.101 416.013 502.759 469.903 463.929 492.434C451.161 499.838 437.24 503.536 422.514 503.536V503.527ZM364.069 485.086C364.162 485.086 364.256 485.114 364.34 485.161C400.697 505.801 434.945 507.992 463.386 491.489C501.756 469.219 523.883 415.928 524.145 345.207C344.574 369.218 127.186 348.287 38.3512 298.478C38.5291 346.05 58.904 388.95 97.3306 422.593C158.305 475.978 257.988 499.342 363.994 485.105C364.022 485.105 364.041 485.105 364.069 485.105V485.086Z" fill="url(#paint51_linear_47_180)"/>
<path d="M365.587 505.464C297.155 505.464 231.075 494.821 198.962 476.586C198.7 476.436 198.606 476.099 198.756 475.837C198.906 475.575 199.243 475.482 199.506 475.631C244.003 500.896 354.083 511.521 444.904 499.314C445.194 499.267 445.475 499.483 445.522 499.782C445.56 500.082 445.354 500.353 445.054 500.4C419.47 503.835 392.351 505.464 365.596 505.464H365.587Z" fill="url(#paint52_linear_47_180)"/>
<path d="M366.758 458.464C249.764 458.464 136.807 440.266 81.9215 409.113C81.6592 408.964 81.5654 408.627 81.7152 408.365C81.8651 408.102 82.2026 408.009 82.4649 408.159C158.644 451.405 347.095 469.603 502.534 448.719C502.834 448.672 503.106 448.887 503.153 449.187C503.19 449.487 502.984 449.758 502.684 449.805C458.918 455.683 412.529 458.473 366.767 458.473L366.758 458.464Z" fill="url(#paint53_linear_47_180)"/>
<path d="M295.647 500.924C270.063 500.924 246.428 494.128 226.156 480.602C206.269 467.328 190.634 448.373 179.683 424.269C168.357 399.341 162.652 370.126 162.708 337.438C162.708 337.138 162.952 336.895 163.252 336.895C163.552 336.895 163.795 337.138 163.795 337.438C163.673 401.99 186.034 452.51 226.747 479.684C263.946 504.519 312.64 506.447 363.844 485.123C364.125 485.011 364.444 485.142 364.556 485.413C364.668 485.694 364.537 486.012 364.265 486.125C340.565 495.991 317.399 500.915 295.637 500.915L295.647 500.924Z" fill="url(#paint54_linear_47_180)"/>
<path d="M353.54 507.149C353.418 507.149 353.296 507.149 353.165 507.121C343.254 505.829 337.212 447.277 337.38 354.315C337.38 354.016 337.624 353.772 337.924 353.772C338.223 353.772 338.467 354.016 338.467 354.315C338.27 457.761 345.774 505.061 353.296 506.035C355.048 506.26 358.673 503.901 363.526 485.488C363.601 485.198 363.891 485.02 364.191 485.095C364.481 485.17 364.659 485.469 364.575 485.76C360.781 500.128 357.165 507.14 353.521 507.14L353.54 507.149Z" fill="url(#paint55_linear_47_180)"/>
<path d="M422.515 503.527C404.014 503.527 384.229 497.704 363.798 486.106C363.591 485.994 363.489 485.76 363.535 485.526C363.582 485.292 363.77 485.123 364.004 485.086C414.468 478.309 462.29 463.715 505.007 443.393C517.392 417.22 524.08 383.521 524.155 344.571C524.155 344.299 524.361 344.065 524.633 344.028C579.069 336.708 624.924 325.877 659.229 312.763C679.313 280.084 690.592 245.056 690.658 209.719C690.658 209.523 690.761 209.345 690.929 209.251C691.098 209.158 691.304 209.148 691.473 209.251C719.033 224.903 731.82 242.342 728.457 259.687C724.616 279.485 700.203 298.123 659.978 313.587C627.762 365.839 573.139 412.109 505.822 444.198C495.546 465.784 481.41 482.278 463.939 492.415C451.171 499.82 437.25 503.517 422.524 503.517L422.515 503.527ZM365.755 485.947C401.587 505.848 435.311 507.767 463.386 491.47C480.342 481.632 494.131 465.728 504.258 444.937C462.206 464.792 415.245 479.123 365.755 485.938V485.947ZM525.242 345.048C525.12 383.371 518.591 416.612 506.553 442.653C572.643 410.92 626.329 365.502 658.33 314.214C624.156 327.141 578.853 337.812 525.242 345.048ZM691.744 210.665C691.482 245.45 680.447 279.907 660.868 312.136C699.951 296.953 723.642 278.765 727.38 259.481C730.611 242.8 718.293 225.942 691.735 210.665H691.744Z" fill="url(#paint56_linear_47_180)"/>
<path d="M444.978 500.4C444.707 500.4 444.473 500.203 444.435 499.923C444.398 499.623 444.604 499.352 444.903 499.305C504.351 491.32 543.481 475.051 547.012 456.844C548.642 448.466 542.319 439.967 528.745 432.253C528.483 432.104 528.389 431.767 528.539 431.505C528.689 431.242 529.026 431.149 529.288 431.299C543.312 439.255 549.813 448.157 548.089 457.041C544.464 475.716 504.989 492.322 445.054 500.372C445.025 500.372 445.007 500.372 444.978 500.372V500.4Z" fill="url(#paint57_linear_47_180)"/>
<path d="M502.599 449.805C502.328 449.805 502.094 449.608 502.056 449.327C502.019 449.028 502.225 448.756 502.524 448.709C604.399 435.015 671.463 407.073 677.533 375.761C680.353 361.252 669.477 346.564 646.095 333.291C645.833 333.141 645.739 332.804 645.889 332.542C646.039 332.28 646.376 332.186 646.639 332.336C670.47 345.862 681.524 360.952 678.611 375.967C672.447 407.747 605.027 436.035 502.675 449.786C502.646 449.786 502.628 449.786 502.599 449.786V449.805Z" fill="url(#paint58_linear_47_180)"/>
<path d="M435.939 493.024C412.604 493.024 388.566 490.739 363.966 486.162C363.667 486.106 363.47 485.825 363.526 485.525C363.582 485.226 363.873 485.039 364.163 485.086C460.155 502.927 548.399 485.647 606.283 437.664C646.011 404.732 667.061 360.578 667.154 309.992C667.154 309.692 667.398 309.449 667.698 309.449C667.997 309.449 668.241 309.692 668.241 309.992C668.147 360.915 646.957 405.36 606.966 438.506C579.172 461.543 542.806 478.149 501.813 486.527C480.633 490.852 458.618 493.014 435.93 493.014L435.939 493.024Z" fill="url(#paint59_linear_47_180)"/>
<path d="M376.8 486.321C372.556 486.321 368.322 486.274 364.06 486.181C363.76 486.181 363.516 485.928 363.526 485.619C363.526 485.32 363.779 485.086 364.069 485.086H364.078C488.398 487.828 602.704 450.338 669.87 384.813C707.098 348.493 726.817 305.901 726.901 261.634C726.901 261.335 727.145 261.091 727.445 261.091C727.745 261.091 727.988 261.335 727.988 261.634C727.904 306.201 708.072 349.064 670.629 385.599C605.57 449.075 496.426 486.331 376.8 486.331V486.321Z" fill="url(#paint60_linear_47_180)"/>
<path d="M691.192 210.281C691.098 210.281 691.005 210.253 690.92 210.206C602.676 160.107 384.416 139.036 204.377 163.224C204.217 163.252 204.058 163.196 203.946 163.093C203.824 162.99 203.759 162.84 203.759 162.681C203.89 91.2489 226.232 37.3682 265.061 14.8367C293.811 -1.84421 328.387 0.308767 365.034 21.0616C471.274 6.82388 571.2 30.3007 632.381 83.8632C671.304 117.936 691.819 161.464 691.735 209.728C691.735 209.925 691.632 210.103 691.464 210.196C691.379 210.243 691.286 210.271 691.192 210.271V210.281ZM361.634 152.113C496.539 152.113 626.788 172.997 690.639 208.802C690.461 161.23 670.086 118.33 631.66 84.6963C570.685 31.3117 470.993 7.93782 364.997 22.185C364.875 22.2037 364.753 22.1849 364.65 22.1194C328.294 1.47887 294.036 -0.711563 265.605 15.7915C227.234 38.0608 205.107 91.3519 204.845 162.073C255.347 155.324 308.846 152.122 361.634 152.122V152.113Z" fill="url(#paint61_linear_47_180)"/>
<path d="M646.806 99.1775C646.713 99.1775 646.619 99.1588 646.535 99.1026C570.356 55.8557 381.914 37.6584 226.465 58.5423C226.184 58.5797 225.894 58.3738 225.847 58.0742C225.81 57.7747 226.016 57.5032 226.316 57.4564C381.961 36.5444 570.712 54.798 647.069 98.1478C647.331 98.2976 647.425 98.6346 647.275 98.8967C647.172 99.0745 646.985 99.1775 646.797 99.1775H646.806Z" fill="url(#paint62_linear_47_180)"/>
<path d="M529.756 31.6957C529.663 31.6957 529.569 31.677 529.485 31.6208C484.997 6.36538 374.907 -4.25911 284.087 7.938C283.787 7.97544 283.515 7.76951 283.468 7.46996C283.431 7.17041 283.637 6.89895 283.937 6.85214C374.954 -5.38241 485.353 5.29825 530.019 30.666C530.281 30.8158 530.375 31.1528 530.225 31.4149C530.122 31.5927 529.934 31.6957 529.747 31.6957H529.756Z" fill="url(#paint63_linear_47_180)"/>
<path d="M565.738 170.366C565.439 170.366 565.195 170.123 565.195 169.824C565.317 105.272 542.956 54.7513 502.244 27.5769C465.044 2.74276 416.351 0.814414 365.146 22.1383C364.865 22.2506 364.547 22.1196 364.435 21.8481C364.322 21.5673 364.453 21.249 364.725 21.1367C416.285 -0.336943 465.335 1.63817 502.853 26.6783C522.74 39.9519 538.375 58.9075 549.326 83.0116C560.652 107.939 566.357 137.154 566.301 169.842C566.301 170.142 566.057 170.385 565.757 170.385L565.738 170.366Z" fill="url(#paint64_linear_47_180)"/>
<path d="M391.067 153.489C390.767 153.489 390.524 153.246 390.524 152.946C390.711 49.4999 383.217 2.19983 375.694 1.22631C373.952 1.02037 370.327 3.36058 365.465 21.7733C365.39 22.0634 365.09 22.2413 364.799 22.1664C364.509 22.0915 364.331 21.792 364.416 21.5018C368.341 6.63685 372.069 -0.336935 375.844 0.149826C385.755 1.44162 391.797 59.9934 391.629 152.955C391.629 153.255 391.385 153.498 391.085 153.498L391.067 153.489Z" fill="url(#paint65_linear_47_180)"/>
<path d="M37.7989 298.076C37.7053 298.076 37.6115 298.048 37.5272 298.001C9.96726 282.35 -2.81973 264.91 0.543297 247.565C4.38408 227.767 28.7966 209.129 69.0218 193.665C101.238 141.413 155.861 95.143 223.178 63.0542C233.454 41.4682 247.59 24.9745 265.061 14.8368C293.858 -1.87223 328.481 0.308831 365.203 21.1553C365.409 21.2676 365.512 21.5017 365.465 21.7357C365.418 21.9697 365.231 22.1382 364.997 22.1756C314.542 28.9529 266.71 43.5463 223.993 63.8686C211.618 90.0414 204.92 123.74 204.845 162.691C204.845 162.962 204.639 163.196 204.367 163.233C149.931 170.554 104.066 181.384 69.771 194.498C49.6865 227.177 38.4079 262.205 38.3423 297.542C38.3423 297.739 38.2393 297.917 38.0706 298.01C37.9863 298.057 37.8926 298.085 37.7989 298.085V298.076ZM68.1317 195.116C29.0493 210.299 5.35824 228.488 1.6205 247.771C-1.61138 264.452 10.7073 281.31 37.2555 296.587C37.5178 261.803 48.5624 227.345 68.1317 195.116ZM222.447 64.5988C156.357 96.3318 102.671 141.75 70.6703 193.038C104.844 180.111 150.147 169.44 203.759 162.204C203.88 123.881 210.409 90.6405 222.447 64.5988ZM306.476 4.83009C291.928 4.83009 278.195 8.47145 265.605 15.7822C248.649 25.6204 234.859 41.5244 224.733 62.3147C266.785 42.4605 313.736 28.1291 363.235 21.3145C343.479 10.3436 324.359 4.83946 306.476 4.83946V4.83009Z" fill="url(#paint66_linear_47_180)"/>
<path d="M82.6238 174.991C82.5301 174.991 82.4364 174.972 82.3521 174.916C58.5205 161.389 47.4666 146.3 50.38 131.285C56.544 99.5051 123.964 71.2168 226.325 57.4658C226.625 57.419 226.897 57.6343 226.944 57.9339C226.981 58.2334 226.775 58.5049 226.475 58.5517C124.601 72.2465 57.5366 100.188 51.4663 131.5C48.656 146.01 59.5227 160.697 82.9046 173.97C83.1669 174.12 83.2608 174.457 83.1109 174.719C83.0079 174.897 82.8203 175 82.6329 175L82.6238 174.991Z" fill="url(#paint67_linear_47_180)"/>
<path d="M199.974 76.0096C199.88 76.0096 199.787 75.9909 199.702 75.9347C185.679 67.978 179.178 59.0759 180.901 50.1925C184.527 31.5178 224.002 14.9117 283.937 6.86144C284.228 6.81464 284.509 7.02994 284.556 7.32948C284.593 7.62903 284.387 7.90049 284.087 7.9473C224.639 15.9321 185.51 32.2011 181.979 50.4078C180.358 58.7858 186.672 67.2853 200.246 74.9986C200.508 75.1484 200.602 75.4854 200.452 75.7475C200.349 75.9254 200.161 76.0283 199.974 76.0283V76.0096Z" fill="url(#paint68_linear_47_180)"/>
<path d="M61.2842 197.803C60.9844 197.803 60.7412 197.56 60.7412 197.26C60.8349 146.337 82.0245 101.892 122.015 68.7457C149.81 45.7087 186.175 29.1027 227.169 20.7248C270.129 11.9537 316.509 12.0754 365.034 21.0899C365.334 21.146 365.531 21.4269 365.475 21.7264C365.418 22.026 365.137 22.2225 364.837 22.1664C268.846 4.3247 180.602 21.6047 122.718 69.5881C82.9894 102.519 61.9308 146.674 61.8372 197.26C61.8372 197.56 61.5935 197.803 61.2938 197.803H61.2842Z" fill="url(#paint69_linear_47_180)"/>
<path d="M1.55525 246.179C1.25548 246.179 1.01184 245.936 1.01184 245.637C1.09615 201.07 20.9277 158.207 58.3707 121.672C125.744 55.9401 240.358 18.3378 364.95 21.0805C365.249 21.0805 365.493 21.3332 365.484 21.6421C365.484 21.9416 365.231 22.1757 364.941 22.1757H364.931C240.574 19.4236 126.306 56.9229 59.1391 122.448C21.9116 158.768 2.19211 201.36 2.1078 245.627C2.1078 245.927 1.86417 246.17 1.5644 246.17L1.55525 246.179Z" fill="url(#paint70_linear_47_180)"/>
<path d="M367.357 355.148C231.881 355.148 101.088 334.087 37.5276 298.001C37.3589 297.907 37.2559 297.72 37.2559 297.523C37.4994 169.337 184.461 45.325 364.856 21.0805C364.978 21.0618 365.1 21.0805 365.203 21.146C453.691 71.3854 525.476 216.468 525.242 344.561C525.242 344.833 525.036 345.067 524.764 345.104C474.085 351.919 420.36 355.139 367.357 355.139V355.148ZM38.3518 297.215C126.699 347.154 344.388 368.169 524.146 344.103C524.211 216.543 452.819 72.284 364.819 22.2038C185.182 46.4202 38.8389 169.721 38.3518 297.224V297.215Z" fill="url(#paint71_linear_47_180)"/>
<path d="M367.188 224.275C250.194 224.275 137.238 206.078 82.352 174.925C82.0897 174.775 81.9958 174.438 82.1457 174.176C82.2956 173.914 82.6331 173.821 82.8954 173.97C159.074 217.217 347.525 235.415 502.965 214.531C503.265 214.493 503.536 214.699 503.583 214.999C503.621 215.298 503.415 215.57 503.115 215.616C459.349 221.495 412.959 224.285 367.198 224.285L367.188 224.275Z" fill="url(#paint72_linear_47_180)"/>
<path d="M366.336 104.813C297.904 104.813 231.824 94.1695 199.711 75.9347C199.449 75.7849 199.355 75.4479 199.505 75.1858C199.655 74.9237 199.992 74.8301 200.255 74.9799C244.751 100.245 354.832 110.869 445.653 98.6627C445.943 98.6159 446.224 98.8312 446.271 99.1307C446.308 99.4303 446.102 99.7017 445.803 99.7485C420.219 103.184 393.1 104.813 366.345 104.813H366.336Z" fill="url(#paint73_linear_47_180)"/>
<path d="M163.252 337.981C162.952 337.981 162.709 337.737 162.709 337.438C162.952 209.307 253.567 67.4165 364.716 21.1274C364.997 21.0151 365.315 21.1461 365.428 21.4176C365.54 21.6984 365.409 22.0167 365.137 22.129C254.354 68.259 164.039 209.71 163.805 337.429C163.805 337.728 163.562 337.972 163.262 337.972L163.252 337.981Z" fill="url(#paint74_linear_47_180)"/>
<path d="M337.933 354.858C337.633 354.858 337.39 354.615 337.39 354.315C337.624 226.353 349.746 77.0486 364.406 21.4923C364.481 21.2021 364.772 21.0243 365.071 21.0992C365.362 21.174 365.54 21.4736 365.456 21.7638C350.814 77.2452 338.711 226.428 338.477 354.306C338.477 354.606 338.233 354.849 337.933 354.849V354.858Z" fill="url(#paint75_linear_47_180)"/>
<path d="M524.689 345.123C524.558 345.123 524.427 345.076 524.333 344.992C524.211 344.889 524.145 344.739 524.145 344.58C524.38 216.833 452.838 72.1715 364.659 22.11C364.453 21.9977 364.35 21.7637 364.397 21.5296C364.444 21.2956 364.631 21.1271 364.865 21.0897C471.18 6.80512 571.181 30.2726 632.399 83.8632C671.229 117.862 691.753 161.268 691.753 209.41C719.126 225.015 731.82 242.398 728.466 259.687C721.328 296.456 643.285 329.182 524.782 345.114C524.754 345.114 524.736 345.114 524.707 345.114L524.689 345.123ZM366.598 21.9603C454.29 72.8455 525.241 216.684 525.232 343.953C642.91 328.058 720.344 295.717 727.37 259.49C730.639 242.641 718.03 225.604 690.92 210.206C690.751 210.112 690.648 209.925 690.648 209.728C690.742 161.782 670.339 118.545 631.669 84.6869C570.994 31.5644 472.005 8.16245 366.598 21.9603Z" fill="url(#paint76_linear_47_180)"/>
<path d="M503.04 215.607C502.768 215.607 502.534 215.411 502.496 215.13C502.459 214.83 502.665 214.559 502.965 214.512C604.839 200.817 671.903 172.875 677.973 141.563C680.793 127.054 669.917 112.367 646.535 99.0933C646.273 98.9436 646.179 98.6066 646.329 98.3445C646.479 98.0824 646.816 97.9888 647.078 98.1385C670.91 111.665 681.964 126.754 679.051 141.769C672.887 173.549 605.467 201.837 503.115 215.588C503.087 215.588 503.068 215.588 503.04 215.588V215.607Z" fill="url(#paint77_linear_47_180)"/>
<path d="M445.719 99.7579C445.447 99.7579 445.213 99.5613 445.175 99.2805C445.138 98.981 445.344 98.7095 445.644 98.6627C505.092 90.6779 544.221 74.4089 547.753 56.2021C549.373 47.8242 543.059 39.3246 529.485 31.6114C529.223 31.4616 529.129 31.1246 529.279 30.8625C529.429 30.6004 529.767 30.5068 530.029 30.6565C544.052 38.6132 550.553 47.5153 548.83 56.3987C545.204 75.0735 505.729 91.6796 445.794 99.7298C445.766 99.7298 445.747 99.7298 445.719 99.7298V99.7579Z" fill="url(#paint78_linear_47_180)"/>
<path d="M667.707 310.544C667.407 310.544 667.163 310.301 667.163 310.001C667.397 182.33 531.771 53.2068 364.828 22.1664C364.528 22.1103 364.331 21.8294 364.387 21.5299C364.444 21.2303 364.734 21.0338 365.025 21.0899C532.464 52.2146 668.494 181.824 668.25 310.001C668.25 310.301 668.006 310.544 667.707 310.544Z" fill="url(#paint79_linear_47_180)"/>
<path d="M727.444 262.177C727.145 262.177 726.901 261.934 726.901 261.634C727.135 134 564.755 26.5846 364.921 22.185C364.621 22.185 364.378 21.9323 364.387 21.6234C364.387 21.3238 364.706 21.0992 364.949 21.0898C461.999 23.2241 553.204 49.3968 621.757 94.7873C690.386 140.225 728.119 199.478 727.997 261.634C727.997 261.934 727.754 262.177 727.454 262.177H727.444Z" fill="url(#paint80_linear_47_180)"/>
<path d="M360.978 507.261L357.437 507.205C354.804 507.168 351.985 507.121 349.68 507.055C346.317 506.953 341.764 506.775 338.354 506.597L334.664 506.372C331.966 506.213 329.09 506.045 326.748 505.867C323.198 505.605 318.448 505.202 314.907 504.856C313.708 504.725 312.378 504.584 311.01 504.444C308.125 504.144 305.043 503.817 302.523 503.508C298.663 503.04 293.455 502.347 289.577 501.776C288.246 501.561 286.785 501.336 285.267 501.093C282.082 500.597 278.672 500.054 275.9 499.567C271.525 498.799 265.548 497.657 261.033 496.731C259.534 496.394 257.886 496.038 256.181 495.663C252.48 494.849 248.649 494.016 245.492 493.248C240.33 492.003 233.061 490.094 227.393 488.502C225.67 487.978 223.768 487.407 221.801 486.817C217.566 485.554 213.192 484.243 209.595 483.054C201.885 480.518 192.105 476.914 186.072 474.592C184.161 473.787 182.053 472.917 179.88 472.018C175.215 470.09 170.39 468.096 166.437 466.308C155.542 461.375 141.687 453.998 134.39 450.039C132.498 448.887 130.418 447.652 128.273 446.369C123.655 443.608 118.868 440.762 115.008 438.226C107.701 433.442 97.2658 425.832 87.1111 417.866C85.4717 416.424 83.6542 414.87 81.79 413.26C77.7713 409.806 73.612 406.23 70.3145 403.095C63.4011 396.523 55.1106 387.481 50.1176 381.743C48.8342 380.076 47.4012 378.288 45.9304 376.426C42.7454 372.419 39.457 368.272 36.9277 364.668C32.7122 358.668 27.2511 349.822 22.9981 342.146C22.1269 340.302 21.1433 338.308 20.1315 336.249C17.9489 331.821 15.6913 327.235 14.08 323.303C11.4289 316.835 8.29046 307.549 6.08904 299.63C5.68622 297.664 5.20872 295.53 4.71223 293.32C3.65367 288.565 2.54831 283.651 1.93941 279.504C0.684128 270.967 0.121787 259.902 0.0187416 253.022C0.140523 251 0.234273 248.801 0.327951 246.526C0.534042 241.63 0.75885 236.575 1.24597 232.391C2.03287 225.679 3.8126 216.188 5.77983 208.221C6.38873 206.303 7.01639 204.206 7.67214 202.034C9.0773 197.372 10.52 192.561 12.0002 188.648C14.9135 180.925 19.4383 171.405 22.436 165.611C23.4758 163.851 24.5906 161.914 25.7522 159.91C28.2347 155.604 30.8013 151.149 33.1527 147.582C37.8834 140.403 44.6188 131.678 49.3496 125.903C50.7641 124.349 52.2909 122.636 53.8647 120.867C57.2652 117.047 60.7874 113.088 63.8788 109.961C71.9444 101.78 82.9609 92.3723 86.146 89.6858C87.8415 88.394 89.6779 86.9618 91.5795 85.4734C95.6545 82.3001 99.8604 79.0144 103.476 76.4309C112.863 69.7285 126.025 61.7251 133.032 57.5502C143.458 51.9711 158.634 43.9676 170.259 38.8754C176.283 36.2263 184.789 32.7815 191.918 30.0949C193.473 29.552 195.168 28.9436 196.929 28.3164C200.723 26.9591 204.648 25.555 207.937 24.4785C217.304 21.3894 230.382 17.617 240.48 15.0803C249.96 12.7026 262.897 9.90374 272.687 8.12519C281.221 6.5713 291.937 5.02675 295.01 4.59615C296.293 4.43702 297.698 4.26854 299.16 4.08132C302.242 3.69753 305.549 3.28564 308.247 2.9861C312.125 2.56486 317.408 2.05938 321.38 1.73175L325.184 1.45094C327.985 1.245 330.973 1.02033 333.418 0.879917C336.94 0.673979 341.708 0.449315 345.296 0.318264C352.125 0.149769 361.259 0.0187216 368.032 0L371.582 0.0561625C374.214 0.0936056 377.034 0.140413 379.338 0.205939C382.739 0.308907 387.292 0.486782 390.664 0.664637L394.336 0.889287C397.034 1.04842 399.919 1.21692 402.271 1.39478C405.812 1.65688 410.571 2.05938 414.112 2.40573C415.311 2.53678 416.631 2.6772 417.999 2.81761C420.884 3.11715 423.976 3.44478 426.486 3.75369C430.346 4.22173 435.555 4.91443 439.433 5.48544C440.763 5.70074 442.224 5.92538 443.742 6.16876C446.927 6.66488 450.337 7.20781 453.11 7.69457C457.484 8.46216 463.461 9.60417 467.976 10.5309C469.485 10.8679 471.152 11.2329 472.876 11.6074C476.567 12.4124 480.379 13.2549 483.536 14.0131C488.679 15.2581 495.958 17.1677 501.635 18.759C503.368 19.2926 505.269 19.8636 507.246 20.4533C511.471 21.717 515.846 23.0276 519.443 24.207C527.162 26.7438 536.942 30.357 542.966 32.6692C544.877 33.4742 546.975 34.3447 549.148 35.2434C553.822 37.1717 558.647 39.1656 562.6 40.9628C573.486 45.896 587.35 53.2723 594.648 57.2319C594.648 57.2319 594.647 57.2319 594.657 57.2319C598.207 59.2445 601.673 61.3226 605.036 63.4568C608.24 65.3851 611.359 67.2948 614.039 69.0452C624.821 76.1033 638.32 86.6061 643.622 90.7904C645.252 92.2413 647.041 93.8045 648.896 95.4239C652.887 98.9061 657.009 102.51 660.287 105.665C666.114 111.29 674.405 119.865 680.231 127.082C680.231 127.082 680.231 127.082 680.24 127.092C681.496 128.739 682.901 130.546 684.363 132.418C687.51 136.443 690.761 140.608 693.243 144.222C697.393 150.241 702.761 159.096 706.92 166.791C707.773 168.635 708.738 170.629 709.731 172.697C711.866 177.153 714.086 181.749 715.66 185.69C718.246 192.168 721.29 201.482 723.407 209.401C723.791 211.376 724.251 213.52 724.719 215.738C725.731 220.493 726.78 225.417 727.342 229.564C728.269 236.369 728.925 246.039 729 254.202C728.878 256.214 728.784 258.405 728.691 260.679C728.485 265.584 728.26 270.649 727.773 274.833C726.508 285.635 723.07 299.311 721.131 306.51C720.438 308.41 719.726 310.479 718.986 312.622C717.384 317.237 715.735 322.002 714.096 325.868C710.854 333.506 705.918 342.933 702.667 348.68C701.553 350.412 700.363 352.312 699.126 354.287C696.475 358.518 693.73 362.899 691.248 366.391C686.217 373.458 679.07 382.098 674.049 387.836C672.578 389.353 670.995 391.019 669.346 392.751C665.805 396.476 662.142 400.324 658.948 403.375C650.535 411.388 638.92 420.73 635.556 423.398C633.833 424.634 631.968 426.01 630.039 427.423C625.879 430.475 621.58 433.639 617.908 436.11C608.727 442.288 595.959 449.655 586.853 454.757C576.474 459.961 561.382 467.412 549.869 472.149C542.178 475.313 532.165 478.982 525.364 481.36C523.818 481.856 522.131 482.408 520.38 482.979C516.642 484.196 512.773 485.46 509.541 486.434C500.305 489.214 487.462 492.574 477.588 494.812C472.932 495.869 466.571 497.199 461.756 498.125C455.18 499.389 445.85 500.924 434.009 502.665C432.735 502.824 431.339 502.993 429.896 503.171C426.805 503.555 423.489 503.976 420.782 504.266C416.931 504.687 411.657 505.183 407.648 505.52L403.854 505.801C401.053 506.007 398.055 506.232 395.61 506.372C392.079 506.578 387.311 506.803 383.741 506.934C376.912 507.102 367.779 507.233 361.015 507.252L360.978 507.261ZM368.004 1.09523C361.259 1.11395 352.135 1.24499 345.315 1.41349C341.746 1.54454 336.987 1.7692 333.474 1.97514C331.029 2.11555 328.041 2.3402 325.249 2.54614L321.446 2.82698C317.483 3.15461 312.209 3.66008 308.34 4.07195C305.651 4.36214 302.354 4.77401 299.272 5.15781C297.811 5.34502 296.406 5.5135 295.132 5.67264C292.069 6.10323 281.38 7.64778 272.855 9.20168C263.094 10.9802 250.176 13.7697 240.724 16.138C230.644 18.6654 217.595 22.4378 208.246 25.5175C204.976 26.594 201.06 27.9981 197.267 29.3461C195.505 29.9733 193.8 30.5817 192.255 31.1246C185.154 33.8018 176.667 37.2466 170.653 39.8864C159.074 44.9693 143.917 52.954 133.528 58.5143C126.559 62.6705 113.425 70.6553 104.067 77.3295C100.479 79.8944 96.2727 83.1707 92.2071 86.344C90.3054 87.8323 88.4597 89.2645 86.7923 90.547C83.6353 93.2148 72.6564 102.594 64.6188 110.738C61.5462 113.846 58.0428 117.796 54.6423 121.606C53.0591 123.385 51.5321 125.098 50.1363 126.633C45.4431 132.362 38.7358 141.058 34.0332 148.2C31.7006 151.738 29.1433 156.185 26.6702 160.472C25.518 162.475 24.3936 164.413 23.3631 166.154C20.4029 171.902 15.8972 181.365 12.9932 189.051C11.5318 192.926 10.0891 197.728 8.68393 202.371C8.02818 204.543 7.40053 206.649 6.79162 208.54C4.84312 216.431 3.0728 225.867 2.29527 232.541C1.80815 236.688 1.59249 241.724 1.3864 246.601C1.29272 248.885 1.1896 251.085 1.07719 253.078C1.18024 259.884 1.74234 270.892 2.98825 279.373C3.58779 283.473 4.68422 288.369 5.74278 293.105C6.23927 295.324 6.71699 297.458 7.11044 299.396C9.29313 307.24 12.4126 316.479 15.0543 322.91C16.6562 326.804 18.9041 331.372 21.0775 335.79C22.0986 337.859 23.0824 339.853 23.9349 341.669C28.1504 349.289 33.5931 358.088 37.7899 364.06C40.3004 367.636 43.579 371.764 46.7547 375.761C48.2348 377.624 49.6586 379.421 50.9327 381.069C55.8976 386.769 64.1602 395.774 71.0455 402.327C74.3242 405.444 78.4738 409.011 82.4739 412.455C84.3474 414.065 86.1647 415.629 87.7853 417.051C97.8931 424.971 108.292 432.562 115.58 437.336C119.43 439.854 124.198 442.7 128.807 445.452C130.961 446.735 133.041 447.979 134.905 449.112C142.156 453.053 155.992 460.411 166.859 465.334C170.793 467.113 175.608 469.107 180.264 471.026C182.447 471.924 184.555 472.795 186.447 473.6C192.452 475.903 202.213 479.507 209.904 482.034C213.492 483.213 217.857 484.524 222.082 485.788C224.049 486.377 225.951 486.948 227.674 487.473C233.314 489.055 240.574 490.964 245.717 492.209C248.864 492.968 252.686 493.81 256.386 494.615C258.101 494.989 259.75 495.354 261.239 495.682C265.736 496.609 271.693 497.742 276.059 498.509C278.822 498.996 282.223 499.529 285.408 500.026C286.925 500.26 288.396 500.494 289.717 500.709C293.586 501.28 298.776 501.973 302.626 502.441C305.137 502.74 308.219 503.068 311.095 503.367C312.462 503.508 313.792 503.648 314.991 503.779C318.514 504.116 323.254 504.519 326.795 504.781C329.137 504.949 332.013 505.127 334.701 505.286L338.392 505.511C341.792 505.689 346.336 505.867 349.689 505.97C351.985 506.035 354.795 506.082 357.428 506.119L360.959 506.176C367.704 506.157 376.828 506.026 383.648 505.857C387.207 505.726 391.966 505.502 395.489 505.296C397.934 505.155 400.922 504.931 403.723 504.725L407.517 504.444C411.507 504.116 416.781 503.611 420.613 503.199C423.311 502.909 426.627 502.497 429.709 502.104C431.152 501.926 432.548 501.748 433.812 501.598C445.616 499.857 454.936 498.331 461.494 497.067C466.3 496.141 472.651 494.812 477.297 493.763C487.143 491.535 499.958 488.175 509.176 485.404C512.398 484.44 516.258 483.176 519.986 481.959C521.738 481.388 523.434 480.836 524.961 480.349C531.743 477.981 541.729 474.321 549.401 471.166C560.876 466.448 575.95 459.007 586.292 453.821C595.35 448.747 608.099 441.389 617.242 435.239C620.896 432.778 625.186 429.623 629.346 426.581C631.276 425.158 633.149 423.782 634.854 422.565C638.189 419.916 649.767 410.602 658.152 402.626C661.327 399.603 664.981 395.756 668.512 392.039C670.161 390.308 671.744 388.632 673.205 387.144C678.189 381.452 685.309 372.84 690.32 365.81C692.794 362.338 695.52 357.975 698.161 353.763C699.398 351.788 700.597 349.878 701.693 348.175C704.906 342.483 709.833 333.104 713.046 325.503C714.667 321.674 716.316 316.919 717.909 312.332C718.649 310.189 719.37 308.111 720.044 306.248C721.581 300.528 725.337 285.907 726.639 274.777C727.126 270.63 727.342 265.584 727.557 260.698C727.651 258.423 727.754 256.224 727.867 254.239C727.792 246.151 727.145 236.538 726.218 229.77C725.655 225.67 724.616 220.765 723.604 216.019C723.126 213.791 722.677 211.648 722.293 209.701C720.194 201.856 717.169 192.589 714.592 186.149C713.028 182.245 710.826 177.659 708.69 173.221C707.698 171.153 706.733 169.15 705.89 167.334C701.759 159.705 696.41 150.877 692.288 144.896C689.815 141.311 686.573 137.154 683.445 133.139C681.983 131.266 680.568 129.46 679.322 127.812C673.533 120.633 665.271 112.096 659.482 106.498C656.231 103.353 652.109 99.7673 648.138 96.2945C646.273 94.6751 644.484 93.1025 642.873 91.6703C640.184 89.5547 635.369 85.7823 629.87 81.6729C668.878 114.595 690.433 157.243 691.66 205.095C691.698 206.555 691.716 208.016 691.716 209.485V209.757C691.482 337.943 544.52 461.955 364.116 486.2C363.844 486.237 363.545 486.031 363.498 485.732C363.498 485.704 363.498 485.685 363.498 485.657C363.498 485.385 363.694 485.151 363.975 485.114C543.855 460.944 690.395 337.419 690.63 209.757V209.485C690.648 150.821 660.147 99.7018 604.418 64.4116C603.013 63.5691 601.598 62.7173 600.193 61.8842C598.039 60.6018 595.949 59.3568 594.076 58.2148C586.797 54.2645 572.961 46.8976 562.113 41.9832C558.179 40.2046 553.354 38.2108 548.698 36.2824C546.516 35.3838 544.417 34.5133 542.525 33.7176C536.53 31.4148 526.768 27.8109 519.068 25.2835C515.49 24.1041 511.125 22.8029 506.9 21.5392C504.923 20.9495 503.012 20.3785 501.298 19.8449C495.64 18.2536 488.379 16.3533 483.255 15.1083C480.117 14.3501 476.304 13.517 472.623 12.712C470.899 12.3375 469.232 11.9725 467.733 11.6355C463.236 10.7088 457.278 9.57609 452.913 8.80851C450.149 8.32175 446.749 7.78819 443.564 7.29207C442.046 7.05805 440.585 6.82402 439.255 6.60872C435.386 6.03771 430.196 5.34503 426.346 4.87699C423.835 4.57745 420.754 4.2498 417.868 3.95026C416.501 3.80984 415.17 3.66943 413.98 3.53838C410.458 3.20139 405.709 2.78954 402.177 2.5368C399.826 2.3683 396.95 2.19044 394.252 2.0313L390.589 1.80665C387.226 1.63816 382.683 1.45093 379.292 1.34796C376.997 1.28243 374.177 1.23562 371.554 1.19818L368.013 1.14202L368.004 1.09523Z" fill="url(#paint81_linear_47_180)"/>
<path d="M5.52689 295.801C5.28333 295.801 5.05867 295.633 4.9931 295.38C4.97436 295.305 4.95557 295.23 4.93683 295.155C1.55507 280.777 1.51758 280.122 0 253.06L0.168785 250.036C0.178152 244.71 0.477866 239.337 1.0493 234.057C1.0774 233.767 1.33022 233.542 1.63936 233.57C1.93913 233.599 2.15484 233.851 2.13611 234.141L1.26474 250.008V250.027C1.24601 261.896 2.65135 273.831 5.43358 285.504C5.45232 285.56 5.4521 285.626 5.44273 285.691C5.10549 288.743 5.29294 291.841 6.00489 294.893C6.02362 294.968 6.04241 295.043 6.06115 295.118C6.12672 295.408 5.94857 295.707 5.65817 295.773C5.61133 295.782 5.57373 295.792 5.52689 295.792V295.801ZM2.84784 278.671C3.19445 281.694 3.62557 284.203 4.2251 287.105C4.25321 286.627 4.29079 286.15 4.33763 285.673C3.78493 283.351 3.28834 281.011 2.83869 278.661L2.84784 278.671Z" fill="url(#paint82_linear_47_180)"/>
<defs>
<linearGradient id="paint0_linear_47_180" x1="447.746" y1="152.113" x2="557.154" y2="571.518" gradientUnits="userSpaceOnUse">
<stop stop-color="#50B2B2"/>
<stop offset="0.740385" stop-color="#224C4C"/>
</linearGradient>
<linearGradient id="paint1_linear_47_180" x1="406.14" y1="402.437" x2="407.988" y2="442.458" gradientUnits="userSpaceOnUse">
<stop stop-color="#50B2B2"/>
<stop offset="0.740385" stop-color="#224C4C"/>
</linearGradient>
<linearGradient id="paint2_linear_47_180" x1="436.164" y1="282.981" x2="439.235" y2="350.401" gradientUnits="userSpaceOnUse">
<stop stop-color="#50B2B2"/>
<stop offset="0.740385" stop-color="#224C4C"/>
</linearGradient>
<linearGradient id="paint3_linear_47_180" x1="464.898" y1="169.29" x2="651.703" y2="482.949" gradientUnits="userSpaceOnUse">
<stop stop-color="#50B2B2"/>
<stop offset="0.740385" stop-color="#224C4C"/>
</linearGradient>
<linearGradient id="paint4_linear_47_180" x1="377.567" y1="152.413" x2="471.806" y2="173.224" gradientUnits="userSpaceOnUse">
<stop stop-color="#50B2B2"/>
<stop offset="0.740385" stop-color="#224C4C"/>
</linearGradient>
<linearGradient id="paint5_linear_47_180" x1="182.31" y1="162.144" x2="317.333" y2="555.842" gradientUnits="userSpaceOnUse">
<stop stop-color="#50B2B2"/>
<stop offset="0.740385" stop-color="#224C4C"/>
</linearGradient>
<linearGradient id="paint6_linear_47_180" x1="231.855" y1="407.506" x2="253.957" y2="494.654" gradientUnits="userSpaceOnUse">
<stop stop-color="#50B2B2"/>
<stop offset="0.740385" stop-color="#224C4C"/>
</linearGradient>
<linearGradient id="paint7_linear_47_180" x1="137.995" y1="291.648" x2="175.472" y2="439.774" gradientUnits="userSpaceOnUse">
<stop stop-color="#50B2B2"/>
<stop offset="0.740385" stop-color="#224C4C"/>
</linearGradient>
<linearGradient id="paint8_linear_47_180" x1="212.676" y1="196.727" x2="337.161" y2="539.677" gradientUnits="userSpaceOnUse">
<stop stop-color="#50B2B2"/>
<stop offset="0.740385" stop-color="#224C4C"/>
</linearGradient>
<linearGradient id="paint9_linear_47_180" x1="182.812" y1="245.094" x2="259.587" y2="548.965" gradientUnits="userSpaceOnUse">
<stop stop-color="#50B2B2"/>
<stop offset="0.740385" stop-color="#224C4C"/>
</linearGradient>
<linearGradient id="paint10_linear_47_180" x1="281.243" y1="296.991" x2="324.779" y2="566.921" gradientUnits="userSpaceOnUse">
<stop stop-color="#50B2B2"/>
<stop offset="0.740385" stop-color="#224C4C"/>
</linearGradient>
<linearGradient id="paint11_linear_47_180" x1="322.106" y1="475.56" x2="323.953" y2="515.573" gradientUnits="userSpaceOnUse">
<stop stop-color="#50B2B2"/>
<stop offset="0.740385" stop-color="#224C4C"/>
</linearGradient>
<linearGradient id="paint12_linear_47_180" x1="292.401" y1="408.087" x2="295.471" y2="475.509" gradientUnits="userSpaceOnUse">
<stop stop-color="#50B2B2"/>
<stop offset="0.740385" stop-color="#224C4C"/>
</linearGradient>
<linearGradient id="paint13_linear_47_180" x1="263.652" y1="336.895" x2="325.789" y2="537.601" gradientUnits="userSpaceOnUse">
<stop stop-color="#50B2B2"/>
<stop offset="0.740385" stop-color="#224C4C"/>
</linearGradient>
<linearGradient id="paint14_linear_47_180" x1="350.986" y1="353.772" x2="429.696" y2="390.43" gradientUnits="userSpaceOnUse">
<stop stop-color="#50B2B2"/>
<stop offset="0.740385" stop-color="#224C4C"/>
</linearGradient>
<linearGradient id="paint15_linear_47_180" x1="546.254" y1="209.178" x2="656.958" y2="569.889" gradientUnits="userSpaceOnUse">
<stop stop-color="#50B2B2"/>
<stop offset="0.740385" stop-color="#224C4C"/>
</linearGradient>
<linearGradient id="paint16_linear_47_180" x1="496.396" y1="431.227" x2="518.498" y2="518.374" gradientUnits="userSpaceOnUse">
<stop stop-color="#50B2B2"/>
<stop offset="0.740385" stop-color="#224C4C"/>
</linearGradient>
<linearGradient id="paint17_linear_47_180" x1="590.56" y1="332.265" x2="628.038" y2="480.389" gradientUnits="userSpaceOnUse">
<stop stop-color="#50B2B2"/>
<stop offset="0.740385" stop-color="#224C4C"/>
</linearGradient>
<linearGradient id="paint18_linear_47_180" x1="515.879" y1="309.449" x2="569.555" y2="543.279" gradientUnits="userSpaceOnUse">
<stop stop-color="#50B2B2"/>
<stop offset="0.740385" stop-color="#224C4C"/>
</linearGradient>
<linearGradient id="paint19_linear_47_180" x1="545.757" y1="261.091" x2="613.142" y2="547.242" gradientUnits="userSpaceOnUse">
<stop stop-color="#50B2B2"/>
<stop offset="0.740385" stop-color="#224C4C"/>
</linearGradient>
<linearGradient id="paint20_linear_47_180" x1="447.747" y1="3.73576" x2="491.283" y2="273.666" gradientUnits="userSpaceOnUse">
<stop stop-color="#50B2B2"/>
<stop offset="0.740385" stop-color="#224C4C"/>
</linearGradient>
<linearGradient id="paint21_linear_47_180" x1="436.595" y1="48.7931" x2="439.665" y2="116.213" gradientUnits="userSpaceOnUse">
<stop stop-color="#50B2B2"/>
<stop offset="0.740385" stop-color="#224C4C"/>
</linearGradient>
<linearGradient id="paint22_linear_47_180" x1="406.88" y1="1.78407" x2="408.728" y2="41.8066" gradientUnits="userSpaceOnUse">
<stop stop-color="#50B2B2"/>
<stop offset="0.740385" stop-color="#224C4C"/>
</linearGradient>
<linearGradient id="paint23_linear_47_180" x1="465.348" y1="6.35098" x2="527.484" y2="207.066" gradientUnits="userSpaceOnUse">
<stop stop-color="#50B2B2"/>
<stop offset="0.740385" stop-color="#224C4C"/>
</linearGradient>
<linearGradient id="paint24_linear_47_180" x1="378.013" y1="0.126022" x2="456.757" y2="36.8252" gradientUnits="userSpaceOnUse">
<stop stop-color="#50B2B2"/>
<stop offset="0.740385" stop-color="#224C4C"/>
</linearGradient>
<linearGradient id="paint25_linear_47_180" x1="182.746" y1="3.73244" x2="293.453" y2="364.447" gradientUnits="userSpaceOnUse">
<stop stop-color="#50B2B2"/>
<stop offset="0.740385" stop-color="#224C4C"/>
</linearGradient>
<linearGradient id="paint26_linear_47_180" x1="138.435" y1="57.4594" x2="175.912" y2="205.585" gradientUnits="userSpaceOnUse">
<stop stop-color="#50B2B2"/>
<stop offset="0.740385" stop-color="#224C4C"/>
</linearGradient>
<linearGradient id="paint27_linear_47_180" x1="232.595" y1="6.85504" x2="254.697" y2="94.0027" gradientUnits="userSpaceOnUse">
<stop stop-color="#50B2B2"/>
<stop offset="0.740385" stop-color="#224C4C"/>
</linearGradient>
<linearGradient id="paint28_linear_47_180" x1="213.113" y1="14.2365" x2="266.782" y2="248.058" gradientUnits="userSpaceOnUse">
<stop stop-color="#50B2B2"/>
<stop offset="0.740385" stop-color="#224C4C"/>
</linearGradient>
<linearGradient id="paint29_linear_47_180" x1="183.248" y1="20.9402" x2="250.632" y2="307.091" gradientUnits="userSpaceOnUse">
<stop stop-color="#50B2B2"/>
<stop offset="0.740385" stop-color="#224C4C"/>
</linearGradient>
<linearGradient id="paint30_linear_47_180" x1="281.249" y1="21.0736" x2="390.659" y2="440.487" gradientUnits="userSpaceOnUse">
<stop stop-color="#50B2B2"/>
<stop offset="0.740385" stop-color="#224C4C"/>
</linearGradient>
<linearGradient id="paint31_linear_47_180" x1="292.831" y1="173.899" x2="295.902" y2="241.32" gradientUnits="userSpaceOnUse">
<stop stop-color="#50B2B2"/>
<stop offset="0.740385" stop-color="#224C4C"/>
</linearGradient>
<linearGradient id="paint32_linear_47_180" x1="322.855" y1="74.9084" x2="324.702" y2="114.921" gradientUnits="userSpaceOnUse">
<stop stop-color="#50B2B2"/>
<stop offset="0.740385" stop-color="#224C4C"/>
</linearGradient>
<linearGradient id="paint33_linear_47_180" x1="264.088" y1="21.0871" x2="450.891" y2="334.755" gradientUnits="userSpaceOnUse">
<stop stop-color="#50B2B2"/>
<stop offset="0.740385" stop-color="#224C4C"/>
</linearGradient>
<linearGradient id="paint34_linear_47_180" x1="351.433" y1="21.082" x2="445.673" y2="41.8933" gradientUnits="userSpaceOnUse">
<stop stop-color="#50B2B2"/>
<stop offset="0.740385" stop-color="#224C4C"/>
</linearGradient>
<linearGradient id="paint35_linear_47_180" x1="546.69" y1="16.9828" x2="681.702" y2="410.679" gradientUnits="userSpaceOnUse">
<stop stop-color="#50B2B2"/>
<stop offset="0.740385" stop-color="#224C4C"/>
</linearGradient>
<linearGradient id="paint36_linear_47_180" x1="591" y1="98.067" x2="628.478" y2="246.192" gradientUnits="userSpaceOnUse">
<stop stop-color="#50B2B2"/>
<stop offset="0.740385" stop-color="#224C4C"/>
</linearGradient>
<linearGradient id="paint37_linear_47_180" x1="497.136" y1="30.5851" x2="519.238" y2="117.732" gradientUnits="userSpaceOnUse">
<stop stop-color="#50B2B2"/>
<stop offset="0.740385" stop-color="#224C4C"/>
</linearGradient>
<linearGradient id="paint38_linear_47_180" x1="516.314" y1="21.0804" x2="640.799" y2="364.032" gradientUnits="userSpaceOnUse">
<stop stop-color="#50B2B2"/>
<stop offset="0.740385" stop-color="#224C4C"/>
</linearGradient>
<linearGradient id="paint39_linear_47_180" x1="546.192" y1="21.0898" x2="622.965" y2="324.962" gradientUnits="userSpaceOnUse">
<stop stop-color="#50B2B2"/>
<stop offset="0.740385" stop-color="#224C4C"/>
</linearGradient>
<linearGradient id="paint40_linear_47_180" x1="364.5" y1="0.0185852" x2="532.992" y2="635.496" gradientUnits="userSpaceOnUse">
<stop stop-color="#50B2B2"/>
<stop offset="0.740385" stop-color="#224C4C"/>
</linearGradient>
<linearGradient id="paint41_linear_47_180" x1="447.746" y1="152.113" x2="557.154" y2="571.518" gradientUnits="userSpaceOnUse">
<stop stop-color="#50B2B2"/>
<stop offset="0.740385" stop-color="#224C4C"/>
</linearGradient>
<linearGradient id="paint42_linear_47_180" x1="406.14" y1="402.437" x2="407.988" y2="442.458" gradientUnits="userSpaceOnUse">
<stop stop-color="#50B2B2"/>
<stop offset="0.740385" stop-color="#224C4C"/>
</linearGradient>
<linearGradient id="paint43_linear_47_180" x1="436.164" y1="282.981" x2="439.235" y2="350.401" gradientUnits="userSpaceOnUse">
<stop stop-color="#50B2B2"/>
<stop offset="0.740385" stop-color="#224C4C"/>
</linearGradient>
<linearGradient id="paint44_linear_47_180" x1="464.898" y1="169.29" x2="651.703" y2="482.949" gradientUnits="userSpaceOnUse">
<stop stop-color="#50B2B2"/>
<stop offset="0.740385" stop-color="#224C4C"/>
</linearGradient>
<linearGradient id="paint45_linear_47_180" x1="377.567" y1="152.413" x2="471.806" y2="173.224" gradientUnits="userSpaceOnUse">
<stop stop-color="#50B2B2"/>
<stop offset="0.740385" stop-color="#224C4C"/>
</linearGradient>
<linearGradient id="paint46_linear_47_180" x1="182.31" y1="162.144" x2="317.333" y2="555.842" gradientUnits="userSpaceOnUse">
<stop stop-color="#50B2B2"/>
<stop offset="0.740385" stop-color="#224C4C"/>
</linearGradient>
<linearGradient id="paint47_linear_47_180" x1="231.855" y1="407.506" x2="253.957" y2="494.654" gradientUnits="userSpaceOnUse">
<stop stop-color="#50B2B2"/>
<stop offset="0.740385" stop-color="#224C4C"/>
</linearGradient>
<linearGradient id="paint48_linear_47_180" x1="137.995" y1="291.648" x2="175.472" y2="439.774" gradientUnits="userSpaceOnUse">
<stop stop-color="#50B2B2"/>
<stop offset="0.740385" stop-color="#224C4C"/>
</linearGradient>
<linearGradient id="paint49_linear_47_180" x1="212.676" y1="196.727" x2="337.161" y2="539.677" gradientUnits="userSpaceOnUse">
<stop stop-color="#50B2B2"/>
<stop offset="0.740385" stop-color="#224C4C"/>
</linearGradient>
<linearGradient id="paint50_linear_47_180" x1="182.812" y1="245.094" x2="259.587" y2="548.965" gradientUnits="userSpaceOnUse">
<stop stop-color="#50B2B2"/>
<stop offset="0.740385" stop-color="#224C4C"/>
</linearGradient>
<linearGradient id="paint51_linear_47_180" x1="281.243" y1="296.991" x2="324.779" y2="566.921" gradientUnits="userSpaceOnUse">
<stop stop-color="#50B2B2"/>
<stop offset="0.740385" stop-color="#224C4C"/>
</linearGradient>
<linearGradient id="paint52_linear_47_180" x1="322.106" y1="475.56" x2="323.953" y2="515.573" gradientUnits="userSpaceOnUse">
<stop stop-color="#50B2B2"/>
<stop offset="0.740385" stop-color="#224C4C"/>
</linearGradient>
<linearGradient id="paint53_linear_47_180" x1="292.401" y1="408.087" x2="295.471" y2="475.509" gradientUnits="userSpaceOnUse">
<stop stop-color="#50B2B2"/>
<stop offset="0.740385" stop-color="#224C4C"/>
</linearGradient>
<linearGradient id="paint54_linear_47_180" x1="263.652" y1="336.895" x2="325.789" y2="537.601" gradientUnits="userSpaceOnUse">
<stop stop-color="#50B2B2"/>
<stop offset="0.740385" stop-color="#224C4C"/>
</linearGradient>
<linearGradient id="paint55_linear_47_180" x1="350.986" y1="353.772" x2="429.696" y2="390.43" gradientUnits="userSpaceOnUse">
<stop stop-color="#50B2B2"/>
<stop offset="0.740385" stop-color="#224C4C"/>
</linearGradient>
<linearGradient id="paint56_linear_47_180" x1="546.254" y1="209.178" x2="656.958" y2="569.889" gradientUnits="userSpaceOnUse">
<stop stop-color="#50B2B2"/>
<stop offset="0.740385" stop-color="#224C4C"/>
</linearGradient>
<linearGradient id="paint57_linear_47_180" x1="496.396" y1="431.227" x2="518.498" y2="518.374" gradientUnits="userSpaceOnUse">
<stop stop-color="#50B2B2"/>
<stop offset="0.740385" stop-color="#224C4C"/>
</linearGradient>
<linearGradient id="paint58_linear_47_180" x1="590.56" y1="332.265" x2="628.038" y2="480.389" gradientUnits="userSpaceOnUse">
<stop stop-color="#50B2B2"/>
<stop offset="0.740385" stop-color="#224C4C"/>
</linearGradient>
<linearGradient id="paint59_linear_47_180" x1="515.879" y1="309.449" x2="569.555" y2="543.279" gradientUnits="userSpaceOnUse">
<stop stop-color="#50B2B2"/>
<stop offset="0.740385" stop-color="#224C4C"/>
</linearGradient>
<linearGradient id="paint60_linear_47_180" x1="545.757" y1="261.091" x2="613.142" y2="547.242" gradientUnits="userSpaceOnUse">
<stop stop-color="#50B2B2"/>
<stop offset="0.740385" stop-color="#224C4C"/>
</linearGradient>
<linearGradient id="paint61_linear_47_180" x1="447.747" y1="3.73576" x2="491.283" y2="273.666" gradientUnits="userSpaceOnUse">
<stop stop-color="#50B2B2"/>
<stop offset="0.740385" stop-color="#224C4C"/>
</linearGradient>
<linearGradient id="paint62_linear_47_180" x1="436.595" y1="48.7931" x2="439.665" y2="116.213" gradientUnits="userSpaceOnUse">
<stop stop-color="#50B2B2"/>
<stop offset="0.740385" stop-color="#224C4C"/>
</linearGradient>
<linearGradient id="paint63_linear_47_180" x1="406.88" y1="1.78407" x2="408.728" y2="41.8066" gradientUnits="userSpaceOnUse">
<stop stop-color="#50B2B2"/>
<stop offset="0.740385" stop-color="#224C4C"/>
</linearGradient>
<linearGradient id="paint64_linear_47_180" x1="465.348" y1="6.35098" x2="527.484" y2="207.066" gradientUnits="userSpaceOnUse">
<stop stop-color="#50B2B2"/>
<stop offset="0.740385" stop-color="#224C4C"/>
</linearGradient>
<linearGradient id="paint65_linear_47_180" x1="378.013" y1="0.126022" x2="456.757" y2="36.8252" gradientUnits="userSpaceOnUse">
<stop stop-color="#50B2B2"/>
<stop offset="0.740385" stop-color="#224C4C"/>
</linearGradient>
<linearGradient id="paint66_linear_47_180" x1="182.746" y1="3.73244" x2="293.453" y2="364.447" gradientUnits="userSpaceOnUse">
<stop stop-color="#50B2B2"/>
<stop offset="0.740385" stop-color="#224C4C"/>
</linearGradient>
<linearGradient id="paint67_linear_47_180" x1="138.435" y1="57.4594" x2="175.912" y2="205.585" gradientUnits="userSpaceOnUse">
<stop stop-color="#50B2B2"/>
<stop offset="0.740385" stop-color="#224C4C"/>
</linearGradient>
<linearGradient id="paint68_linear_47_180" x1="232.595" y1="6.85504" x2="254.697" y2="94.0027" gradientUnits="userSpaceOnUse">
<stop stop-color="#50B2B2"/>
<stop offset="0.740385" stop-color="#224C4C"/>
</linearGradient>
<linearGradient id="paint69_linear_47_180" x1="213.113" y1="14.2365" x2="266.782" y2="248.058" gradientUnits="userSpaceOnUse">
<stop stop-color="#50B2B2"/>
<stop offset="0.740385" stop-color="#224C4C"/>
</linearGradient>
<linearGradient id="paint70_linear_47_180" x1="183.248" y1="20.9402" x2="250.632" y2="307.091" gradientUnits="userSpaceOnUse">
<stop stop-color="#50B2B2"/>
<stop offset="0.740385" stop-color="#224C4C"/>
</linearGradient>
<linearGradient id="paint71_linear_47_180" x1="281.249" y1="21.0736" x2="390.659" y2="440.487" gradientUnits="userSpaceOnUse">
<stop stop-color="#50B2B2"/>
<stop offset="0.740385" stop-color="#224C4C"/>
</linearGradient>
<linearGradient id="paint72_linear_47_180" x1="292.831" y1="173.899" x2="295.902" y2="241.32" gradientUnits="userSpaceOnUse">
<stop stop-color="#50B2B2"/>
<stop offset="0.740385" stop-color="#224C4C"/>
</linearGradient>
<linearGradient id="paint73_linear_47_180" x1="322.855" y1="74.9084" x2="324.702" y2="114.921" gradientUnits="userSpaceOnUse">
<stop stop-color="#50B2B2"/>
<stop offset="0.740385" stop-color="#224C4C"/>
</linearGradient>
<linearGradient id="paint74_linear_47_180" x1="264.088" y1="21.0871" x2="450.891" y2="334.755" gradientUnits="userSpaceOnUse">
<stop stop-color="#50B2B2"/>
<stop offset="0.740385" stop-color="#224C4C"/>
</linearGradient>
<linearGradient id="paint75_linear_47_180" x1="351.433" y1="21.082" x2="445.673" y2="41.8933" gradientUnits="userSpaceOnUse">
<stop stop-color="#50B2B2"/>
<stop offset="0.740385" stop-color="#224C4C"/>
</linearGradient>
<linearGradient id="paint76_linear_47_180" x1="546.69" y1="16.9828" x2="681.702" y2="410.679" gradientUnits="userSpaceOnUse">
<stop stop-color="#50B2B2"/>
<stop offset="0.740385" stop-color="#224C4C"/>
</linearGradient>
<linearGradient id="paint77_linear_47_180" x1="591" y1="98.067" x2="628.478" y2="246.192" gradientUnits="userSpaceOnUse">
<stop stop-color="#50B2B2"/>
<stop offset="0.740385" stop-color="#224C4C"/>
</linearGradient>
<linearGradient id="paint78_linear_47_180" x1="497.136" y1="30.5851" x2="519.238" y2="117.732" gradientUnits="userSpaceOnUse">
<stop stop-color="#50B2B2"/>
<stop offset="0.740385" stop-color="#224C4C"/>
</linearGradient>
<linearGradient id="paint79_linear_47_180" x1="516.314" y1="21.0804" x2="640.799" y2="364.032" gradientUnits="userSpaceOnUse">
<stop stop-color="#50B2B2"/>
<stop offset="0.740385" stop-color="#224C4C"/>
</linearGradient>
<linearGradient id="paint80_linear_47_180" x1="546.192" y1="21.0898" x2="622.965" y2="324.962" gradientUnits="userSpaceOnUse">
<stop stop-color="#50B2B2"/>
<stop offset="0.740385" stop-color="#224C4C"/>
</linearGradient>
<linearGradient id="paint81_linear_47_180" x1="364.509" y1="0" x2="533.013" y2="635.498" gradientUnits="userSpaceOnUse">
<stop stop-color="#50B2B2"/>
<stop offset="0.740385" stop-color="#224C4C"/>
</linearGradient>
<linearGradient id="paint82_linear_47_180" x1="3.03736" y1="233.568" x2="23.0975" y2="238.707" gradientUnits="userSpaceOnUse">
<stop stop-color="#50B2B2"/>
<stop offset="0.740385" stop-color="#224C4C"/>
</linearGradient>
</defs>
</svg>
